<svg version="1.1" xmlns="http://www.w3.org/2000/svg" xmlns:xlink="http://www.w3.org/1999/xlink" width="770.9072265625" height="532"><defs/><g><text fill="#eeeeee" stroke="none" font-family="Arial" font-size="24px" font-style="normal" font-weight="normal" text-decoration="none" x="0" y="0">UNREGISTERED</text><text fill="#eeeeee" stroke="none" font-family="Arial" font-size="24px" font-style="normal" font-weight="normal" text-decoration="none" x="0" y="30">UNREGISTERED</text><text fill="#eeeeee" stroke="none" font-family="Arial" font-size="24px" font-style="normal" font-weight="normal" text-decoration="none" x="0" y="60">UNREGISTERED</text><text fill="#eeeeee" stroke="none" font-family="Arial" font-size="24px" font-style="normal" font-weight="normal" text-decoration="none" x="0" y="90">UNREGISTERED</text><text fill="#eeeeee" stroke="none" font-family="Arial" font-size="24px" font-style="normal" font-weight="normal" text-decoration="none" x="0" y="120">UNREGISTERED</text><text fill="#eeeeee" stroke="none" font-family="Arial" font-size="24px" font-style="normal" font-weight="normal" text-decoration="none" x="0" y="150">UNREGISTERED</text><text fill="#eeeeee" stroke="none" font-family="Arial" font-size="24px" font-style="normal" font-weight="normal" text-decoration="none" x="0" y="180">UNREGISTERED</text><text fill="#eeeeee" stroke="none" font-family="Arial" font-size="24px" font-style="normal" font-weight="normal" text-decoration="none" x="0" y="210">UNREGISTERED</text><text fill="#eeeeee" stroke="none" font-family="Arial" font-size="24px" font-style="normal" font-weight="normal" text-decoration="none" x="0" y="240">UNREGISTERED</text><text fill="#eeeeee" stroke="none" font-family="Arial" font-size="24px" font-style="normal" font-weight="normal" text-decoration="none" x="0" y="270">UNREGISTERED</text><text fill="#eeeeee" stroke="none" font-family="Arial" font-size="24px" font-style="normal" font-weight="normal" text-decoration="none" x="0" y="300">UNREGISTERED</text><text fill="#eeeeee" stroke="none" font-family="Arial" font-size="24px" font-style="normal" font-weight="normal" text-decoration="none" x="0" y="330">UNREGISTERED</text><text fill="#eeeeee" stroke="none" font-family="Arial" font-size="24px" font-style="normal" font-weight="normal" text-decoration="none" x="0" y="360">UNREGISTERED</text><text fill="#eeeeee" stroke="none" font-family="Arial" font-size="24px" font-style="normal" font-weight="normal" text-decoration="none" x="0" y="390">UNREGISTERED</text><text fill="#eeeeee" stroke="none" font-family="Arial" font-size="24px" font-style="normal" font-weight="normal" text-decoration="none" x="0" y="420">UNREGISTERED</text><text fill="#eeeeee" stroke="none" font-family="Arial" font-size="24px" font-style="normal" font-weight="normal" text-decoration="none" x="0" y="450">UNREGISTERED</text><text fill="#eeeeee" stroke="none" font-family="Arial" font-size="24px" font-style="normal" font-weight="normal" text-decoration="none" x="0" y="480">UNREGISTERED</text><text fill="#eeeeee" stroke="none" font-family="Arial" font-size="24px" font-style="normal" font-weight="normal" text-decoration="none" x="0" y="510">UNREGISTERED</text><text fill="#eeeeee" stroke="none" font-family="Arial" font-size="24px" font-style="normal" font-weight="normal" text-decoration="none" x="200" y="0">UNREGISTERED</text><text fill="#eeeeee" stroke="none" font-family="Arial" font-size="24px" font-style="normal" font-weight="normal" text-decoration="none" x="200" y="30">UNREGISTERED</text><text fill="#eeeeee" stroke="none" font-family="Arial" font-size="24px" font-style="normal" font-weight="normal" text-decoration="none" x="200" y="60">UNREGISTERED</text><text fill="#eeeeee" stroke="none" font-family="Arial" font-size="24px" font-style="normal" font-weight="normal" text-decoration="none" x="200" y="90">UNREGISTERED</text><text fill="#eeeeee" stroke="none" font-family="Arial" font-size="24px" font-style="normal" font-weight="normal" text-decoration="none" x="200" y="120">UNREGISTERED</text><text fill="#eeeeee" stroke="none" font-family="Arial" font-size="24px" font-style="normal" font-weight="normal" text-decoration="none" x="200" y="150">UNREGISTERED</text><text fill="#eeeeee" stroke="none" font-family="Arial" font-size="24px" font-style="normal" font-weight="normal" text-decoration="none" x="200" y="180">UNREGISTERED</text><text fill="#eeeeee" stroke="none" font-family="Arial" font-size="24px" font-style="normal" font-weight="normal" text-decoration="none" x="200" y="210">UNREGISTERED</text><text fill="#eeeeee" stroke="none" font-family="Arial" font-size="24px" font-style="normal" font-weight="normal" text-decoration="none" x="200" y="240">UNREGISTERED</text><text fill="#eeeeee" stroke="none" font-family="Arial" font-size="24px" font-style="normal" font-weight="normal" text-decoration="none" x="200" y="270">UNREGISTERED</text><text fill="#eeeeee" stroke="none" font-family="Arial" font-size="24px" font-style="normal" font-weight="normal" text-decoration="none" x="200" y="300">UNREGISTERED</text><text fill="#eeeeee" stroke="none" font-family="Arial" font-size="24px" font-style="normal" font-weight="normal" text-decoration="none" x="200" y="330">UNREGISTERED</text><text fill="#eeeeee" stroke="none" font-family="Arial" font-size="24px" font-style="normal" font-weight="normal" text-decoration="none" x="200" y="360">UNREGISTERED</text><text fill="#eeeeee" stroke="none" font-family="Arial" font-size="24px" font-style="normal" font-weight="normal" text-decoration="none" x="200" y="390">UNREGISTERED</text><text fill="#eeeeee" stroke="none" font-family="Arial" font-size="24px" font-style="normal" font-weight="normal" text-decoration="none" x="200" y="420">UNREGISTERED</text><text fill="#eeeeee" stroke="none" font-family="Arial" font-size="24px" font-style="normal" font-weight="normal" text-decoration="none" x="200" y="450">UNREGISTERED</text><text fill="#eeeeee" stroke="none" font-family="Arial" font-size="24px" font-style="normal" font-weight="normal" text-decoration="none" x="200" y="480">UNREGISTERED</text><text fill="#eeeeee" stroke="none" font-family="Arial" font-size="24px" font-style="normal" font-weight="normal" text-decoration="none" x="200" y="510">UNREGISTERED</text><text fill="#eeeeee" stroke="none" font-family="Arial" font-size="24px" font-style="normal" font-weight="normal" text-decoration="none" x="400" y="0">UNREGISTERED</text><text fill="#eeeeee" stroke="none" font-family="Arial" font-size="24px" font-style="normal" font-weight="normal" text-decoration="none" x="400" y="30">UNREGISTERED</text><text fill="#eeeeee" stroke="none" font-family="Arial" font-size="24px" font-style="normal" font-weight="normal" text-decoration="none" x="400" y="60">UNREGISTERED</text><text fill="#eeeeee" stroke="none" font-family="Arial" font-size="24px" font-style="normal" font-weight="normal" text-decoration="none" x="400" y="90">UNREGISTERED</text><text fill="#eeeeee" stroke="none" font-family="Arial" font-size="24px" font-style="normal" font-weight="normal" text-decoration="none" x="400" y="120">UNREGISTERED</text><text fill="#eeeeee" stroke="none" font-family="Arial" font-size="24px" font-style="normal" font-weight="normal" text-decoration="none" x="400" y="150">UNREGISTERED</text><text fill="#eeeeee" stroke="none" font-family="Arial" font-size="24px" font-style="normal" font-weight="normal" text-decoration="none" x="400" y="180">UNREGISTERED</text><text fill="#eeeeee" stroke="none" font-family="Arial" font-size="24px" font-style="normal" font-weight="normal" text-decoration="none" x="400" y="210">UNREGISTERED</text><text fill="#eeeeee" stroke="none" font-family="Arial" font-size="24px" font-style="normal" font-weight="normal" text-decoration="none" x="400" y="240">UNREGISTERED</text><text fill="#eeeeee" stroke="none" font-family="Arial" font-size="24px" font-style="normal" font-weight="normal" text-decoration="none" x="400" y="270">UNREGISTERED</text><text fill="#eeeeee" stroke="none" font-family="Arial" font-size="24px" font-style="normal" font-weight="normal" text-decoration="none" x="400" y="300">UNREGISTERED</text><text fill="#eeeeee" stroke="none" font-family="Arial" font-size="24px" font-style="normal" font-weight="normal" text-decoration="none" x="400" y="330">UNREGISTERED</text><text fill="#eeeeee" stroke="none" font-family="Arial" font-size="24px" font-style="normal" font-weight="normal" text-decoration="none" x="400" y="360">UNREGISTERED</text><text fill="#eeeeee" stroke="none" font-family="Arial" font-size="24px" font-style="normal" font-weight="normal" text-decoration="none" x="400" y="390">UNREGISTERED</text><text fill="#eeeeee" stroke="none" font-family="Arial" font-size="24px" font-style="normal" font-weight="normal" text-decoration="none" x="400" y="420">UNREGISTERED</text><text fill="#eeeeee" stroke="none" font-family="Arial" font-size="24px" font-style="normal" font-weight="normal" text-decoration="none" x="400" y="450">UNREGISTERED</text><text fill="#eeeeee" stroke="none" font-family="Arial" font-size="24px" font-style="normal" font-weight="normal" text-decoration="none" x="400" y="480">UNREGISTERED</text><text fill="#eeeeee" stroke="none" font-family="Arial" font-size="24px" font-style="normal" font-weight="normal" text-decoration="none" x="400" y="510">UNREGISTERED</text><text fill="#eeeeee" stroke="none" font-family="Arial" font-size="24px" font-style="normal" font-weight="normal" text-decoration="none" x="600" y="0">UNREGISTERED</text><text fill="#eeeeee" stroke="none" font-family="Arial" font-size="24px" font-style="normal" font-weight="normal" text-decoration="none" x="600" y="30">UNREGISTERED</text><text fill="#eeeeee" stroke="none" font-family="Arial" font-size="24px" font-style="normal" font-weight="normal" text-decoration="none" x="600" y="60">UNREGISTERED</text><text fill="#eeeeee" stroke="none" font-family="Arial" font-size="24px" font-style="normal" font-weight="normal" text-decoration="none" x="600" y="90">UNREGISTERED</text><text fill="#eeeeee" stroke="none" font-family="Arial" font-size="24px" font-style="normal" font-weight="normal" text-decoration="none" x="600" y="120">UNREGISTERED</text><text fill="#eeeeee" stroke="none" font-family="Arial" font-size="24px" font-style="normal" font-weight="normal" text-decoration="none" x="600" y="150">UNREGISTERED</text><text fill="#eeeeee" stroke="none" font-family="Arial" font-size="24px" font-style="normal" font-weight="normal" text-decoration="none" x="600" y="180">UNREGISTERED</text><text fill="#eeeeee" stroke="none" font-family="Arial" font-size="24px" font-style="normal" font-weight="normal" text-decoration="none" x="600" y="210">UNREGISTERED</text><text fill="#eeeeee" stroke="none" font-family="Arial" font-size="24px" font-style="normal" font-weight="normal" text-decoration="none" x="600" y="240">UNREGISTERED</text><text fill="#eeeeee" stroke="none" font-family="Arial" font-size="24px" font-style="normal" font-weight="normal" text-decoration="none" x="600" y="270">UNREGISTERED</text><text fill="#eeeeee" stroke="none" font-family="Arial" font-size="24px" font-style="normal" font-weight="normal" text-decoration="none" x="600" y="300">UNREGISTERED</text><text fill="#eeeeee" stroke="none" font-family="Arial" font-size="24px" font-style="normal" font-weight="normal" text-decoration="none" x="600" y="330">UNREGISTERED</text><text fill="#eeeeee" stroke="none" font-family="Arial" font-size="24px" font-style="normal" font-weight="normal" text-decoration="none" x="600" y="360">UNREGISTERED</text><text fill="#eeeeee" stroke="none" font-family="Arial" font-size="24px" font-style="normal" font-weight="normal" text-decoration="none" x="600" y="390">UNREGISTERED</text><text fill="#eeeeee" stroke="none" font-family="Arial" font-size="24px" font-style="normal" font-weight="normal" text-decoration="none" x="600" y="420">UNREGISTERED</text><text fill="#eeeeee" stroke="none" font-family="Arial" font-size="24px" font-style="normal" font-weight="normal" text-decoration="none" x="600" y="450">UNREGISTERED</text><text fill="#eeeeee" stroke="none" font-family="Arial" font-size="24px" font-style="normal" font-weight="normal" text-decoration="none" x="600" y="480">UNREGISTERED</text><text fill="#eeeeee" stroke="none" font-family="Arial" font-size="24px" font-style="normal" font-weight="normal" text-decoration="none" x="600" y="510">UNREGISTERED</text><g transform="translate(-14,2) scale(1,1)"><rect fill="#C0C0C0" stroke="none" x="175" y="15" width="182.39999999999998" height="15" opacity="0.2"/></g><g transform="translate(-14,2) scale(1,1)"><rect fill="#C0C0C0" stroke="none" x="175" y="29" width="456" height="498" opacity="0.2"/></g><g transform="translate(-14,2) scale(1,1)"><rect fill="#ffffff" stroke="none" x="168" y="23" width="456" height="497"/></g><g transform="translate(-14,2) scale(1,1)"><path fill="none" stroke="#000000" d="M 168 23 L 624 23 L 624 520 L 168 520 L 168 23 Z Z" stroke-miterlimit="10"/></g><g transform="translate(-14,2) scale(1,1)"><rect fill="#ffffff" stroke="none" x="168" y="8" width="182.39999999999998" height="15"/></g><g transform="translate(-14,2) scale(1,1)"><path fill="none" stroke="#000000" d="M 168 8 L 350.4 8 L 350.4 23 L 168 23 L 168 8 Z Z" stroke-miterlimit="10"/></g><g transform="translate(-14,2) scale(1,1)"><rect fill="#ffffff" stroke="none" x="168" y="22" width="456" height="498"/></g><g transform="translate(-14,2) scale(1,1)"><path fill="none" stroke="#000000" d="M 168 22 L 624 22 L 624 520 L 168 520 L 168 22 Z Z" stroke-miterlimit="10"/></g><g transform="translate(-14,2) scale(1,1)"><g><path fill="none" stroke="none"/><text fill="#000000" stroke="none" font-family="Arial" font-size="13px" font-style="normal" font-weight="bold" text-decoration="none" x="334.94189453125" y="42.5">Diagrama Contextual</text></g></g><g transform="translate(-14,2) scale(1,1)"><path fill="#C0C0C0" stroke="none" d="M 311 159 C 311 145.7451648 347.936504 135 393.5 135 C 439.063496 135 476 145.7451648 476 159 C 476 172.2548352 439.063496 183 393.5 183 C 347.936504 183 311 172.2548352 311 159 Z" opacity="0.2"/></g><g transform="translate(-14,2) scale(1,1)"><path fill="#ffffff" stroke="none" d="M 304 152 C 304 138.7451648 340.936504 128 386.5 128 C 432.063496 128 469 138.7451648 469 152 C 469 165.2548352 432.063496 176 386.5 176 C 340.936504 176 304 165.2548352 304 152 Z"/></g><g transform="translate(-14,2) scale(1,1)"><path fill="none" stroke="#000000" d="M 304 152 C 304 138.7451648 340.936504 128 386.5 128 C 432.063496 128 469 138.7451648 469 152 C 469 165.2548352 432.063496 176 386.5 176 C 340.936504 176 304 165.2548352 304 152 Z" stroke-miterlimit="10"/></g><g transform="translate(-14,2) scale(1,1)"><g><path fill="none" stroke="none"/><text fill="#000000" stroke="none" font-family="Arial" font-size="13px" font-style="normal" font-weight="bold" text-decoration="none" x="336.6455078125" y="159">Comprar Produto</text></g></g><g transform="translate(-14,2) scale(1,1)"><path fill="#C0C0C0" stroke="none" d="M 311 235 C 311 219.5360256 347.936504 207 393.5 207 C 439.063496 207 476 219.5360256 476 235 C 476 250.4639744 439.063496 263 393.5 263 C 347.936504 263 311 250.4639744 311 235 Z" opacity="0.2"/></g><g transform="translate(-14,2) scale(1,1)"><path fill="#ffffff" stroke="none" d="M 304 228 C 304 212.5360256 340.936504 200 386.5 200 C 432.063496 200 469 212.5360256 469 228 C 469 243.4639744 432.063496 256 386.5 256 C 340.936504 256 304 243.4639744 304 228 Z"/></g><g transform="translate(-14,2) scale(1,1)"><path fill="none" stroke="#000000" d="M 304 228 C 304 212.5360256 340.936504 200 386.5 200 C 432.063496 200 469 212.5360256 469 228 C 469 243.4639744 432.063496 256 386.5 256 C 340.936504 256 304 243.4639744 304 228 Z" stroke-miterlimit="10"/></g><g transform="translate(-14,2) scale(1,1)"><g><path fill="none" stroke="none"/><text fill="#000000" stroke="none" font-family="Arial" font-size="13px" font-style="normal" font-weight="bold" text-decoration="none" x="335.921875" y="235">Cadastrar Cliente</text></g></g><g transform="translate(-14,2) scale(1,1)"><path fill="#C0C0C0" stroke="none" d="M 287 307 C 287 291.5360256 336.6963872 279 398 279 C 459.3036128 279 509 291.5360256 509 307 C 509 322.4639744 459.3036128 335 398 335 C 336.6963872 335 287 322.4639744 287 307 Z" opacity="0.2"/></g><g transform="translate(-14,2) scale(1,1)"><path fill="#ffffff" stroke="none" d="M 280 300 C 280 284.5360256 329.6963872 272 391 272 C 452.3036128 272 502 284.5360256 502 300 C 502 315.4639744 452.3036128 328 391 328 C 329.6963872 328 280 315.4639744 280 300 Z"/></g><g transform="translate(-14,2) scale(1,1)"><path fill="none" stroke="#000000" d="M 280 300 C 280 284.5360256 329.6963872 272 391 272 C 452.3036128 272 502 284.5360256 502 300 C 502 315.4639744 452.3036128 328 391 328 C 329.6963872 328 280 315.4639744 280 300 Z" stroke-miterlimit="10"/></g><g transform="translate(-14,2) scale(1,1)"><g><path fill="none" stroke="none"/><text fill="#000000" stroke="none" font-family="Arial" font-size="13px" font-style="normal" font-weight="bold" text-decoration="none" x="322.721435546875" y="307">Cadastar Administrador</text></g></g><g transform="translate(-14,2) scale(1,1)"><path fill="#C0C0C0" stroke="none" d="M 319 387 C 319 371.5360256 357.9512224 359 406 359 C 454.0487776 359 493 371.5360256 493 387 C 493 402.4639744 454.0487776 415 406 415 C 357.9512224 415 319 402.4639744 319 387 Z" opacity="0.2"/></g><g transform="translate(-14,2) scale(1,1)"><path fill="#ffffff" stroke="none" d="M 312 380 C 312 364.5360256 350.9512224 352 399 352 C 447.0487776 352 486 364.5360256 486 380 C 486 395.4639744 447.0487776 408 399 408 C 350.9512224 408 312 395.4639744 312 380 Z"/></g><g transform="translate(-14,2) scale(1,1)"><path fill="none" stroke="#000000" d="M 312 380 C 312 364.5360256 350.9512224 352 399 352 C 447.0487776 352 486 364.5360256 486 380 C 486 395.4639744 447.0487776 408 399 408 C 350.9512224 408 312 395.4639744 312 380 Z" stroke-miterlimit="10"/></g><g transform="translate(-14,2) scale(1,1)"><g><path fill="none" stroke="none"/><text fill="#000000" stroke="none" font-family="Arial" font-size="13px" font-style="normal" font-weight="bold" text-decoration="none" x="345.88916015625" y="387">Cadastrar Produto</text></g></g><g transform="translate(-14,2) scale(1,1)"><path fill="#C0C0C0" stroke="none" d="M 279 467 C 279 451.5360256 336.7552608 439 408 439 C 479.2447392 439 537 451.5360256 537 467 C 537 482.4639744 479.2447392 495 408 495 C 336.7552608 495 279 482.4639744 279 467 Z" opacity="0.2"/></g><g transform="translate(-14,2) scale(1,1)"><path fill="#ffffff" stroke="none" d="M 272 460 C 272 444.5360256 329.7552608 432 401 432 C 472.2447392 432 530 444.5360256 530 460 C 530 475.4639744 472.2447392 488 401 488 C 329.7552608 488 272 475.4639744 272 460 Z"/></g><g transform="translate(-14,2) scale(1,1)"><path fill="none" stroke="#000000" d="M 272 460 C 272 444.5360256 329.7552608 432 401 432 C 472.2447392 432 530 444.5360256 530 460 C 530 475.4639744 472.2447392 488 401 488 C 329.7552608 488 272 475.4639744 272 460 Z" stroke-miterlimit="10"/></g><g transform="translate(-14,2) scale(1,1)"><g><path fill="none" stroke="none"/><text fill="#000000" stroke="none" font-family="Arial" font-size="13px" font-style="normal" font-weight="bold" text-decoration="none" x="319.3564453125" y="467">Gerar Relatório de Compras</text></g></g><g transform="translate(-14,2) scale(1,1)"><path fill="#ffffff" stroke="none" d="M 65.49162571022727 121.68 C 65.49162571022727 116.886167936 69.37746803517273 113 74.1708984375 113 C 78.96432883982727 113 82.85017116477273 116.886167936 82.85017116477273 121.68 C 82.85017116477273 126.473832064 78.96432883982727 130.36 74.1708984375 130.36 C 69.37746803517273 130.36 65.49162571022727 126.473832064 65.49162571022727 121.68 Z"/></g><g transform="translate(-14,2) scale(1,1)"><path fill="none" stroke="#000000" d="M 65.49162571022727 121.68 C 65.49162571022727 116.886167936 69.37746803517273 113 74.1708984375 113 C 78.96432883982727 113 82.85017116477273 116.886167936 82.85017116477273 121.68 C 82.85017116477273 126.473832064 78.96432883982727 130.36 74.1708984375 130.36 C 69.37746803517273 130.36 65.49162571022727 126.473832064 65.49162571022727 121.68 Z" stroke-miterlimit="10"/></g><g transform="translate(-14,2) scale(1,1)"><path fill="none" stroke="#000000" d="M 74.1708984375 130.36 L 74.1708984375 147.64" stroke-miterlimit="10"/></g><g transform="translate(-14,2) scale(1,1)"><path fill="none" stroke="#000000" d="M 64.98108025568182 136.84 L 83.36071661931818 136.84" stroke-miterlimit="10"/></g><g transform="translate(-14,2) scale(1,1)"><path fill="none" stroke="#000000" d="M 74.1708984375 147.64 L 61.407262073863635 165" stroke-miterlimit="10"/></g><g transform="translate(-14,2) scale(1,1)"><path fill="none" stroke="#000000" d="M 74.1708984375 147.64 L 86.93453480113637 165" stroke-miterlimit="10"/></g><g transform="translate(-14,2) scale(1,1)"><g><path fill="none" stroke="none"/><text fill="#000000" stroke="none" font-family="Arial" font-size="13px" font-style="normal" font-weight="bold" text-decoration="none" x="53.937744140625" y="185.5">Cliente</text></g></g><g transform="translate(-14,2) scale(1,1)"><path fill="none" stroke="#000000" d="M 101 151 L 303 152" stroke-miterlimit="10"/></g><g transform="translate(-14,2) scale(1,1)"><path fill="#ffffff" stroke="none" d="M 64.24162571022727 337.68 C 64.24162571022727 332.886167936 68.12746803517273 329 72.9208984375 329 C 77.71432883982727 329 81.60017116477273 332.886167936 81.60017116477273 337.68 C 81.60017116477273 342.473832064 77.71432883982727 346.36 72.9208984375 346.36 C 68.12746803517273 346.36 64.24162571022727 342.473832064 64.24162571022727 337.68 Z"/></g><g transform="translate(-14,2) scale(1,1)"><path fill="none" stroke="#000000" d="M 64.24162571022727 337.68 C 64.24162571022727 332.886167936 68.12746803517273 329 72.9208984375 329 C 77.71432883982727 329 81.60017116477273 332.886167936 81.60017116477273 337.68 C 81.60017116477273 342.473832064 77.71432883982727 346.36 72.9208984375 346.36 C 68.12746803517273 346.36 64.24162571022727 342.473832064 64.24162571022727 337.68 Z" stroke-miterlimit="10"/></g><g transform="translate(-14,2) scale(1,1)"><path fill="none" stroke="#000000" d="M 72.9208984375 346.36 L 72.9208984375 363.64" stroke-miterlimit="10"/></g><g transform="translate(-14,2) scale(1,1)"><path fill="none" stroke="#000000" d="M 63.73108025568182 352.84 L 82.11071661931818 352.84" stroke-miterlimit="10"/></g><g transform="translate(-14,2) scale(1,1)"><path fill="none" stroke="#000000" d="M 72.9208984375 363.64 L 60.157262073863635 381" stroke-miterlimit="10"/></g><g transform="translate(-14,2) scale(1,1)"><path fill="none" stroke="#000000" d="M 72.9208984375 363.64 L 85.68453480113637 381" stroke-miterlimit="10"/></g><g transform="translate(-14,2) scale(1,1)"><g><path fill="none" stroke="none"/><text fill="#000000" stroke="none" font-family="Arial" font-size="13px" font-style="normal" font-weight="bold" text-decoration="none" x="32.82275390625" y="401.5">Administrador</text></g></g><g transform="translate(-14,2) scale(1,1)"><path fill="none" stroke="#000000" d="M 123 344 L 320 257" stroke-miterlimit="10"/></g><g transform="translate(-14,2) scale(1,1)"><path fill="none" stroke="#000000" d="M 123 356 L 279 324" stroke-miterlimit="10"/></g><g transform="translate(-14,2) scale(1,1)"><path fill="none" stroke="#000000" d="M 123 369 L 311 377" stroke-miterlimit="10"/></g><g transform="translate(-14,2) scale(1,1)"><path fill="none" stroke="#000000" d="M 123 381 L 298 431" stroke-miterlimit="10"/></g><g transform="translate(-14,2) scale(1,1)"><path fill="#ffffff" stroke="none" d="M 714.7743405539773 121.68 C 714.7743405539773 116.886167936 718.6601828789227 113 723.45361328125 113 C 728.2470436835773 113 732.1328860085227 116.886167936 732.1328860085227 121.68 C 732.1328860085227 126.473832064 728.2470436835773 130.36 723.45361328125 130.36 C 718.6601828789227 130.36 714.7743405539773 126.473832064 714.7743405539773 121.68 Z"/></g><g transform="translate(-14,2) scale(1,1)"><path fill="none" stroke="#000000" d="M 714.7743405539773 121.68 C 714.7743405539773 116.886167936 718.6601828789227 113 723.45361328125 113 C 728.2470436835773 113 732.1328860085227 116.886167936 732.1328860085227 121.68 C 732.1328860085227 126.473832064 728.2470436835773 130.36 723.45361328125 130.36 C 718.6601828789227 130.36 714.7743405539773 126.473832064 714.7743405539773 121.68 Z" stroke-miterlimit="10"/></g><g transform="translate(-14,2) scale(1,1)"><path fill="none" stroke="#000000" d="M 723.45361328125 130.36 L 723.45361328125 147.64" stroke-miterlimit="10"/></g><g transform="translate(-14,2) scale(1,1)"><path fill="none" stroke="#000000" d="M 714.2637950994318 136.84 L 732.6434314630682 136.84" stroke-miterlimit="10"/></g><g transform="translate(-14,2) scale(1,1)"><path fill="none" stroke="#000000" d="M 723.45361328125 147.64 L 710.6899769176136 165" stroke-miterlimit="10"/></g><g transform="translate(-14,2) scale(1,1)"><path fill="none" stroke="#000000" d="M 723.45361328125 147.64 L 736.2172496448864 165" stroke-miterlimit="10"/></g><g transform="translate(-14,2) scale(1,1)"><g><path fill="none" stroke="none"/><text fill="#000000" stroke="none" font-family="Arial" font-size="13px" font-style="normal" font-weight="bold" text-decoration="none" x="678.6455078125" y="185.5">API PagSeguro</text></g></g><g transform="translate(-14,2) scale(1,1)"><path fill="none" stroke="#000000" d="M 671 151 L 470 152" stroke-miterlimit="10"/></g><g transform="translate(-14,2) scale(1,1)"><path fill="#ffffff" stroke="none" d="M 715.1920651633523 225.68 C 715.1920651633523 220.886167936 719.0779074882977 217 723.871337890625 217 C 728.6647682929523 217 732.5506106178977 220.886167936 732.5506106178977 225.68 C 732.5506106178977 230.47383206400002 728.6647682929523 234.36 723.871337890625 234.36 C 719.0779074882977 234.36 715.1920651633523 230.47383206400002 715.1920651633523 225.68 Z"/></g><g transform="translate(-14,2) scale(1,1)"><path fill="none" stroke="#000000" d="M 715.1920651633523 225.68 C 715.1920651633523 220.886167936 719.0779074882977 217 723.871337890625 217 C 728.6647682929523 217 732.5506106178977 220.886167936 732.5506106178977 225.68 C 732.5506106178977 230.47383206400002 728.6647682929523 234.36 723.871337890625 234.36 C 719.0779074882977 234.36 715.1920651633523 230.47383206400002 715.1920651633523 225.68 Z" stroke-miterlimit="10"/></g><g transform="translate(-14,2) scale(1,1)"><path fill="none" stroke="#000000" d="M 723.871337890625 234.36 L 723.871337890625 251.64" stroke-miterlimit="10"/></g><g transform="translate(-14,2) scale(1,1)"><path fill="none" stroke="#000000" d="M 714.6815197088068 240.84 L 733.0611560724432 240.84" stroke-miterlimit="10"/></g><g transform="translate(-14,2) scale(1,1)"><path fill="none" stroke="#000000" d="M 723.871337890625 251.64 L 711.1077015269886 269" stroke-miterlimit="10"/></g><g transform="translate(-14,2) scale(1,1)"><path fill="none" stroke="#000000" d="M 723.871337890625 251.64 L 736.6349742542614 269" stroke-miterlimit="10"/></g><g transform="translate(-14,2) scale(1,1)"><g><path fill="none" stroke="none"/><text fill="#000000" stroke="none" font-family="Arial" font-size="13px" font-style="normal" font-weight="bold" text-decoration="none" x="687.0263671875" y="289.5">API Correios</text></g></g><g transform="translate(-14,2) scale(1,1)"><path fill="none" stroke="#000000" d="M 679 242 L 468 177" stroke-miterlimit="10"/></g></g></svg>