<svg version="1.1" xmlns="http://www.w3.org/2000/svg" xmlns:xlink="http://www.w3.org/1999/xlink" width="987.62451171875" height="652"><defs/><g><text fill="#eeeeee" stroke="none" font-family="Arial" font-size="24px" font-style="normal" font-weight="normal" text-decoration="none" x="0" y="0">UNREGISTERED</text><text fill="#eeeeee" stroke="none" font-family="Arial" font-size="24px" font-style="normal" font-weight="normal" text-decoration="none" x="0" y="30">UNREGISTERED</text><text fill="#eeeeee" stroke="none" font-family="Arial" font-size="24px" font-style="normal" font-weight="normal" text-decoration="none" x="0" y="60">UNREGISTERED</text><text fill="#eeeeee" stroke="none" font-family="Arial" font-size="24px" font-style="normal" font-weight="normal" text-decoration="none" x="0" y="90">UNREGISTERED</text><text fill="#eeeeee" stroke="none" font-family="Arial" font-size="24px" font-style="normal" font-weight="normal" text-decoration="none" x="0" y="120">UNREGISTERED</text><text fill="#eeeeee" stroke="none" font-family="Arial" font-size="24px" font-style="normal" font-weight="normal" text-decoration="none" x="0" y="150">UNREGISTERED</text><text fill="#eeeeee" stroke="none" font-family="Arial" font-size="24px" font-style="normal" font-weight="normal" text-decoration="none" x="0" y="180">UNREGISTERED</text><text fill="#eeeeee" stroke="none" font-family="Arial" font-size="24px" font-style="normal" font-weight="normal" text-decoration="none" x="0" y="210">UNREGISTERED</text><text fill="#eeeeee" stroke="none" font-family="Arial" font-size="24px" font-style="normal" font-weight="normal" text-decoration="none" x="0" y="240">UNREGISTERED</text><text fill="#eeeeee" stroke="none" font-family="Arial" font-size="24px" font-style="normal" font-weight="normal" text-decoration="none" x="0" y="270">UNREGISTERED</text><text fill="#eeeeee" stroke="none" font-family="Arial" font-size="24px" font-style="normal" font-weight="normal" text-decoration="none" x="0" y="300">UNREGISTERED</text><text fill="#eeeeee" stroke="none" font-family="Arial" font-size="24px" font-style="normal" font-weight="normal" text-decoration="none" x="0" y="330">UNREGISTERED</text><text fill="#eeeeee" stroke="none" font-family="Arial" font-size="24px" font-style="normal" font-weight="normal" text-decoration="none" x="0" y="360">UNREGISTERED</text><text fill="#eeeeee" stroke="none" font-family="Arial" font-size="24px" font-style="normal" font-weight="normal" text-decoration="none" x="0" y="390">UNREGISTERED</text><text fill="#eeeeee" stroke="none" font-family="Arial" font-size="24px" font-style="normal" font-weight="normal" text-decoration="none" x="0" y="420">UNREGISTERED</text><text fill="#eeeeee" stroke="none" font-family="Arial" font-size="24px" font-style="normal" font-weight="normal" text-decoration="none" x="0" y="450">UNREGISTERED</text><text fill="#eeeeee" stroke="none" font-family="Arial" font-size="24px" font-style="normal" font-weight="normal" text-decoration="none" x="0" y="480">UNREGISTERED</text><text fill="#eeeeee" stroke="none" font-family="Arial" font-size="24px" font-style="normal" font-weight="normal" text-decoration="none" x="0" y="510">UNREGISTERED</text><text fill="#eeeeee" stroke="none" font-family="Arial" font-size="24px" font-style="normal" font-weight="normal" text-decoration="none" x="0" y="540">UNREGISTERED</text><text fill="#eeeeee" stroke="none" font-family="Arial" font-size="24px" font-style="normal" font-weight="normal" text-decoration="none" x="0" y="570">UNREGISTERED</text><text fill="#eeeeee" stroke="none" font-family="Arial" font-size="24px" font-style="normal" font-weight="normal" text-decoration="none" x="0" y="600">UNREGISTERED</text><text fill="#eeeeee" stroke="none" font-family="Arial" font-size="24px" font-style="normal" font-weight="normal" text-decoration="none" x="0" y="630">UNREGISTERED</text><text fill="#eeeeee" stroke="none" font-family="Arial" font-size="24px" font-style="normal" font-weight="normal" text-decoration="none" x="200" y="0">UNREGISTERED</text><text fill="#eeeeee" stroke="none" font-family="Arial" font-size="24px" font-style="normal" font-weight="normal" text-decoration="none" x="200" y="30">UNREGISTERED</text><text fill="#eeeeee" stroke="none" font-family="Arial" font-size="24px" font-style="normal" font-weight="normal" text-decoration="none" x="200" y="60">UNREGISTERED</text><text fill="#eeeeee" stroke="none" font-family="Arial" font-size="24px" font-style="normal" font-weight="normal" text-decoration="none" x="200" y="90">UNREGISTERED</text><text fill="#eeeeee" stroke="none" font-family="Arial" font-size="24px" font-style="normal" font-weight="normal" text-decoration="none" x="200" y="120">UNREGISTERED</text><text fill="#eeeeee" stroke="none" font-family="Arial" font-size="24px" font-style="normal" font-weight="normal" text-decoration="none" x="200" y="150">UNREGISTERED</text><text fill="#eeeeee" stroke="none" font-family="Arial" font-size="24px" font-style="normal" font-weight="normal" text-decoration="none" x="200" y="180">UNREGISTERED</text><text fill="#eeeeee" stroke="none" font-family="Arial" font-size="24px" font-style="normal" font-weight="normal" text-decoration="none" x="200" y="210">UNREGISTERED</text><text fill="#eeeeee" stroke="none" font-family="Arial" font-size="24px" font-style="normal" font-weight="normal" text-decoration="none" x="200" y="240">UNREGISTERED</text><text fill="#eeeeee" stroke="none" font-family="Arial" font-size="24px" font-style="normal" font-weight="normal" text-decoration="none" x="200" y="270">UNREGISTERED</text><text fill="#eeeeee" stroke="none" font-family="Arial" font-size="24px" font-style="normal" font-weight="normal" text-decoration="none" x="200" y="300">UNREGISTERED</text><text fill="#eeeeee" stroke="none" font-family="Arial" font-size="24px" font-style="normal" font-weight="normal" text-decoration="none" x="200" y="330">UNREGISTERED</text><text fill="#eeeeee" stroke="none" font-family="Arial" font-size="24px" font-style="normal" font-weight="normal" text-decoration="none" x="200" y="360">UNREGISTERED</text><text fill="#eeeeee" stroke="none" font-family="Arial" font-size="24px" font-style="normal" font-weight="normal" text-decoration="none" x="200" y="390">UNREGISTERED</text><text fill="#eeeeee" stroke="none" font-family="Arial" font-size="24px" font-style="normal" font-weight="normal" text-decoration="none" x="200" y="420">UNREGISTERED</text><text fill="#eeeeee" stroke="none" font-family="Arial" font-size="24px" font-style="normal" font-weight="normal" text-decoration="none" x="200" y="450">UNREGISTERED</text><text fill="#eeeeee" stroke="none" font-family="Arial" font-size="24px" font-style="normal" font-weight="normal" text-decoration="none" x="200" y="480">UNREGISTERED</text><text fill="#eeeeee" stroke="none" font-family="Arial" font-size="24px" font-style="normal" font-weight="normal" text-decoration="none" x="200" y="510">UNREGISTERED</text><text fill="#eeeeee" stroke="none" font-family="Arial" font-size="24px" font-style="normal" font-weight="normal" text-decoration="none" x="200" y="540">UNREGISTERED</text><text fill="#eeeeee" stroke="none" font-family="Arial" font-size="24px" font-style="normal" font-weight="normal" text-decoration="none" x="200" y="570">UNREGISTERED</text><text fill="#eeeeee" stroke="none" font-family="Arial" font-size="24px" font-style="normal" font-weight="normal" text-decoration="none" x="200" y="600">UNREGISTERED</text><text fill="#eeeeee" stroke="none" font-family="Arial" font-size="24px" font-style="normal" font-weight="normal" text-decoration="none" x="200" y="630">UNREGISTERED</text><text fill="#eeeeee" stroke="none" font-family="Arial" font-size="24px" font-style="normal" font-weight="normal" text-decoration="none" x="400" y="0">UNREGISTERED</text><text fill="#eeeeee" stroke="none" font-family="Arial" font-size="24px" font-style="normal" font-weight="normal" text-decoration="none" x="400" y="30">UNREGISTERED</text><text fill="#eeeeee" stroke="none" font-family="Arial" font-size="24px" font-style="normal" font-weight="normal" text-decoration="none" x="400" y="60">UNREGISTERED</text><text fill="#eeeeee" stroke="none" font-family="Arial" font-size="24px" font-style="normal" font-weight="normal" text-decoration="none" x="400" y="90">UNREGISTERED</text><text fill="#eeeeee" stroke="none" font-family="Arial" font-size="24px" font-style="normal" font-weight="normal" text-decoration="none" x="400" y="120">UNREGISTERED</text><text fill="#eeeeee" stroke="none" font-family="Arial" font-size="24px" font-style="normal" font-weight="normal" text-decoration="none" x="400" y="150">UNREGISTERED</text><text fill="#eeeeee" stroke="none" font-family="Arial" font-size="24px" font-style="normal" font-weight="normal" text-decoration="none" x="400" y="180">UNREGISTERED</text><text fill="#eeeeee" stroke="none" font-family="Arial" font-size="24px" font-style="normal" font-weight="normal" text-decoration="none" x="400" y="210">UNREGISTERED</text><text fill="#eeeeee" stroke="none" font-family="Arial" font-size="24px" font-style="normal" font-weight="normal" text-decoration="none" x="400" y="240">UNREGISTERED</text><text fill="#eeeeee" stroke="none" font-family="Arial" font-size="24px" font-style="normal" font-weight="normal" text-decoration="none" x="400" y="270">UNREGISTERED</text><text fill="#eeeeee" stroke="none" font-family="Arial" font-size="24px" font-style="normal" font-weight="normal" text-decoration="none" x="400" y="300">UNREGISTERED</text><text fill="#eeeeee" stroke="none" font-family="Arial" font-size="24px" font-style="normal" font-weight="normal" text-decoration="none" x="400" y="330">UNREGISTERED</text><text fill="#eeeeee" stroke="none" font-family="Arial" font-size="24px" font-style="normal" font-weight="normal" text-decoration="none" x="400" y="360">UNREGISTERED</text><text fill="#eeeeee" stroke="none" font-family="Arial" font-size="24px" font-style="normal" font-weight="normal" text-decoration="none" x="400" y="390">UNREGISTERED</text><text fill="#eeeeee" stroke="none" font-family="Arial" font-size="24px" font-style="normal" font-weight="normal" text-decoration="none" x="400" y="420">UNREGISTERED</text><text fill="#eeeeee" stroke="none" font-family="Arial" font-size="24px" font-style="normal" font-weight="normal" text-decoration="none" x="400" y="450">UNREGISTERED</text><text fill="#eeeeee" stroke="none" font-family="Arial" font-size="24px" font-style="normal" font-weight="normal" text-decoration="none" x="400" y="480">UNREGISTERED</text><text fill="#eeeeee" stroke="none" font-family="Arial" font-size="24px" font-style="normal" font-weight="normal" text-decoration="none" x="400" y="510">UNREGISTERED</text><text fill="#eeeeee" stroke="none" font-family="Arial" font-size="24px" font-style="normal" font-weight="normal" text-decoration="none" x="400" y="540">UNREGISTERED</text><text fill="#eeeeee" stroke="none" font-family="Arial" font-size="24px" font-style="normal" font-weight="normal" text-decoration="none" x="400" y="570">UNREGISTERED</text><text fill="#eeeeee" stroke="none" font-family="Arial" font-size="24px" font-style="normal" font-weight="normal" text-decoration="none" x="400" y="600">UNREGISTERED</text><text fill="#eeeeee" stroke="none" font-family="Arial" font-size="24px" font-style="normal" font-weight="normal" text-decoration="none" x="400" y="630">UNREGISTERED</text><text fill="#eeeeee" stroke="none" font-family="Arial" font-size="24px" font-style="normal" font-weight="normal" text-decoration="none" x="600" y="0">UNREGISTERED</text><text fill="#eeeeee" stroke="none" font-family="Arial" font-size="24px" font-style="normal" font-weight="normal" text-decoration="none" x="600" y="30">UNREGISTERED</text><text fill="#eeeeee" stroke="none" font-family="Arial" font-size="24px" font-style="normal" font-weight="normal" text-decoration="none" x="600" y="60">UNREGISTERED</text><text fill="#eeeeee" stroke="none" font-family="Arial" font-size="24px" font-style="normal" font-weight="normal" text-decoration="none" x="600" y="90">UNREGISTERED</text><text fill="#eeeeee" stroke="none" font-family="Arial" font-size="24px" font-style="normal" font-weight="normal" text-decoration="none" x="600" y="120">UNREGISTERED</text><text fill="#eeeeee" stroke="none" font-family="Arial" font-size="24px" font-style="normal" font-weight="normal" text-decoration="none" x="600" y="150">UNREGISTERED</text><text fill="#eeeeee" stroke="none" font-family="Arial" font-size="24px" font-style="normal" font-weight="normal" text-decoration="none" x="600" y="180">UNREGISTERED</text><text fill="#eeeeee" stroke="none" font-family="Arial" font-size="24px" font-style="normal" font-weight="normal" text-decoration="none" x="600" y="210">UNREGISTERED</text><text fill="#eeeeee" stroke="none" font-family="Arial" font-size="24px" font-style="normal" font-weight="normal" text-decoration="none" x="600" y="240">UNREGISTERED</text><text fill="#eeeeee" stroke="none" font-family="Arial" font-size="24px" font-style="normal" font-weight="normal" text-decoration="none" x="600" y="270">UNREGISTERED</text><text fill="#eeeeee" stroke="none" font-family="Arial" font-size="24px" font-style="normal" font-weight="normal" text-decoration="none" x="600" y="300">UNREGISTERED</text><text fill="#eeeeee" stroke="none" font-family="Arial" font-size="24px" font-style="normal" font-weight="normal" text-decoration="none" x="600" y="330">UNREGISTERED</text><text fill="#eeeeee" stroke="none" font-family="Arial" font-size="24px" font-style="normal" font-weight="normal" text-decoration="none" x="600" y="360">UNREGISTERED</text><text fill="#eeeeee" stroke="none" font-family="Arial" font-size="24px" font-style="normal" font-weight="normal" text-decoration="none" x="600" y="390">UNREGISTERED</text><text fill="#eeeeee" stroke="none" font-family="Arial" font-size="24px" font-style="normal" font-weight="normal" text-decoration="none" x="600" y="420">UNREGISTERED</text><text fill="#eeeeee" stroke="none" font-family="Arial" font-size="24px" font-style="normal" font-weight="normal" text-decoration="none" x="600" y="450">UNREGISTERED</text><text fill="#eeeeee" stroke="none" font-family="Arial" font-size="24px" font-style="normal" font-weight="normal" text-decoration="none" x="600" y="480">UNREGISTERED</text><text fill="#eeeeee" stroke="none" font-family="Arial" font-size="24px" font-style="normal" font-weight="normal" text-decoration="none" x="600" y="510">UNREGISTERED</text><text fill="#eeeeee" stroke="none" font-family="Arial" font-size="24px" font-style="normal" font-weight="normal" text-decoration="none" x="600" y="540">UNREGISTERED</text><text fill="#eeeeee" stroke="none" font-family="Arial" font-size="24px" font-style="normal" font-weight="normal" text-decoration="none" x="600" y="570">UNREGISTERED</text><text fill="#eeeeee" stroke="none" font-family="Arial" font-size="24px" font-style="normal" font-weight="normal" text-decoration="none" x="600" y="600">UNREGISTERED</text><text fill="#eeeeee" stroke="none" font-family="Arial" font-size="24px" font-style="normal" font-weight="normal" text-decoration="none" x="600" y="630">UNREGISTERED</text><text fill="#eeeeee" stroke="none" font-family="Arial" font-size="24px" font-style="normal" font-weight="normal" text-decoration="none" x="800" y="0">UNREGISTERED</text><text fill="#eeeeee" stroke="none" font-family="Arial" font-size="24px" font-style="normal" font-weight="normal" text-decoration="none" x="800" y="30">UNREGISTERED</text><text fill="#eeeeee" stroke="none" font-family="Arial" font-size="24px" font-style="normal" font-weight="normal" text-decoration="none" x="800" y="60">UNREGISTERED</text><text fill="#eeeeee" stroke="none" font-family="Arial" font-size="24px" font-style="normal" font-weight="normal" text-decoration="none" x="800" y="90">UNREGISTERED</text><text fill="#eeeeee" stroke="none" font-family="Arial" font-size="24px" font-style="normal" font-weight="normal" text-decoration="none" x="800" y="120">UNREGISTERED</text><text fill="#eeeeee" stroke="none" font-family="Arial" font-size="24px" font-style="normal" font-weight="normal" text-decoration="none" x="800" y="150">UNREGISTERED</text><text fill="#eeeeee" stroke="none" font-family="Arial" font-size="24px" font-style="normal" font-weight="normal" text-decoration="none" x="800" y="180">UNREGISTERED</text><text fill="#eeeeee" stroke="none" font-family="Arial" font-size="24px" font-style="normal" font-weight="normal" text-decoration="none" x="800" y="210">UNREGISTERED</text><text fill="#eeeeee" stroke="none" font-family="Arial" font-size="24px" font-style="normal" font-weight="normal" text-decoration="none" x="800" y="240">UNREGISTERED</text><text fill="#eeeeee" stroke="none" font-family="Arial" font-size="24px" font-style="normal" font-weight="normal" text-decoration="none" x="800" y="270">UNREGISTERED</text><text fill="#eeeeee" stroke="none" font-family="Arial" font-size="24px" font-style="normal" font-weight="normal" text-decoration="none" x="800" y="300">UNREGISTERED</text><text fill="#eeeeee" stroke="none" font-family="Arial" font-size="24px" font-style="normal" font-weight="normal" text-decoration="none" x="800" y="330">UNREGISTERED</text><text fill="#eeeeee" stroke="none" font-family="Arial" font-size="24px" font-style="normal" font-weight="normal" text-decoration="none" x="800" y="360">UNREGISTERED</text><text fill="#eeeeee" stroke="none" font-family="Arial" font-size="24px" font-style="normal" font-weight="normal" text-decoration="none" x="800" y="390">UNREGISTERED</text><text fill="#eeeeee" stroke="none" font-family="Arial" font-size="24px" font-style="normal" font-weight="normal" text-decoration="none" x="800" y="420">UNREGISTERED</text><text fill="#eeeeee" stroke="none" font-family="Arial" font-size="24px" font-style="normal" font-weight="normal" text-decoration="none" x="800" y="450">UNREGISTERED</text><text fill="#eeeeee" stroke="none" font-family="Arial" font-size="24px" font-style="normal" font-weight="normal" text-decoration="none" x="800" y="480">UNREGISTERED</text><text fill="#eeeeee" stroke="none" font-family="Arial" font-size="24px" font-style="normal" font-weight="normal" text-decoration="none" x="800" y="510">UNREGISTERED</text><text fill="#eeeeee" stroke="none" font-family="Arial" font-size="24px" font-style="normal" font-weight="normal" text-decoration="none" x="800" y="540">UNREGISTERED</text><text fill="#eeeeee" stroke="none" font-family="Arial" font-size="24px" font-style="normal" font-weight="normal" text-decoration="none" x="800" y="570">UNREGISTERED</text><text fill="#eeeeee" stroke="none" font-family="Arial" font-size="24px" font-style="normal" font-weight="normal" text-decoration="none" x="800" y="600">UNREGISTERED</text><text fill="#eeeeee" stroke="none" font-family="Arial" font-size="24px" font-style="normal" font-weight="normal" text-decoration="none" x="800" y="630">UNREGISTERED</text><g transform="translate(-30,-70) scale(1,1)"><rect fill="#C0C0C0" stroke="none" x="183" y="87" width="268.8" height="15" opacity="0.2"/></g><g transform="translate(-30,-70) scale(1,1)"><rect fill="#C0C0C0" stroke="none" x="183" y="101" width="672" height="618" opacity="0.2"/></g><g transform="translate(-30,-70) scale(1,1)"><rect fill="#ffffff" stroke="none" x="176" y="95" width="672" height="617"/></g><g transform="translate(-30,-70) scale(1,1)"><path fill="none" stroke="#000000" d="M 176 95 L 848 95 L 848 712 L 176 712 L 176 95 Z Z" stroke-miterlimit="10"/></g><g transform="translate(-30,-70) scale(1,1)"><rect fill="#ffffff" stroke="none" x="176" y="80" width="268.8" height="15"/></g><g transform="translate(-30,-70) scale(1,1)"><path fill="none" stroke="#000000" d="M 176 80 L 444.8 80 L 444.8 95 L 176 95 L 176 80 Z Z" stroke-miterlimit="10"/></g><g transform="translate(-30,-70) scale(1,1)"><rect fill="#ffffff" stroke="none" x="176" y="94" width="672" height="618"/></g><g transform="translate(-30,-70) scale(1,1)"><path fill="none" stroke="#000000" d="M 176 94 L 848 94 L 848 712 L 176 712 L 176 94 Z Z" stroke-miterlimit="10"/></g><g transform="translate(-30,-70) scale(1,1)"><g><path fill="none" stroke="none"/><text fill="#000000" stroke="none" font-family="Arial" font-size="13px" font-style="normal" font-weight="bold" text-decoration="none" x="419.517822265625" y="114.5">Gerenciar Carrinho de Compras</text></g></g><g transform="translate(-30,-70) scale(1,1)"><path fill="#ffffff" stroke="none" d="M 57.49162571022727 265.68 C 57.49162571022727 260.886167936 61.377468035172726 257 66.1708984375 257 C 70.96432883982727 257 74.85017116477273 260.886167936 74.85017116477273 265.68 C 74.85017116477273 270.473832064 70.96432883982727 274.36 66.1708984375 274.36 C 61.377468035172726 274.36 57.49162571022727 270.473832064 57.49162571022727 265.68 Z"/></g><g transform="translate(-30,-70) scale(1,1)"><path fill="none" stroke="#000000" d="M 57.49162571022727 265.68 C 57.49162571022727 260.886167936 61.377468035172726 257 66.1708984375 257 C 70.96432883982727 257 74.85017116477273 260.886167936 74.85017116477273 265.68 C 74.85017116477273 270.473832064 70.96432883982727 274.36 66.1708984375 274.36 C 61.377468035172726 274.36 57.49162571022727 270.473832064 57.49162571022727 265.68 Z" stroke-miterlimit="10"/></g><g transform="translate(-30,-70) scale(1,1)"><path fill="none" stroke="#000000" d="M 66.1708984375 274.36 L 66.1708984375 291.64" stroke-miterlimit="10"/></g><g transform="translate(-30,-70) scale(1,1)"><path fill="none" stroke="#000000" d="M 56.98108025568182 280.84 L 75.36071661931818 280.84" stroke-miterlimit="10"/></g><g transform="translate(-30,-70) scale(1,1)"><path fill="none" stroke="#000000" d="M 66.1708984375 291.64 L 53.407262073863635 309" stroke-miterlimit="10"/></g><g transform="translate(-30,-70) scale(1,1)"><path fill="none" stroke="#000000" d="M 66.1708984375 291.64 L 78.93453480113637 309" stroke-miterlimit="10"/></g><g transform="translate(-30,-70) scale(1,1)"><g><path fill="none" stroke="none"/><text fill="#000000" stroke="none" font-family="Arial" font-size="13px" font-style="normal" font-weight="bold" text-decoration="none" x="45.937744140625" y="329.5">Cliente</text></g></g><g transform="translate(-30,-70) scale(1,1)"><path fill="#C0C0C0" stroke="none" d="M 471 479 C 471 461.3268864 507.2649312 447 552 447 C 596.7350688 447 633 461.3268864 633 479 C 633 496.6731136 596.7350688 511 552 511 C 507.2649312 511 471 496.6731136 471 479 Z" opacity="0.2"/></g><g transform="translate(-30,-70) scale(1,1)"><path fill="#ffffff" stroke="none" d="M 464 472 C 464 454.3268864 500.2649312 440 545 440 C 589.7350688 440 626 454.3268864 626 472 C 626 489.6731136 589.7350688 504 545 504 C 500.2649312 504 464 489.6731136 464 472 Z"/></g><g transform="translate(-30,-70) scale(1,1)"><path fill="none" stroke="#000000" d="M 464 472 C 464 454.3268864 500.2649312 440 545 440 C 589.7350688 440 626 454.3268864 626 472 C 626 489.6731136 589.7350688 504 545 504 C 500.2649312 504 464 489.6731136 464 472 Z" stroke-miterlimit="10"/></g><g transform="translate(-30,-70) scale(1,1)"><g><path fill="none" stroke="none"/><text fill="#000000" stroke="none" font-family="Arial" font-size="13px" font-style="normal" font-weight="bold" text-decoration="none" x="495.513671875" y="479">Finalizar Compra</text></g></g><g transform="translate(-30,-70) scale(1,1)"><path fill="#C0C0C0" stroke="none" d="M 439 207 C 439 189.3268864 494.7405424 175 563.5 175 C 632.2594576 175 688 189.3268864 688 207 C 688 224.6731136 632.2594576 239 563.5 239 C 494.7405424 239 439 224.6731136 439 207 Z" opacity="0.2"/></g><g transform="translate(-30,-70) scale(1,1)"><path fill="#ffffff" stroke="none" d="M 432 200 C 432 182.3268864 487.7405424 168 556.5 168 C 625.2594576 168 681 182.3268864 681 200 C 681 217.6731136 625.2594576 232 556.5 232 C 487.7405424 232 432 217.6731136 432 200 Z"/></g><g transform="translate(-30,-70) scale(1,1)"><path fill="none" stroke="#000000" d="M 432 200 C 432 182.3268864 487.7405424 168 556.5 168 C 625.2594576 168 681 182.3268864 681 200 C 681 217.6731136 625.2594576 232 556.5 232 C 487.7405424 232 432 217.6731136 432 200 Z" stroke-miterlimit="10"/></g><g transform="translate(-30,-70) scale(1,1)"><g><path fill="none" stroke="none"/><text fill="#000000" stroke="none" font-family="Arial" font-size="13px" font-style="normal" font-weight="bold" text-decoration="none" x="479.185546875" y="207">Adicionar Item ao Carrinho</text></g></g><g transform="translate(-30,-70) scale(1,1)"><path fill="#C0C0C0" stroke="none" d="M 239 371 C 239 359.954304 266.5344848 351 300.5 351 C 334.4655152 351 362 359.954304 362 371 C 362 382.045696 334.4655152 391 300.5 391 C 266.5344848 391 239 382.045696 239 371 Z" opacity="0.2"/></g><g transform="translate(-30,-70) scale(1,1)"><path fill="#ffffff" stroke="none" d="M 232 364 C 232 352.954304 259.5344848 344 293.5 344 C 327.4655152 344 355 352.954304 355 364 C 355 375.045696 327.4655152 384 293.5 384 C 259.5344848 384 232 375.045696 232 364 Z"/></g><g transform="translate(-30,-70) scale(1,1)"><path fill="none" stroke="#000000" d="M 232 364 C 232 352.954304 259.5344848 344 293.5 344 C 327.4655152 344 355 352.954304 355 364 C 355 375.045696 327.4655152 384 293.5 384 C 259.5344848 384 232 375.045696 232 364 Z" stroke-miterlimit="10"/></g><g transform="translate(-30,-70) scale(1,1)"><g><path fill="none" stroke="none"/><text fill="#000000" stroke="none" font-family="Arial" font-size="13px" font-style="normal" font-weight="bold" text-decoration="none" x="257.010498046875" y="371">Ver Carrinho</text></g></g><g transform="translate(-30,-70) scale(1,1)"><path fill="none" stroke="#000000" d="M 93 303 L 231 345" stroke-miterlimit="10"/></g><g transform="translate(-30,-70) scale(1,1)"><path fill="none" stroke="#000000" d="M 93 290 L 431 224" stroke-miterlimit="10"/></g><g transform="translate(-30,-70) scale(1,1)"><path fill="#C0C0C0" stroke="none" d="M 199 159 C 199 145.7451648 238.3989376 135 287 135 C 335.6010624 135 375 145.7451648 375 159 C 375 172.2548352 335.6010624 183 287 183 C 238.3989376 183 199 172.2548352 199 159 Z" opacity="0.2"/></g><g transform="translate(-30,-70) scale(1,1)"><path fill="#ffffff" stroke="none" d="M 192 152 C 192 138.7451648 231.3989376 128 280 128 C 328.6010624 128 368 138.7451648 368 152 C 368 165.2548352 328.6010624 176 280 176 C 231.3989376 176 192 165.2548352 192 152 Z"/></g><g transform="translate(-30,-70) scale(1,1)"><path fill="none" stroke="#000000" d="M 192 152 C 192 138.7451648 231.3989376 128 280 128 C 328.6010624 128 368 138.7451648 368 152 C 368 165.2548352 328.6010624 176 280 176 C 231.3989376 176 192 165.2548352 192 152 Z" stroke-miterlimit="10"/></g><g transform="translate(-30,-70) scale(1,1)"><g><path fill="none" stroke="none"/><text fill="#000000" stroke="none" font-family="Arial" font-size="13px" font-style="normal" font-weight="bold" text-decoration="none" x="226.524169921875" y="159">Pesquisar Produto</text></g></g><g transform="translate(-30,-70) scale(1,1)"><path fill="none" stroke="#000000" d="M 93 277 L 243 177" stroke-miterlimit="10"/></g><g transform="translate(-30,-70) scale(1,1)"><path fill="none" stroke="#000000" d="M 431 178 L 369 167" stroke-miterlimit="10" stroke-dasharray="3"/></g><g transform="translate(-30,-70) scale(1,1)"><path fill="none" stroke="#000000" d="M 379.741771921947 164.63054099489543 L 369 167 L 378.27104029822095 172.920119237715" stroke-miterlimit="10"/></g><g transform="translate(-30,-70) scale(1,1)"><g><path fill="none" stroke="none"/><text fill="#000000" stroke="none" font-family="Arial" font-size="13px" font-style="normal" font-weight="normal" text-decoration="none" x="368.5" y="207.5">«extend»</text></g></g><g transform="translate(-30,-70) scale(1,1)"><path fill="none" stroke="#000000" d="M 468 439 L 342 385" stroke-miterlimit="10" stroke-dasharray="3"/></g><g transform="translate(-30,-70) scale(1,1)"><path fill="none" stroke="#000000" d="M 352.99918236888107 385.13411642738856 L 342 385 L 349.68276180526834 392.8724310758183" stroke-miterlimit="10"/></g><g transform="translate(-30,-70) scale(1,1)"><g><path fill="none" stroke="none"/><text fill="#000000" stroke="none" font-family="Arial" font-size="13px" font-style="normal" font-weight="normal" text-decoration="none" x="366.5" y="445.5">«extend»</text></g></g><g transform="translate(-30,-70) scale(1,1)"><path fill="none" stroke="#000000" d="M 327 343 L 503 233" stroke-miterlimit="10" stroke-dasharray="3"/></g><g transform="translate(-30,-70) scale(1,1)"><path fill="none" stroke="#000000" d="M 496.61310890519263 241.95587081991863 L 503 233 L 492.15102900796654 234.81654298435691" stroke-miterlimit="10"/></g><g transform="translate(-30,-70) scale(1,1)"><g><path fill="none" stroke="none"/><text fill="#000000" stroke="none" font-family="Arial" font-size="13px" font-style="normal" font-weight="normal" text-decoration="none" x="372.5" y="268.5">«extend»</text></g></g><g transform="translate(-30,-70) scale(1,1)"><path fill="#C0C0C0" stroke="none" d="M 703 479 C 703 465.7451648 733.220776 455 770.5 455 C 807.779224 455 838 465.7451648 838 479 C 838 492.2548352 807.779224 503 770.5 503 C 733.220776 503 703 492.2548352 703 479 Z" opacity="0.2"/></g><g transform="translate(-30,-70) scale(1,1)"><path fill="#ffffff" stroke="none" d="M 696 472 C 696 458.7451648 726.220776 448 763.5 448 C 800.779224 448 831 458.7451648 831 472 C 831 485.2548352 800.779224 496 763.5 496 C 726.220776 496 696 485.2548352 696 472 Z"/></g><g transform="translate(-30,-70) scale(1,1)"><path fill="none" stroke="#000000" d="M 696 472 C 696 458.7451648 726.220776 448 763.5 448 C 800.779224 448 831 458.7451648 831 472 C 831 485.2548352 800.779224 496 763.5 496 C 726.220776 496 696 485.2548352 696 472 Z" stroke-miterlimit="10"/></g><g transform="translate(-30,-70) scale(1,1)"><g><path fill="none" stroke="none"/><text fill="#000000" stroke="none" font-family="Arial" font-size="13px" font-style="normal" font-weight="bold" text-decoration="none" x="722.681396484375" y="479">Calcular Frete</text></g></g><g transform="translate(-30,-70) scale(1,1)"><path fill="none" stroke="#000000" d="M 627 472 L 695 472" stroke-miterlimit="10" stroke-dasharray="3"/></g><g transform="translate(-30,-70) scale(1,1)"><path fill="none" stroke="#000000" d="M 684.8373251423759 476.209517756016 L 695 472 L 684.8373251423758 467.790482243984" stroke-miterlimit="10"/></g><g transform="translate(-30,-70) scale(1,1)"><g><path fill="none" stroke="none"/><text fill="#000000" stroke="none" font-family="Arial" font-size="13px" font-style="normal" font-weight="normal" text-decoration="none" x="633.5" y="448.5">«include»</text></g></g><g transform="translate(-30,-70) scale(1,1)"><path fill="#ffffff" stroke="none" d="M 927.5770749289773 441.68 C 927.5770749289773 436.886167936 931.4629172539227 433 936.25634765625 433 C 941.0497780585773 433 944.9356203835227 436.886167936 944.9356203835227 441.68 C 944.9356203835227 446.473832064 941.0497780585773 450.36 936.25634765625 450.36 C 931.4629172539227 450.36 927.5770749289773 446.473832064 927.5770749289773 441.68 Z"/></g><g transform="translate(-30,-70) scale(1,1)"><path fill="none" stroke="#000000" d="M 927.5770749289773 441.68 C 927.5770749289773 436.886167936 931.4629172539227 433 936.25634765625 433 C 941.0497780585773 433 944.9356203835227 436.886167936 944.9356203835227 441.68 C 944.9356203835227 446.473832064 941.0497780585773 450.36 936.25634765625 450.36 C 931.4629172539227 450.36 927.5770749289773 446.473832064 927.5770749289773 441.68 Z" stroke-miterlimit="10"/></g><g transform="translate(-30,-70) scale(1,1)"><path fill="none" stroke="#000000" d="M 936.25634765625 450.36 L 936.25634765625 467.64" stroke-miterlimit="10"/></g><g transform="translate(-30,-70) scale(1,1)"><path fill="none" stroke="#000000" d="M 927.0665294744318 456.84 L 945.4461658380682 456.84" stroke-miterlimit="10"/></g><g transform="translate(-30,-70) scale(1,1)"><path fill="none" stroke="#000000" d="M 936.25634765625 467.64 L 923.4927112926136 485" stroke-miterlimit="10"/></g><g transform="translate(-30,-70) scale(1,1)"><path fill="none" stroke="#000000" d="M 936.25634765625 467.64 L 949.0199840198864 485" stroke-miterlimit="10"/></g><g transform="translate(-30,-70) scale(1,1)"><g><path fill="none" stroke="none"/><text fill="#000000" stroke="none" font-family="Arial" font-size="13px" font-style="normal" font-weight="bold" text-decoration="none" x="902.661376953125" y="505.5">API Correio</text></g></g><g transform="translate(-30,-70) scale(1,1)"><path fill="none" stroke="#000000" d="M 895 471 L 832 472" stroke-miterlimit="10"/></g><g transform="translate(-30,-70) scale(1,1)"><path fill="#ffffff" stroke="none" d="M 947.1329831321023 625.6800000000001 C 947.1329831321023 620.8861679360001 951.0188254570477 617 955.812255859375 617 C 960.6056862617023 617 964.4915285866477 620.8861679360001 964.4915285866477 625.6800000000001 C 964.4915285866477 630.473832064 960.6056862617023 634.36 955.812255859375 634.36 C 951.0188254570477 634.36 947.1329831321023 630.473832064 947.1329831321023 625.6800000000001 Z"/></g><g transform="translate(-30,-70) scale(1,1)"><path fill="none" stroke="#000000" d="M 947.1329831321023 625.6800000000001 C 947.1329831321023 620.8861679360001 951.0188254570477 617 955.812255859375 617 C 960.6056862617023 617 964.4915285866477 620.8861679360001 964.4915285866477 625.6800000000001 C 964.4915285866477 630.473832064 960.6056862617023 634.36 955.812255859375 634.36 C 951.0188254570477 634.36 947.1329831321023 630.473832064 947.1329831321023 625.6800000000001 Z" stroke-miterlimit="10"/></g><g transform="translate(-30,-70) scale(1,1)"><path fill="none" stroke="#000000" d="M 955.812255859375 634.36 L 955.812255859375 651.64" stroke-miterlimit="10"/></g><g transform="translate(-30,-70) scale(1,1)"><path fill="none" stroke="#000000" d="M 946.6224376775568 640.84 L 965.0020740411932 640.84" stroke-miterlimit="10"/></g><g transform="translate(-30,-70) scale(1,1)"><path fill="none" stroke="#000000" d="M 955.812255859375 651.64 L 943.0486194957386 669" stroke-miterlimit="10"/></g><g transform="translate(-30,-70) scale(1,1)"><path fill="none" stroke="#000000" d="M 955.812255859375 651.64 L 968.5758922230114 669" stroke-miterlimit="10"/></g><g transform="translate(-30,-70) scale(1,1)"><g><path fill="none" stroke="none"/><text fill="#000000" stroke="none" font-family="Arial" font-size="13px" font-style="normal" font-weight="bold" text-decoration="none" x="911.004150390625" y="689.5">API PagSeguro</text></g></g><g transform="translate(-30,-70) scale(1,1)"><path fill="none" stroke="#000000" d="M 903 654 L 820 653" stroke-miterlimit="10"/></g><g transform="translate(-30,-70) scale(1,1)"><path fill="#C0C0C0" stroke="none" d="M 351 643 C 351 631.954304 387.936504 623 433.5 623 C 479.063496 623 516 631.954304 516 643 C 516 654.045696 479.063496 663 433.5 663 C 387.936504 663 351 654.045696 351 643 Z" opacity="0.2"/></g><g transform="translate(-30,-70) scale(1,1)"><path fill="#ffffff" stroke="none" d="M 344 636 C 344 624.954304 380.936504 616 426.5 616 C 472.063496 616 509 624.954304 509 636 C 509 647.045696 472.063496 656 426.5 656 C 380.936504 656 344 647.045696 344 636 Z"/></g><g transform="translate(-30,-70) scale(1,1)"><path fill="none" stroke="#000000" d="M 344 636 C 344 624.954304 380.936504 616 426.5 616 C 472.063496 616 509 624.954304 509 636 C 509 647.045696 472.063496 656 426.5 656 C 380.936504 656 344 647.045696 344 636 Z" stroke-miterlimit="10"/></g><g transform="translate(-30,-70) scale(1,1)"><g><path fill="none" stroke="none"/><text fill="#000000" stroke="none" font-family="Arial" font-size="13px" font-style="normal" font-weight="bold" text-decoration="none" x="375.563232421875" y="643">Cancelar Compra</text></g></g><g transform="translate(-30,-70) scale(1,1)"><path fill="none" stroke="#000000" d="M 441 615 L 521 505" stroke-miterlimit="10" stroke-dasharray="3"/></g><g transform="translate(-30,-70) scale(1,1)"><path fill="none" stroke="#000000" d="M 518.4269911828768 515.6948410753506 L 521 505 L 511.6182133692666 510.74300266545225" stroke-miterlimit="10"/></g><g transform="translate(-30,-70) scale(1,1)"><g><path fill="none" stroke="none"/><text fill="#000000" stroke="none" font-family="Arial" font-size="13px" font-style="normal" font-weight="normal" text-decoration="none" x="423.5" y="566.5">«extend»</text></g></g><g transform="translate(-30,-70) scale(1,1)"><path fill="none" stroke="#000000" d="M 704 631 L 578 505" stroke-miterlimit="10" stroke-dasharray="3"/></g><g transform="translate(-30,-70) scale(1,1)"><path fill="none" stroke="#000000" d="M 588.1626748576241 509.209517756016 L 578 505 L 582.209517756016 515.1626748576241" stroke-miterlimit="10"/></g><g transform="translate(-30,-70) scale(1,1)"><g><path fill="none" stroke="none"/><text fill="#000000" stroke="none" font-family="Arial" font-size="13px" font-style="normal" font-weight="normal" text-decoration="none" x="587.5" y="574.5">«extend»</text></g></g><g transform="translate(-30,-70) scale(1,1)"><path fill="#C0C0C0" stroke="none" d="M 191 507 C 191 495.954304 244.725824 487 311 487 C 377.274176 487 431 495.954304 431 507 C 431 518.045696 377.274176 527 311 527 C 244.725824 527 191 518.045696 191 507 Z" opacity="0.2"/></g><g transform="translate(-30,-70) scale(1,1)"><path fill="#ffffff" stroke="none" d="M 184 500 C 184 488.954304 237.725824 480 304 480 C 370.274176 480 424 488.954304 424 500 C 424 511.045696 370.274176 520 304 520 C 237.725824 520 184 511.045696 184 500 Z"/></g><g transform="translate(-30,-70) scale(1,1)"><path fill="none" stroke="#000000" d="M 184 500 C 184 488.954304 237.725824 480 304 480 C 370.274176 480 424 488.954304 424 500 C 424 511.045696 370.274176 520 304 520 C 237.725824 520 184 511.045696 184 500 Z" stroke-miterlimit="10"/></g><g transform="translate(-30,-70) scale(1,1)"><g><path fill="none" stroke="none"/><text fill="#000000" stroke="none" font-family="Arial" font-size="13px" font-style="normal" font-weight="bold" text-decoration="none" x="228.859619140625" y="507">Remover Item do carrinho</text></g></g><g transform="translate(-30,-70) scale(1,1)"><path fill="none" stroke="#000000" d="M 93 319 L 280 479" stroke-miterlimit="10"/></g><g transform="translate(-30,-70) scale(1,1)"><path fill="#C0C0C0" stroke="none" d="M 407 347 C 407 335.954304 443.936504 327 489.5 327 C 535.063496 327 572 335.954304 572 347 C 572 358.045696 535.063496 367 489.5 367 C 443.936504 367 407 358.045696 407 347 Z" opacity="0.2"/></g><g transform="translate(-30,-70) scale(1,1)"><path fill="#ffffff" stroke="none" d="M 400 340 C 400 328.954304 436.936504 320 482.5 320 C 528.063496 320 565 328.954304 565 340 C 565 351.045696 528.063496 360 482.5 360 C 436.936504 360 400 351.045696 400 340 Z"/></g><g transform="translate(-30,-70) scale(1,1)"><path fill="none" stroke="#000000" d="M 400 340 C 400 328.954304 436.936504 320 482.5 320 C 528.063496 320 565 328.954304 565 340 C 565 351.045696 528.063496 360 482.5 360 C 436.936504 360 400 351.045696 400 340 Z" stroke-miterlimit="10"/></g><g transform="translate(-30,-70) scale(1,1)"><g><path fill="none" stroke="none"/><text fill="#000000" stroke="none" font-family="Arial" font-size="13px" font-style="normal" font-weight="bold" text-decoration="none" x="431.921875" y="347">Cadastrar Cliente</text></g></g><g transform="translate(-30,-70) scale(1,1)"><path fill="#C0C0C0" stroke="none" d="M 639 659 C 639 647.954304 680.8613712 639 732.5 639 C 784.1386288 639 826 647.954304 826 659 C 826 670.045696 784.1386288 679 732.5 679 C 680.8613712 679 639 670.045696 639 659 Z" opacity="0.2"/></g><g transform="translate(-30,-70) scale(1,1)"><path fill="#ffffff" stroke="none" d="M 632 652 C 632 640.954304 673.8613712 632 725.5 632 C 777.1386288 632 819 640.954304 819 652 C 819 663.045696 777.1386288 672 725.5 672 C 673.8613712 672 632 663.045696 632 652 Z"/></g><g transform="translate(-30,-70) scale(1,1)"><path fill="none" stroke="#000000" d="M 632 652 C 632 640.954304 673.8613712 632 725.5 632 C 777.1386288 632 819 640.954304 819 652 C 819 663.045696 777.1386288 672 725.5 672 C 673.8613712 672 632 663.045696 632 652 Z" stroke-miterlimit="10"/></g><g transform="translate(-30,-70) scale(1,1)"><g><path fill="none" stroke="none"/><text fill="#000000" stroke="none" font-family="Arial" font-size="13px" font-style="normal" font-weight="bold" text-decoration="none" x="666.6064453125" y="659">Realizar Pagamento</text></g></g><g transform="translate(-30,-70) scale(1,1)"><path fill="#C0C0C0" stroke="none" d="M 607 347 C 607 335.954304 636.101488 327 672 327 C 707.898512 327 737 335.954304 737 347 C 737 358.045696 707.898512 367 672 367 C 636.101488 367 607 358.045696 607 347 Z" opacity="0.2"/></g><g transform="translate(-30,-70) scale(1,1)"><path fill="#ffffff" stroke="none" d="M 600 340 C 600 328.954304 629.101488 320 665 320 C 700.898512 320 730 328.954304 730 340 C 730 351.045696 700.898512 360 665 360 C 629.101488 360 600 351.045696 600 340 Z"/></g><g transform="translate(-30,-70) scale(1,1)"><path fill="none" stroke="#000000" d="M 600 340 C 600 328.954304 629.101488 320 665 320 C 700.898512 320 730 328.954304 730 340 C 730 351.045696 700.898512 360 665 360 C 629.101488 360 600 351.045696 600 340 Z" stroke-miterlimit="10"/></g><g transform="translate(-30,-70) scale(1,1)"><g><path fill="none" stroke="none"/><text fill="#000000" stroke="none" font-family="Arial" font-size="13px" font-style="normal" font-weight="bold" text-decoration="none" x="626.33642578125" y="347">Logar Cliente</text></g></g><g transform="translate(-30,-70) scale(1,1)"><path fill="none" stroke="#000000" d="M 492 361 L 529 439" stroke-miterlimit="10" stroke-dasharray="3"/></g><g transform="translate(-30,-70) scale(1,1)"><path fill="none" stroke="#000000" d="M 520.8411310119977 431.6221373802018 L 529 439 L 528.447745100893 428.01387172264896" stroke-miterlimit="10"/></g><g transform="translate(-30,-70) scale(1,1)"><g><path fill="none" stroke="none"/><text fill="#000000" stroke="none" font-family="Arial" font-size="13px" font-style="normal" font-weight="normal" text-decoration="none" x="509.5" y="392.5">«extend»</text></g></g><g transform="translate(-30,-70) scale(1,1)"><path fill="none" stroke="#000000" d="M 646 361 L 575 439" stroke-miterlimit="10" stroke-dasharray="3"/></g><g transform="translate(-30,-70) scale(1,1)"><path fill="none" stroke="#000000" d="M 578.7279649126407 428.6509769731573 L 575 439 L 584.9539336306899 434.31820490881756" stroke-miterlimit="10"/></g><g transform="translate(-30,-70) scale(1,1)"><g><path fill="none" stroke="none"/><text fill="#000000" stroke="none" font-family="Arial" font-size="13px" font-style="normal" font-weight="normal" text-decoration="none" x="605.5" y="426.5">«extend»</text></g></g><g transform="translate(-30,-70) scale(1,1)"><path fill="none" stroke="#000000" d="M 295 385 L 302 479" stroke-miterlimit="10" stroke-dasharray="3"/></g><g transform="translate(-30,-70) scale(1,1)"><path fill="none" stroke="#000000" d="M 297.0474006315175 469.1779961568269 L 302 479 L 305.4431889243939 468.5527778796978" stroke-miterlimit="10"/></g><g transform="translate(-30,-70) scale(1,1)"><g><path fill="none" stroke="none"/><text fill="#000000" stroke="none" font-family="Arial" font-size="13px" font-style="normal" font-weight="normal" text-decoration="none" x="300.5" y="435.5">«extend»</text></g></g></g></svg>