<svg version="1.1" xmlns="http://www.w3.org/2000/svg" xmlns:xlink="http://www.w3.org/1999/xlink" width="1164" height="724"><defs/><g><text fill="#eeeeee" stroke="none" font-family="Arial" font-size="24px" font-style="normal" font-weight="normal" text-decoration="none" x="0" y="0">UNREGISTERED</text><text fill="#eeeeee" stroke="none" font-family="Arial" font-size="24px" font-style="normal" font-weight="normal" text-decoration="none" x="0" y="30">UNREGISTERED</text><text fill="#eeeeee" stroke="none" font-family="Arial" font-size="24px" font-style="normal" font-weight="normal" text-decoration="none" x="0" y="60">UNREGISTERED</text><text fill="#eeeeee" stroke="none" font-family="Arial" font-size="24px" font-style="normal" font-weight="normal" text-decoration="none" x="0" y="90">UNREGISTERED</text><text fill="#eeeeee" stroke="none" font-family="Arial" font-size="24px" font-style="normal" font-weight="normal" text-decoration="none" x="0" y="120">UNREGISTERED</text><text fill="#eeeeee" stroke="none" font-family="Arial" font-size="24px" font-style="normal" font-weight="normal" text-decoration="none" x="0" y="150">UNREGISTERED</text><text fill="#eeeeee" stroke="none" font-family="Arial" font-size="24px" font-style="normal" font-weight="normal" text-decoration="none" x="0" y="180">UNREGISTERED</text><text fill="#eeeeee" stroke="none" font-family="Arial" font-size="24px" font-style="normal" font-weight="normal" text-decoration="none" x="0" y="210">UNREGISTERED</text><text fill="#eeeeee" stroke="none" font-family="Arial" font-size="24px" font-style="normal" font-weight="normal" text-decoration="none" x="0" y="240">UNREGISTERED</text><text fill="#eeeeee" stroke="none" font-family="Arial" font-size="24px" font-style="normal" font-weight="normal" text-decoration="none" x="0" y="270">UNREGISTERED</text><text fill="#eeeeee" stroke="none" font-family="Arial" font-size="24px" font-style="normal" font-weight="normal" text-decoration="none" x="0" y="300">UNREGISTERED</text><text fill="#eeeeee" stroke="none" font-family="Arial" font-size="24px" font-style="normal" font-weight="normal" text-decoration="none" x="0" y="330">UNREGISTERED</text><text fill="#eeeeee" stroke="none" font-family="Arial" font-size="24px" font-style="normal" font-weight="normal" text-decoration="none" x="0" y="360">UNREGISTERED</text><text fill="#eeeeee" stroke="none" font-family="Arial" font-size="24px" font-style="normal" font-weight="normal" text-decoration="none" x="0" y="390">UNREGISTERED</text><text fill="#eeeeee" stroke="none" font-family="Arial" font-size="24px" font-style="normal" font-weight="normal" text-decoration="none" x="0" y="420">UNREGISTERED</text><text fill="#eeeeee" stroke="none" font-family="Arial" font-size="24px" font-style="normal" font-weight="normal" text-decoration="none" x="0" y="450">UNREGISTERED</text><text fill="#eeeeee" stroke="none" font-family="Arial" font-size="24px" font-style="normal" font-weight="normal" text-decoration="none" x="0" y="480">UNREGISTERED</text><text fill="#eeeeee" stroke="none" font-family="Arial" font-size="24px" font-style="normal" font-weight="normal" text-decoration="none" x="0" y="510">UNREGISTERED</text><text fill="#eeeeee" stroke="none" font-family="Arial" font-size="24px" font-style="normal" font-weight="normal" text-decoration="none" x="0" y="540">UNREGISTERED</text><text fill="#eeeeee" stroke="none" font-family="Arial" font-size="24px" font-style="normal" font-weight="normal" text-decoration="none" x="0" y="570">UNREGISTERED</text><text fill="#eeeeee" stroke="none" font-family="Arial" font-size="24px" font-style="normal" font-weight="normal" text-decoration="none" x="0" y="600">UNREGISTERED</text><text fill="#eeeeee" stroke="none" font-family="Arial" font-size="24px" font-style="normal" font-weight="normal" text-decoration="none" x="0" y="630">UNREGISTERED</text><text fill="#eeeeee" stroke="none" font-family="Arial" font-size="24px" font-style="normal" font-weight="normal" text-decoration="none" x="0" y="660">UNREGISTERED</text><text fill="#eeeeee" stroke="none" font-family="Arial" font-size="24px" font-style="normal" font-weight="normal" text-decoration="none" x="0" y="690">UNREGISTERED</text><text fill="#eeeeee" stroke="none" font-family="Arial" font-size="24px" font-style="normal" font-weight="normal" text-decoration="none" x="0" y="720">UNREGISTERED</text><text fill="#eeeeee" stroke="none" font-family="Arial" font-size="24px" font-style="normal" font-weight="normal" text-decoration="none" x="200" y="0">UNREGISTERED</text><text fill="#eeeeee" stroke="none" font-family="Arial" font-size="24px" font-style="normal" font-weight="normal" text-decoration="none" x="200" y="30">UNREGISTERED</text><text fill="#eeeeee" stroke="none" font-family="Arial" font-size="24px" font-style="normal" font-weight="normal" text-decoration="none" x="200" y="60">UNREGISTERED</text><text fill="#eeeeee" stroke="none" font-family="Arial" font-size="24px" font-style="normal" font-weight="normal" text-decoration="none" x="200" y="90">UNREGISTERED</text><text fill="#eeeeee" stroke="none" font-family="Arial" font-size="24px" font-style="normal" font-weight="normal" text-decoration="none" x="200" y="120">UNREGISTERED</text><text fill="#eeeeee" stroke="none" font-family="Arial" font-size="24px" font-style="normal" font-weight="normal" text-decoration="none" x="200" y="150">UNREGISTERED</text><text fill="#eeeeee" stroke="none" font-family="Arial" font-size="24px" font-style="normal" font-weight="normal" text-decoration="none" x="200" y="180">UNREGISTERED</text><text fill="#eeeeee" stroke="none" font-family="Arial" font-size="24px" font-style="normal" font-weight="normal" text-decoration="none" x="200" y="210">UNREGISTERED</text><text fill="#eeeeee" stroke="none" font-family="Arial" font-size="24px" font-style="normal" font-weight="normal" text-decoration="none" x="200" y="240">UNREGISTERED</text><text fill="#eeeeee" stroke="none" font-family="Arial" font-size="24px" font-style="normal" font-weight="normal" text-decoration="none" x="200" y="270">UNREGISTERED</text><text fill="#eeeeee" stroke="none" font-family="Arial" font-size="24px" font-style="normal" font-weight="normal" text-decoration="none" x="200" y="300">UNREGISTERED</text><text fill="#eeeeee" stroke="none" font-family="Arial" font-size="24px" font-style="normal" font-weight="normal" text-decoration="none" x="200" y="330">UNREGISTERED</text><text fill="#eeeeee" stroke="none" font-family="Arial" font-size="24px" font-style="normal" font-weight="normal" text-decoration="none" x="200" y="360">UNREGISTERED</text><text fill="#eeeeee" stroke="none" font-family="Arial" font-size="24px" font-style="normal" font-weight="normal" text-decoration="none" x="200" y="390">UNREGISTERED</text><text fill="#eeeeee" stroke="none" font-family="Arial" font-size="24px" font-style="normal" font-weight="normal" text-decoration="none" x="200" y="420">UNREGISTERED</text><text fill="#eeeeee" stroke="none" font-family="Arial" font-size="24px" font-style="normal" font-weight="normal" text-decoration="none" x="200" y="450">UNREGISTERED</text><text fill="#eeeeee" stroke="none" font-family="Arial" font-size="24px" font-style="normal" font-weight="normal" text-decoration="none" x="200" y="480">UNREGISTERED</text><text fill="#eeeeee" stroke="none" font-family="Arial" font-size="24px" font-style="normal" font-weight="normal" text-decoration="none" x="200" y="510">UNREGISTERED</text><text fill="#eeeeee" stroke="none" font-family="Arial" font-size="24px" font-style="normal" font-weight="normal" text-decoration="none" x="200" y="540">UNREGISTERED</text><text fill="#eeeeee" stroke="none" font-family="Arial" font-size="24px" font-style="normal" font-weight="normal" text-decoration="none" x="200" y="570">UNREGISTERED</text><text fill="#eeeeee" stroke="none" font-family="Arial" font-size="24px" font-style="normal" font-weight="normal" text-decoration="none" x="200" y="600">UNREGISTERED</text><text fill="#eeeeee" stroke="none" font-family="Arial" font-size="24px" font-style="normal" font-weight="normal" text-decoration="none" x="200" y="630">UNREGISTERED</text><text fill="#eeeeee" stroke="none" font-family="Arial" font-size="24px" font-style="normal" font-weight="normal" text-decoration="none" x="200" y="660">UNREGISTERED</text><text fill="#eeeeee" stroke="none" font-family="Arial" font-size="24px" font-style="normal" font-weight="normal" text-decoration="none" x="200" y="690">UNREGISTERED</text><text fill="#eeeeee" stroke="none" font-family="Arial" font-size="24px" font-style="normal" font-weight="normal" text-decoration="none" x="200" y="720">UNREGISTERED</text><text fill="#eeeeee" stroke="none" font-family="Arial" font-size="24px" font-style="normal" font-weight="normal" text-decoration="none" x="400" y="0">UNREGISTERED</text><text fill="#eeeeee" stroke="none" font-family="Arial" font-size="24px" font-style="normal" font-weight="normal" text-decoration="none" x="400" y="30">UNREGISTERED</text><text fill="#eeeeee" stroke="none" font-family="Arial" font-size="24px" font-style="normal" font-weight="normal" text-decoration="none" x="400" y="60">UNREGISTERED</text><text fill="#eeeeee" stroke="none" font-family="Arial" font-size="24px" font-style="normal" font-weight="normal" text-decoration="none" x="400" y="90">UNREGISTERED</text><text fill="#eeeeee" stroke="none" font-family="Arial" font-size="24px" font-style="normal" font-weight="normal" text-decoration="none" x="400" y="120">UNREGISTERED</text><text fill="#eeeeee" stroke="none" font-family="Arial" font-size="24px" font-style="normal" font-weight="normal" text-decoration="none" x="400" y="150">UNREGISTERED</text><text fill="#eeeeee" stroke="none" font-family="Arial" font-size="24px" font-style="normal" font-weight="normal" text-decoration="none" x="400" y="180">UNREGISTERED</text><text fill="#eeeeee" stroke="none" font-family="Arial" font-size="24px" font-style="normal" font-weight="normal" text-decoration="none" x="400" y="210">UNREGISTERED</text><text fill="#eeeeee" stroke="none" font-family="Arial" font-size="24px" font-style="normal" font-weight="normal" text-decoration="none" x="400" y="240">UNREGISTERED</text><text fill="#eeeeee" stroke="none" font-family="Arial" font-size="24px" font-style="normal" font-weight="normal" text-decoration="none" x="400" y="270">UNREGISTERED</text><text fill="#eeeeee" stroke="none" font-family="Arial" font-size="24px" font-style="normal" font-weight="normal" text-decoration="none" x="400" y="300">UNREGISTERED</text><text fill="#eeeeee" stroke="none" font-family="Arial" font-size="24px" font-style="normal" font-weight="normal" text-decoration="none" x="400" y="330">UNREGISTERED</text><text fill="#eeeeee" stroke="none" font-family="Arial" font-size="24px" font-style="normal" font-weight="normal" text-decoration="none" x="400" y="360">UNREGISTERED</text><text fill="#eeeeee" stroke="none" font-family="Arial" font-size="24px" font-style="normal" font-weight="normal" text-decoration="none" x="400" y="390">UNREGISTERED</text><text fill="#eeeeee" stroke="none" font-family="Arial" font-size="24px" font-style="normal" font-weight="normal" text-decoration="none" x="400" y="420">UNREGISTERED</text><text fill="#eeeeee" stroke="none" font-family="Arial" font-size="24px" font-style="normal" font-weight="normal" text-decoration="none" x="400" y="450">UNREGISTERED</text><text fill="#eeeeee" stroke="none" font-family="Arial" font-size="24px" font-style="normal" font-weight="normal" text-decoration="none" x="400" y="480">UNREGISTERED</text><text fill="#eeeeee" stroke="none" font-family="Arial" font-size="24px" font-style="normal" font-weight="normal" text-decoration="none" x="400" y="510">UNREGISTERED</text><text fill="#eeeeee" stroke="none" font-family="Arial" font-size="24px" font-style="normal" font-weight="normal" text-decoration="none" x="400" y="540">UNREGISTERED</text><text fill="#eeeeee" stroke="none" font-family="Arial" font-size="24px" font-style="normal" font-weight="normal" text-decoration="none" x="400" y="570">UNREGISTERED</text><text fill="#eeeeee" stroke="none" font-family="Arial" font-size="24px" font-style="normal" font-weight="normal" text-decoration="none" x="400" y="600">UNREGISTERED</text><text fill="#eeeeee" stroke="none" font-family="Arial" font-size="24px" font-style="normal" font-weight="normal" text-decoration="none" x="400" y="630">UNREGISTERED</text><text fill="#eeeeee" stroke="none" font-family="Arial" font-size="24px" font-style="normal" font-weight="normal" text-decoration="none" x="400" y="660">UNREGISTERED</text><text fill="#eeeeee" stroke="none" font-family="Arial" font-size="24px" font-style="normal" font-weight="normal" text-decoration="none" x="400" y="690">UNREGISTERED</text><text fill="#eeeeee" stroke="none" font-family="Arial" font-size="24px" font-style="normal" font-weight="normal" text-decoration="none" x="400" y="720">UNREGISTERED</text><text fill="#eeeeee" stroke="none" font-family="Arial" font-size="24px" font-style="normal" font-weight="normal" text-decoration="none" x="600" y="0">UNREGISTERED</text><text fill="#eeeeee" stroke="none" font-family="Arial" font-size="24px" font-style="normal" font-weight="normal" text-decoration="none" x="600" y="30">UNREGISTERED</text><text fill="#eeeeee" stroke="none" font-family="Arial" font-size="24px" font-style="normal" font-weight="normal" text-decoration="none" x="600" y="60">UNREGISTERED</text><text fill="#eeeeee" stroke="none" font-family="Arial" font-size="24px" font-style="normal" font-weight="normal" text-decoration="none" x="600" y="90">UNREGISTERED</text><text fill="#eeeeee" stroke="none" font-family="Arial" font-size="24px" font-style="normal" font-weight="normal" text-decoration="none" x="600" y="120">UNREGISTERED</text><text fill="#eeeeee" stroke="none" font-family="Arial" font-size="24px" font-style="normal" font-weight="normal" text-decoration="none" x="600" y="150">UNREGISTERED</text><text fill="#eeeeee" stroke="none" font-family="Arial" font-size="24px" font-style="normal" font-weight="normal" text-decoration="none" x="600" y="180">UNREGISTERED</text><text fill="#eeeeee" stroke="none" font-family="Arial" font-size="24px" font-style="normal" font-weight="normal" text-decoration="none" x="600" y="210">UNREGISTERED</text><text fill="#eeeeee" stroke="none" font-family="Arial" font-size="24px" font-style="normal" font-weight="normal" text-decoration="none" x="600" y="240">UNREGISTERED</text><text fill="#eeeeee" stroke="none" font-family="Arial" font-size="24px" font-style="normal" font-weight="normal" text-decoration="none" x="600" y="270">UNREGISTERED</text><text fill="#eeeeee" stroke="none" font-family="Arial" font-size="24px" font-style="normal" font-weight="normal" text-decoration="none" x="600" y="300">UNREGISTERED</text><text fill="#eeeeee" stroke="none" font-family="Arial" font-size="24px" font-style="normal" font-weight="normal" text-decoration="none" x="600" y="330">UNREGISTERED</text><text fill="#eeeeee" stroke="none" font-family="Arial" font-size="24px" font-style="normal" font-weight="normal" text-decoration="none" x="600" y="360">UNREGISTERED</text><text fill="#eeeeee" stroke="none" font-family="Arial" font-size="24px" font-style="normal" font-weight="normal" text-decoration="none" x="600" y="390">UNREGISTERED</text><text fill="#eeeeee" stroke="none" font-family="Arial" font-size="24px" font-style="normal" font-weight="normal" text-decoration="none" x="600" y="420">UNREGISTERED</text><text fill="#eeeeee" stroke="none" font-family="Arial" font-size="24px" font-style="normal" font-weight="normal" text-decoration="none" x="600" y="450">UNREGISTERED</text><text fill="#eeeeee" stroke="none" font-family="Arial" font-size="24px" font-style="normal" font-weight="normal" text-decoration="none" x="600" y="480">UNREGISTERED</text><text fill="#eeeeee" stroke="none" font-family="Arial" font-size="24px" font-style="normal" font-weight="normal" text-decoration="none" x="600" y="510">UNREGISTERED</text><text fill="#eeeeee" stroke="none" font-family="Arial" font-size="24px" font-style="normal" font-weight="normal" text-decoration="none" x="600" y="540">UNREGISTERED</text><text fill="#eeeeee" stroke="none" font-family="Arial" font-size="24px" font-style="normal" font-weight="normal" text-decoration="none" x="600" y="570">UNREGISTERED</text><text fill="#eeeeee" stroke="none" font-family="Arial" font-size="24px" font-style="normal" font-weight="normal" text-decoration="none" x="600" y="600">UNREGISTERED</text><text fill="#eeeeee" stroke="none" font-family="Arial" font-size="24px" font-style="normal" font-weight="normal" text-decoration="none" x="600" y="630">UNREGISTERED</text><text fill="#eeeeee" stroke="none" font-family="Arial" font-size="24px" font-style="normal" font-weight="normal" text-decoration="none" x="600" y="660">UNREGISTERED</text><text fill="#eeeeee" stroke="none" font-family="Arial" font-size="24px" font-style="normal" font-weight="normal" text-decoration="none" x="600" y="690">UNREGISTERED</text><text fill="#eeeeee" stroke="none" font-family="Arial" font-size="24px" font-style="normal" font-weight="normal" text-decoration="none" x="600" y="720">UNREGISTERED</text><text fill="#eeeeee" stroke="none" font-family="Arial" font-size="24px" font-style="normal" font-weight="normal" text-decoration="none" x="800" y="0">UNREGISTERED</text><text fill="#eeeeee" stroke="none" font-family="Arial" font-size="24px" font-style="normal" font-weight="normal" text-decoration="none" x="800" y="30">UNREGISTERED</text><text fill="#eeeeee" stroke="none" font-family="Arial" font-size="24px" font-style="normal" font-weight="normal" text-decoration="none" x="800" y="60">UNREGISTERED</text><text fill="#eeeeee" stroke="none" font-family="Arial" font-size="24px" font-style="normal" font-weight="normal" text-decoration="none" x="800" y="90">UNREGISTERED</text><text fill="#eeeeee" stroke="none" font-family="Arial" font-size="24px" font-style="normal" font-weight="normal" text-decoration="none" x="800" y="120">UNREGISTERED</text><text fill="#eeeeee" stroke="none" font-family="Arial" font-size="24px" font-style="normal" font-weight="normal" text-decoration="none" x="800" y="150">UNREGISTERED</text><text fill="#eeeeee" stroke="none" font-family="Arial" font-size="24px" font-style="normal" font-weight="normal" text-decoration="none" x="800" y="180">UNREGISTERED</text><text fill="#eeeeee" stroke="none" font-family="Arial" font-size="24px" font-style="normal" font-weight="normal" text-decoration="none" x="800" y="210">UNREGISTERED</text><text fill="#eeeeee" stroke="none" font-family="Arial" font-size="24px" font-style="normal" font-weight="normal" text-decoration="none" x="800" y="240">UNREGISTERED</text><text fill="#eeeeee" stroke="none" font-family="Arial" font-size="24px" font-style="normal" font-weight="normal" text-decoration="none" x="800" y="270">UNREGISTERED</text><text fill="#eeeeee" stroke="none" font-family="Arial" font-size="24px" font-style="normal" font-weight="normal" text-decoration="none" x="800" y="300">UNREGISTERED</text><text fill="#eeeeee" stroke="none" font-family="Arial" font-size="24px" font-style="normal" font-weight="normal" text-decoration="none" x="800" y="330">UNREGISTERED</text><text fill="#eeeeee" stroke="none" font-family="Arial" font-size="24px" font-style="normal" font-weight="normal" text-decoration="none" x="800" y="360">UNREGISTERED</text><text fill="#eeeeee" stroke="none" font-family="Arial" font-size="24px" font-style="normal" font-weight="normal" text-decoration="none" x="800" y="390">UNREGISTERED</text><text fill="#eeeeee" stroke="none" font-family="Arial" font-size="24px" font-style="normal" font-weight="normal" text-decoration="none" x="800" y="420">UNREGISTERED</text><text fill="#eeeeee" stroke="none" font-family="Arial" font-size="24px" font-style="normal" font-weight="normal" text-decoration="none" x="800" y="450">UNREGISTERED</text><text fill="#eeeeee" stroke="none" font-family="Arial" font-size="24px" font-style="normal" font-weight="normal" text-decoration="none" x="800" y="480">UNREGISTERED</text><text fill="#eeeeee" stroke="none" font-family="Arial" font-size="24px" font-style="normal" font-weight="normal" text-decoration="none" x="800" y="510">UNREGISTERED</text><text fill="#eeeeee" stroke="none" font-family="Arial" font-size="24px" font-style="normal" font-weight="normal" text-decoration="none" x="800" y="540">UNREGISTERED</text><text fill="#eeeeee" stroke="none" font-family="Arial" font-size="24px" font-style="normal" font-weight="normal" text-decoration="none" x="800" y="570">UNREGISTERED</text><text fill="#eeeeee" stroke="none" font-family="Arial" font-size="24px" font-style="normal" font-weight="normal" text-decoration="none" x="800" y="600">UNREGISTERED</text><text fill="#eeeeee" stroke="none" font-family="Arial" font-size="24px" font-style="normal" font-weight="normal" text-decoration="none" x="800" y="630">UNREGISTERED</text><text fill="#eeeeee" stroke="none" font-family="Arial" font-size="24px" font-style="normal" font-weight="normal" text-decoration="none" x="800" y="660">UNREGISTERED</text><text fill="#eeeeee" stroke="none" font-family="Arial" font-size="24px" font-style="normal" font-weight="normal" text-decoration="none" x="800" y="690">UNREGISTERED</text><text fill="#eeeeee" stroke="none" font-family="Arial" font-size="24px" font-style="normal" font-weight="normal" text-decoration="none" x="800" y="720">UNREGISTERED</text><text fill="#eeeeee" stroke="none" font-family="Arial" font-size="24px" font-style="normal" font-weight="normal" text-decoration="none" x="1000" y="0">UNREGISTERED</text><text fill="#eeeeee" stroke="none" font-family="Arial" font-size="24px" font-style="normal" font-weight="normal" text-decoration="none" x="1000" y="30">UNREGISTERED</text><text fill="#eeeeee" stroke="none" font-family="Arial" font-size="24px" font-style="normal" font-weight="normal" text-decoration="none" x="1000" y="60">UNREGISTERED</text><text fill="#eeeeee" stroke="none" font-family="Arial" font-size="24px" font-style="normal" font-weight="normal" text-decoration="none" x="1000" y="90">UNREGISTERED</text><text fill="#eeeeee" stroke="none" font-family="Arial" font-size="24px" font-style="normal" font-weight="normal" text-decoration="none" x="1000" y="120">UNREGISTERED</text><text fill="#eeeeee" stroke="none" font-family="Arial" font-size="24px" font-style="normal" font-weight="normal" text-decoration="none" x="1000" y="150">UNREGISTERED</text><text fill="#eeeeee" stroke="none" font-family="Arial" font-size="24px" font-style="normal" font-weight="normal" text-decoration="none" x="1000" y="180">UNREGISTERED</text><text fill="#eeeeee" stroke="none" font-family="Arial" font-size="24px" font-style="normal" font-weight="normal" text-decoration="none" x="1000" y="210">UNREGISTERED</text><text fill="#eeeeee" stroke="none" font-family="Arial" font-size="24px" font-style="normal" font-weight="normal" text-decoration="none" x="1000" y="240">UNREGISTERED</text><text fill="#eeeeee" stroke="none" font-family="Arial" font-size="24px" font-style="normal" font-weight="normal" text-decoration="none" x="1000" y="270">UNREGISTERED</text><text fill="#eeeeee" stroke="none" font-family="Arial" font-size="24px" font-style="normal" font-weight="normal" text-decoration="none" x="1000" y="300">UNREGISTERED</text><text fill="#eeeeee" stroke="none" font-family="Arial" font-size="24px" font-style="normal" font-weight="normal" text-decoration="none" x="1000" y="330">UNREGISTERED</text><text fill="#eeeeee" stroke="none" font-family="Arial" font-size="24px" font-style="normal" font-weight="normal" text-decoration="none" x="1000" y="360">UNREGISTERED</text><text fill="#eeeeee" stroke="none" font-family="Arial" font-size="24px" font-style="normal" font-weight="normal" text-decoration="none" x="1000" y="390">UNREGISTERED</text><text fill="#eeeeee" stroke="none" font-family="Arial" font-size="24px" font-style="normal" font-weight="normal" text-decoration="none" x="1000" y="420">UNREGISTERED</text><text fill="#eeeeee" stroke="none" font-family="Arial" font-size="24px" font-style="normal" font-weight="normal" text-decoration="none" x="1000" y="450">UNREGISTERED</text><text fill="#eeeeee" stroke="none" font-family="Arial" font-size="24px" font-style="normal" font-weight="normal" text-decoration="none" x="1000" y="480">UNREGISTERED</text><text fill="#eeeeee" stroke="none" font-family="Arial" font-size="24px" font-style="normal" font-weight="normal" text-decoration="none" x="1000" y="510">UNREGISTERED</text><text fill="#eeeeee" stroke="none" font-family="Arial" font-size="24px" font-style="normal" font-weight="normal" text-decoration="none" x="1000" y="540">UNREGISTERED</text><text fill="#eeeeee" stroke="none" font-family="Arial" font-size="24px" font-style="normal" font-weight="normal" text-decoration="none" x="1000" y="570">UNREGISTERED</text><text fill="#eeeeee" stroke="none" font-family="Arial" font-size="24px" font-style="normal" font-weight="normal" text-decoration="none" x="1000" y="600">UNREGISTERED</text><text fill="#eeeeee" stroke="none" font-family="Arial" font-size="24px" font-style="normal" font-weight="normal" text-decoration="none" x="1000" y="630">UNREGISTERED</text><text fill="#eeeeee" stroke="none" font-family="Arial" font-size="24px" font-style="normal" font-weight="normal" text-decoration="none" x="1000" y="660">UNREGISTERED</text><text fill="#eeeeee" stroke="none" font-family="Arial" font-size="24px" font-style="normal" font-weight="normal" text-decoration="none" x="1000" y="690">UNREGISTERED</text><text fill="#eeeeee" stroke="none" font-family="Arial" font-size="24px" font-style="normal" font-weight="normal" text-decoration="none" x="1000" y="720">UNREGISTERED</text><g transform="translate(-38,-230) scale(1,1)"><rect fill="#C0C0C0" stroke="none" x="207" y="247" width="396.79999999999995" height="15" opacity="0.2"/></g><g transform="translate(-38,-230) scale(1,1)"><rect fill="#C0C0C0" stroke="none" x="207" y="261" width="992" height="690" opacity="0.2"/></g><g transform="translate(-38,-230) scale(1,1)"><rect fill="#ffffff" stroke="none" x="200" y="255" width="992" height="689"/></g><g transform="translate(-38,-230) scale(1,1)"><path fill="none" stroke="#000000" d="M 200 255 L 1192 255 L 1192 944 L 200 944 L 200 255 Z Z" stroke-miterlimit="10"/></g><g transform="translate(-38,-230) scale(1,1)"><rect fill="#ffffff" stroke="none" x="200" y="240" width="396.79999999999995" height="15"/></g><g transform="translate(-38,-230) scale(1,1)"><path fill="none" stroke="#000000" d="M 200 240 L 596.8 240 L 596.8 255 L 200 255 L 200 240 Z Z" stroke-miterlimit="10"/></g><g transform="translate(-38,-230) scale(1,1)"><rect fill="#ffffff" stroke="none" x="200" y="254" width="992" height="690"/></g><g transform="translate(-38,-230) scale(1,1)"><path fill="none" stroke="#000000" d="M 200 254 L 1192 254 L 1192 944 L 200 944 L 200 254 Z Z" stroke-miterlimit="10"/></g><g transform="translate(-38,-230) scale(1,1)"><g><path fill="none" stroke="none"/><text fill="#000000" stroke="none" font-family="Arial" font-size="13px" font-style="normal" font-weight="bold" text-decoration="none" x="596.291015625" y="274.5">Gerenciar Notificações de Compra</text></g></g><g transform="translate(-38,-230) scale(1,1)"><path fill="#ffffff" stroke="none" d="M 90.77434055397727 473.68 C 90.77434055397727 468.886167936 94.66018287892273 465 99.45361328125 465 C 104.24704368357727 465 108.13288600852273 468.886167936 108.13288600852273 473.68 C 108.13288600852273 478.473832064 104.24704368357727 482.36 99.45361328125 482.36 C 94.66018287892273 482.36 90.77434055397727 478.473832064 90.77434055397727 473.68 Z"/></g><g transform="translate(-38,-230) scale(1,1)"><path fill="none" stroke="#000000" d="M 90.77434055397727 473.68 C 90.77434055397727 468.886167936 94.66018287892273 465 99.45361328125 465 C 104.24704368357727 465 108.13288600852273 468.886167936 108.13288600852273 473.68 C 108.13288600852273 478.473832064 104.24704368357727 482.36 99.45361328125 482.36 C 94.66018287892273 482.36 90.77434055397727 478.473832064 90.77434055397727 473.68 Z" stroke-miterlimit="10"/></g><g transform="translate(-38,-230) scale(1,1)"><path fill="none" stroke="#000000" d="M 99.45361328125 482.36 L 99.45361328125 499.64" stroke-miterlimit="10"/></g><g transform="translate(-38,-230) scale(1,1)"><path fill="none" stroke="#000000" d="M 90.26379509943182 488.84 L 108.64343146306818 488.84" stroke-miterlimit="10"/></g><g transform="translate(-38,-230) scale(1,1)"><path fill="none" stroke="#000000" d="M 99.45361328125 499.64 L 86.68997691761363 517" stroke-miterlimit="10"/></g><g transform="translate(-38,-230) scale(1,1)"><path fill="none" stroke="#000000" d="M 99.45361328125 499.64 L 112.21724964488637 517" stroke-miterlimit="10"/></g><g transform="translate(-38,-230) scale(1,1)"><g><path fill="none" stroke="none"/><text fill="#000000" stroke="none" font-family="Arial" font-size="13px" font-style="normal" font-weight="bold" text-decoration="none" x="54.6455078125" y="537.5">API PagSeguro</text></g></g><g transform="translate(-38,-230) scale(1,1)"><path fill="#C0C0C0" stroke="none" d="M 351 519 C 351 505.7451648 388.1603616 495 434 495 C 479.8396384 495 517 505.7451648 517 519 C 517 532.2548352 479.8396384 543 434 543 C 388.1603616 543 351 532.2548352 351 519 Z" opacity="0.2"/></g><g transform="translate(-38,-230) scale(1,1)"><path fill="#ffffff" stroke="none" d="M 344 512 C 344 498.7451648 381.1603616 488 427 488 C 472.8396384 488 510 498.7451648 510 512 C 510 525.2548352 472.8396384 536 427 536 C 381.1603616 536 344 525.2548352 344 512 Z"/></g><g transform="translate(-38,-230) scale(1,1)"><path fill="none" stroke="#000000" d="M 344 512 C 344 498.7451648 381.1603616 488 427 488 C 472.8396384 488 510 498.7451648 510 512 C 510 525.2548352 472.8396384 536 427 536 C 381.1603616 536 344 525.2548352 344 512 Z" stroke-miterlimit="10"/></g><g transform="translate(-38,-230) scale(1,1)"><g><path fill="none" stroke="none"/><text fill="#000000" stroke="none" font-family="Arial" font-size="13px" font-style="normal" font-weight="bold" text-decoration="none" x="376.425048828125" y="519">Gerar Notificação</text></g></g><g transform="translate(-38,-230) scale(1,1)"><path fill="none" stroke="#000000" d="M 152 504 L 343 510" stroke-miterlimit="10"/></g><g transform="translate(-38,-230) scale(1,1)"><path fill="#C0C0C0" stroke="none" d="M 839 319 C 839 301.3268864 908.395856 287 994 287 C 1079.604144 287 1149 301.3268864 1149 319 C 1149 336.6731136 1079.604144 351 994 351 C 908.395856 351 839 336.6731136 839 319 Z" opacity="0.2"/></g><g transform="translate(-38,-230) scale(1,1)"><path fill="#ffffff" stroke="none" d="M 832 312 C 832 294.3268864 901.395856 280 987 280 C 1072.604144 280 1142 294.3268864 1142 312 C 1142 329.6731136 1072.604144 344 987 344 C 901.395856 344 832 329.6731136 832 312 Z"/></g><g transform="translate(-38,-230) scale(1,1)"><path fill="none" stroke="#000000" d="M 832 312 C 832 294.3268864 901.395856 280 987 280 C 1072.604144 280 1142 294.3268864 1142 312 C 1142 329.6731136 1072.604144 344 987 344 C 901.395856 344 832 329.6731136 832 312 Z" stroke-miterlimit="10"/></g><g transform="translate(-38,-230) scale(1,1)"><g><path fill="none" stroke="none"/><text fill="#000000" stroke="none" font-family="Arial" font-size="13px" font-style="normal" font-weight="bold" text-decoration="none" x="889.07470703125" y="319">Registrar Aguardando pagamento</text></g></g><g transform="translate(-38,-230) scale(1,1)"><path fill="none" stroke="#000000" d="M 895 345 L 497 487" stroke-miterlimit="10" stroke-dasharray="3"/></g><g transform="translate(-38,-230) scale(1,1)"><path fill="none" stroke="#000000" d="M 505.15715271929247 479.62023987421406 L 497 487 L 507.9862564314593 487.54969957451266" stroke-miterlimit="10"/></g><g transform="translate(-38,-230) scale(1,1)"><g><path fill="none" stroke="none"/><text fill="#000000" stroke="none" font-family="Arial" font-size="13px" font-style="normal" font-weight="normal" text-decoration="none" x="679.5" y="450.5">«extend»</text></g></g><g transform="translate(-38,-230) scale(1,1)"><path fill="none" stroke="#000000" d="M 871 441 L 511 498" stroke-miterlimit="10" stroke-dasharray="3"/></g><g transform="translate(-38,-230) scale(1,1)"><path fill="none" stroke="#000000" d="M 520.3793283468789 492.2529834034141 L 511 498 L 521.6959410840908 500.5684322700157" stroke-miterlimit="10"/></g><g transform="translate(-38,-230) scale(1,1)"><g><path fill="none" stroke="none"/><text fill="#000000" stroke="none" font-family="Arial" font-size="13px" font-style="normal" font-weight="normal" text-decoration="none" x="668.5" y="504.5">«extend»</text></g></g><g transform="translate(-38,-230) scale(1,1)"><path fill="none" stroke="#000000" d="M 417 487 L 351 313" stroke-miterlimit="10" stroke-dasharray="3"/></g><g transform="translate(-38,-230) scale(1,1)"><path fill="none" stroke="#000000" d="M 358.54012435711246 321.00915255687386 L 351 313 L 350.668346979381 323.99499914842715" stroke-miterlimit="10"/></g><g transform="translate(-38,-230) scale(1,1)"><g><path fill="none" stroke="none"/><text fill="#000000" stroke="none" font-family="Arial" font-size="13px" font-style="normal" font-weight="normal" text-decoration="none" x="327.5" y="416.5">«include»</text></g></g><g transform="translate(-38,-230) scale(1,1)"><path fill="#C0C0C0" stroke="none" d="M 759 739 C 759 723.5360256 818.322264 711 891.5 711 C 964.677736 711 1024 723.5360256 1024 739 C 1024 754.4639744 964.677736 767 891.5 767 C 818.322264 767 759 754.4639744 759 739 Z" opacity="0.2"/></g><g transform="translate(-38,-230) scale(1,1)"><path fill="#ffffff" stroke="none" d="M 752 732 C 752 716.5360256 811.322264 704 884.5 704 C 957.677736 704 1017 716.5360256 1017 732 C 1017 747.4639744 957.677736 760 884.5 760 C 811.322264 760 752 747.4639744 752 732 Z"/></g><g transform="translate(-38,-230) scale(1,1)"><path fill="none" stroke="#000000" d="M 752 732 C 752 716.5360256 811.322264 704 884.5 704 C 957.677736 704 1017 716.5360256 1017 732 C 1017 747.4639744 957.677736 760 884.5 760 C 811.322264 760 752 747.4639744 752 732 Z" stroke-miterlimit="10"/></g><g transform="translate(-38,-230) scale(1,1)"><g><path fill="none" stroke="none"/><text fill="#000000" stroke="none" font-family="Arial" font-size="13px" font-style="normal" font-weight="bold" text-decoration="none" x="800.32373046875" y="739">Registrar Compra Cancelada</text></g></g><g transform="translate(-38,-230) scale(1,1)"><path fill="#C0C0C0" stroke="none" d="M 655 839 C 655 825.7451648 714.5461216 815 788 815 C 861.4538784 815 921 825.7451648 921 839 C 921 852.2548352 861.4538784 863 788 863 C 714.5461216 863 655 852.2548352 655 839 Z" opacity="0.2"/></g><g transform="translate(-38,-230) scale(1,1)"><path fill="#ffffff" stroke="none" d="M 648 832 C 648 818.7451648 707.5461216 808 781 808 C 854.4538784 808 914 818.7451648 914 832 C 914 845.2548352 854.4538784 856 781 856 C 707.5461216 856 648 845.2548352 648 832 Z"/></g><g transform="translate(-38,-230) scale(1,1)"><path fill="none" stroke="#000000" d="M 648 832 C 648 818.7451648 707.5461216 808 781 808 C 854.4538784 808 914 818.7451648 914 832 C 914 845.2548352 854.4538784 856 781 856 C 707.5461216 856 648 845.2548352 648 832 Z" stroke-miterlimit="10"/></g><g transform="translate(-38,-230) scale(1,1)"><g><path fill="none" stroke="none"/><text fill="#000000" stroke="none" font-family="Arial" font-size="13px" font-style="normal" font-weight="bold" text-decoration="none" x="697.5537109375" y="839">Registrar Compra Disponível</text></g></g><g transform="translate(-38,-230) scale(1,1)"><path fill="none" stroke="#000000" d="M 847 606 L 511 531" stroke-miterlimit="10" stroke-dasharray="3"/></g><g transform="translate(-38,-230) scale(1,1)"><path fill="none" stroke="#000000" d="M 521.8356397343276 529.105557721159 L 511 531 L 520.0015273165724 537.3223813527026" stroke-miterlimit="10"/></g><g transform="translate(-38,-230) scale(1,1)"><g><path fill="none" stroke="none"/><text fill="#000000" stroke="none" font-family="Arial" font-size="13px" font-style="normal" font-weight="normal" text-decoration="none" x="645.5" y="603.5">«extend»</text></g></g><g transform="translate(-38,-230) scale(1,1)"><path fill="#C0C0C0" stroke="none" d="M 879 427 C 879 407.1177472 936.0836879999999 391 1006.5 391 C 1076.916312 391 1134 407.1177472 1134 427 C 1134 446.8822528 1076.916312 463 1006.5 463 C 936.0836879999999 463 879 446.8822528 879 427 Z" opacity="0.2"/></g><g transform="translate(-38,-230) scale(1,1)"><path fill="#ffffff" stroke="none" d="M 872 420 C 872 400.1177472 929.0836879999999 384 999.5 384 C 1069.916312 384 1127 400.1177472 1127 420 C 1127 439.8822528 1069.916312 456 999.5 456 C 929.0836879999999 456 872 439.8822528 872 420 Z"/></g><g transform="translate(-38,-230) scale(1,1)"><path fill="none" stroke="#000000" d="M 872 420 C 872 400.1177472 929.0836879999999 384 999.5 384 C 1069.916312 384 1127 400.1177472 1127 420 C 1127 439.8822528 1069.916312 456 999.5 456 C 929.0836879999999 456 872 439.8822528 872 420 Z" stroke-miterlimit="10"/></g><g transform="translate(-38,-230) scale(1,1)"><g><path fill="none" stroke="none"/><text fill="#000000" stroke="none" font-family="Arial" font-size="13px" font-style="normal" font-weight="bold" text-decoration="none" x="933.385986328125" y="427">Registar Compra Paga</text></g></g><g transform="translate(-38,-230) scale(1,1)"><path fill="#C0C0C0" stroke="none" d="M 879 535 C 879 517.3268864 938.7699792 503 1012.5 503 C 1086.2300208 503 1146 517.3268864 1146 535 C 1146 552.6731136 1086.2300208 567 1012.5 567 C 938.7699792 567 879 552.6731136 879 535 Z" opacity="0.2"/></g><g transform="translate(-38,-230) scale(1,1)"><path fill="#ffffff" stroke="none" d="M 872 528 C 872 510.3268864 931.7699792 496 1005.5 496 C 1079.2300208 496 1139 510.3268864 1139 528 C 1139 545.6731136 1079.2300208 560 1005.5 560 C 931.7699792 560 872 545.6731136 872 528 Z"/></g><g transform="translate(-38,-230) scale(1,1)"><path fill="none" stroke="#000000" d="M 872 528 C 872 510.3268864 931.7699792 496 1005.5 496 C 1079.2300208 496 1139 510.3268864 1139 528 C 1139 545.6731136 1079.2300208 560 1005.5 560 C 931.7699792 560 872 545.6731136 872 528 Z" stroke-miterlimit="10"/></g><g transform="translate(-38,-230) scale(1,1)"><g><path fill="none" stroke="none"/><text fill="#000000" stroke="none" font-family="Arial" font-size="13px" font-style="normal" font-weight="bold" text-decoration="none" x="920.96826171875" y="535">Registrar Compra em análise</text></g></g><g transform="translate(-38,-230) scale(1,1)"><path fill="#C0C0C0" stroke="none" d="M 855 643 C 855 623.1177472 915.8892672 607 991 607 C 1066.1107328 607 1127 623.1177472 1127 643 C 1127 662.8822528 1066.1107328 679 991 679 C 915.8892672 679 855 662.8822528 855 643 Z" opacity="0.2"/></g><g transform="translate(-38,-230) scale(1,1)"><path fill="#ffffff" stroke="none" d="M 848 636 C 848 616.1177472 908.8892672 600 984 600 C 1059.1107328 600 1120 616.1177472 1120 636 C 1120 655.8822528 1059.1107328 672 984 672 C 908.8892672 672 848 655.8822528 848 636 Z"/></g><g transform="translate(-38,-230) scale(1,1)"><path fill="none" stroke="#000000" d="M 848 636 C 848 616.1177472 908.8892672 600 984 600 C 1059.1107328 600 1120 616.1177472 1120 636 C 1120 655.8822528 1059.1107328 672 984 672 C 908.8892672 672 848 655.8822528 848 636 Z" stroke-miterlimit="10"/></g><g transform="translate(-38,-230) scale(1,1)"><g><path fill="none" stroke="none"/><text fill="#000000" stroke="none" font-family="Arial" font-size="13px" font-style="normal" font-weight="bold" text-decoration="none" x="898.02734375" y="643">Registrar Compra em Disputa</text></g></g><g transform="translate(-38,-230) scale(1,1)"><path fill="none" stroke="#000000" d="M 871 524 L 511 514" stroke-miterlimit="10" stroke-dasharray="3"/></g><g transform="translate(-38,-230) scale(1,1)"><path fill="none" stroke="#000000" d="M 521.2756423026667 510.0742930232062 L 511 514 L 521.0418703775051 518.4900823290208" stroke-miterlimit="10"/></g><g transform="translate(-38,-230) scale(1,1)"><g><path fill="none" stroke="none"/><text fill="#000000" stroke="none" font-family="Arial" font-size="13px" font-style="normal" font-weight="normal" text-decoration="none" x="663.5" y="554.5">«extend»</text></g></g><g transform="translate(-38,-230) scale(1,1)"><path fill="none" stroke="#000000" d="M 824 703 L 479 537" stroke-miterlimit="10" stroke-dasharray="3"/></g><g transform="translate(-38,-230) scale(1,1)"><path fill="none" stroke="#000000" d="M 489.9829022498569 537.6130727282209 L 479 537 L 486.3325767744973 545.1995925414683" stroke-miterlimit="10"/></g><g transform="translate(-38,-230) scale(1,1)"><g><path fill="none" stroke="none"/><text fill="#000000" stroke="none" font-family="Arial" font-size="13px" font-style="normal" font-weight="normal" text-decoration="none" x="610.5" y="653.5">«extend»</text></g></g><g transform="translate(-38,-230) scale(1,1)"><path fill="#C0C0C0" stroke="none" d="M 247 295 C 247 281.7451648 292.4430928 271 348.5 271 C 404.5569072 271 450 281.7451648 450 295 C 450 308.2548352 404.5569072 319 348.5 319 C 292.4430928 319 247 308.2548352 247 295 Z" opacity="0.2"/></g><g transform="translate(-38,-230) scale(1,1)"><path fill="#ffffff" stroke="none" d="M 240 288 C 240 274.7451648 285.4430928 264 341.5 264 C 397.5569072 264 443 274.7451648 443 288 C 443 301.2548352 397.5569072 312 341.5 312 C 285.4430928 312 240 301.2548352 240 288 Z"/></g><g transform="translate(-38,-230) scale(1,1)"><path fill="none" stroke="#000000" d="M 240 288 C 240 274.7451648 285.4430928 264 341.5 264 C 397.5569072 264 443 274.7451648 443 288 C 443 301.2548352 397.5569072 312 341.5 312 C 285.4430928 312 240 301.2548352 240 288 Z" stroke-miterlimit="10"/></g><g transform="translate(-38,-230) scale(1,1)"><g><path fill="none" stroke="none"/><text fill="#000000" stroke="none" font-family="Arial" font-size="13px" font-style="normal" font-weight="bold" text-decoration="none" x="279.721435546875" y="295">Consultar Notificação</text></g></g><g transform="translate(-38,-230) scale(1,1)"><path fill="none" stroke="#000000" d="M 753 807 L 455 537" stroke-miterlimit="10" stroke-dasharray="3"/></g><g transform="translate(-38,-230) scale(1,1)"><path fill="none" stroke="#000000" d="M 465.35760905744866 540.7040430090724 L 455 537 L 459.7047816718794 546.9430895309229" stroke-miterlimit="10"/></g><g transform="translate(-38,-230) scale(1,1)"><g><path fill="none" stroke="none"/><text fill="#000000" stroke="none" font-family="Arial" font-size="13px" font-style="normal" font-weight="normal" text-decoration="none" x="556.5" y="700.5">«extend»</text></g></g><g transform="translate(-38,-230) scale(1,1)"><path fill="#C0C0C0" stroke="none" d="M 495 891 C 495 879.954304 552.9791184000001 871 624.5 871 C 696.0208815999999 871 754 879.954304 754 891 C 754 902.045696 696.0208815999999 911 624.5 911 C 552.9791184000001 911 495 902.045696 495 891 Z" opacity="0.2"/></g><g transform="translate(-38,-230) scale(1,1)"><path fill="#ffffff" stroke="none" d="M 488 884 C 488 872.954304 545.9791184000001 864 617.5 864 C 689.0208815999999 864 747 872.954304 747 884 C 747 895.045696 689.0208815999999 904 617.5 904 C 545.9791184000001 904 488 895.045696 488 884 Z"/></g><g transform="translate(-38,-230) scale(1,1)"><path fill="none" stroke="#000000" d="M 488 884 C 488 872.954304 545.9791184000001 864 617.5 864 C 689.0208815999999 864 747 872.954304 747 884 C 747 895.045696 689.0208815999999 904 617.5 904 C 545.9791184000001 904 488 895.045696 488 884 Z" stroke-miterlimit="10"/></g><g transform="translate(-38,-230) scale(1,1)"><g><path fill="none" stroke="none"/><text fill="#000000" stroke="none" font-family="Arial" font-size="13px" font-style="normal" font-weight="bold" text-decoration="none" x="536.935546875" y="891">Registra Dinheiro Devolvido</text></g></g><g transform="translate(-38,-230) scale(1,1)"><path fill="none" stroke="#000000" d="M 606 863 L 440 537" stroke-miterlimit="10" stroke-dasharray="3"/></g><g transform="translate(-38,-230) scale(1,1)"><path fill="none" stroke="#000000" d="M 448.3626332342689 544.1460734245529 L 440 537 L 440.86023769116923 547.9663116458859" stroke-miterlimit="10"/></g><g transform="translate(-38,-230) scale(1,1)"><g><path fill="none" stroke="none"/><text fill="#000000" stroke="none" font-family="Arial" font-size="13px" font-style="normal" font-weight="normal" text-decoration="none" x="469.5" y="719.5">«extend»</text></g></g></g></svg>