<svg version="1.1" xmlns="http://www.w3.org/2000/svg" xmlns:xlink="http://www.w3.org/1999/xlink" width="459" height="420"><defs/><g><text fill="#eeeeee" stroke="none" font-family="Arial" font-size="24px" font-style="normal" font-weight="normal" text-decoration="none" x="0" y="0">UNREGISTERED</text><text fill="#eeeeee" stroke="none" font-family="Arial" font-size="24px" font-style="normal" font-weight="normal" text-decoration="none" x="0" y="30">UNREGISTERED</text><text fill="#eeeeee" stroke="none" font-family="Arial" font-size="24px" font-style="normal" font-weight="normal" text-decoration="none" x="0" y="60">UNREGISTERED</text><text fill="#eeeeee" stroke="none" font-family="Arial" font-size="24px" font-style="normal" font-weight="normal" text-decoration="none" x="0" y="90">UNREGISTERED</text><text fill="#eeeeee" stroke="none" font-family="Arial" font-size="24px" font-style="normal" font-weight="normal" text-decoration="none" x="0" y="120">UNREGISTERED</text><text fill="#eeeeee" stroke="none" font-family="Arial" font-size="24px" font-style="normal" font-weight="normal" text-decoration="none" x="0" y="150">UNREGISTERED</text><text fill="#eeeeee" stroke="none" font-family="Arial" font-size="24px" font-style="normal" font-weight="normal" text-decoration="none" x="0" y="180">UNREGISTERED</text><text fill="#eeeeee" stroke="none" font-family="Arial" font-size="24px" font-style="normal" font-weight="normal" text-decoration="none" x="0" y="210">UNREGISTERED</text><text fill="#eeeeee" stroke="none" font-family="Arial" font-size="24px" font-style="normal" font-weight="normal" text-decoration="none" x="0" y="240">UNREGISTERED</text><text fill="#eeeeee" stroke="none" font-family="Arial" font-size="24px" font-style="normal" font-weight="normal" text-decoration="none" x="0" y="270">UNREGISTERED</text><text fill="#eeeeee" stroke="none" font-family="Arial" font-size="24px" font-style="normal" font-weight="normal" text-decoration="none" x="0" y="300">UNREGISTERED</text><text fill="#eeeeee" stroke="none" font-family="Arial" font-size="24px" font-style="normal" font-weight="normal" text-decoration="none" x="0" y="330">UNREGISTERED</text><text fill="#eeeeee" stroke="none" font-family="Arial" font-size="24px" font-style="normal" font-weight="normal" text-decoration="none" x="0" y="360">UNREGISTERED</text><text fill="#eeeeee" stroke="none" font-family="Arial" font-size="24px" font-style="normal" font-weight="normal" text-decoration="none" x="0" y="390">UNREGISTERED</text><text fill="#eeeeee" stroke="none" font-family="Arial" font-size="24px" font-style="normal" font-weight="normal" text-decoration="none" x="200" y="0">UNREGISTERED</text><text fill="#eeeeee" stroke="none" font-family="Arial" font-size="24px" font-style="normal" font-weight="normal" text-decoration="none" x="200" y="30">UNREGISTERED</text><text fill="#eeeeee" stroke="none" font-family="Arial" font-size="24px" font-style="normal" font-weight="normal" text-decoration="none" x="200" y="60">UNREGISTERED</text><text fill="#eeeeee" stroke="none" font-family="Arial" font-size="24px" font-style="normal" font-weight="normal" text-decoration="none" x="200" y="90">UNREGISTERED</text><text fill="#eeeeee" stroke="none" font-family="Arial" font-size="24px" font-style="normal" font-weight="normal" text-decoration="none" x="200" y="120">UNREGISTERED</text><text fill="#eeeeee" stroke="none" font-family="Arial" font-size="24px" font-style="normal" font-weight="normal" text-decoration="none" x="200" y="150">UNREGISTERED</text><text fill="#eeeeee" stroke="none" font-family="Arial" font-size="24px" font-style="normal" font-weight="normal" text-decoration="none" x="200" y="180">UNREGISTERED</text><text fill="#eeeeee" stroke="none" font-family="Arial" font-size="24px" font-style="normal" font-weight="normal" text-decoration="none" x="200" y="210">UNREGISTERED</text><text fill="#eeeeee" stroke="none" font-family="Arial" font-size="24px" font-style="normal" font-weight="normal" text-decoration="none" x="200" y="240">UNREGISTERED</text><text fill="#eeeeee" stroke="none" font-family="Arial" font-size="24px" font-style="normal" font-weight="normal" text-decoration="none" x="200" y="270">UNREGISTERED</text><text fill="#eeeeee" stroke="none" font-family="Arial" font-size="24px" font-style="normal" font-weight="normal" text-decoration="none" x="200" y="300">UNREGISTERED</text><text fill="#eeeeee" stroke="none" font-family="Arial" font-size="24px" font-style="normal" font-weight="normal" text-decoration="none" x="200" y="330">UNREGISTERED</text><text fill="#eeeeee" stroke="none" font-family="Arial" font-size="24px" font-style="normal" font-weight="normal" text-decoration="none" x="200" y="360">UNREGISTERED</text><text fill="#eeeeee" stroke="none" font-family="Arial" font-size="24px" font-style="normal" font-weight="normal" text-decoration="none" x="200" y="390">UNREGISTERED</text><text fill="#eeeeee" stroke="none" font-family="Arial" font-size="24px" font-style="normal" font-weight="normal" text-decoration="none" x="400" y="0">UNREGISTERED</text><text fill="#eeeeee" stroke="none" font-family="Arial" font-size="24px" font-style="normal" font-weight="normal" text-decoration="none" x="400" y="30">UNREGISTERED</text><text fill="#eeeeee" stroke="none" font-family="Arial" font-size="24px" font-style="normal" font-weight="normal" text-decoration="none" x="400" y="60">UNREGISTERED</text><text fill="#eeeeee" stroke="none" font-family="Arial" font-size="24px" font-style="normal" font-weight="normal" text-decoration="none" x="400" y="90">UNREGISTERED</text><text fill="#eeeeee" stroke="none" font-family="Arial" font-size="24px" font-style="normal" font-weight="normal" text-decoration="none" x="400" y="120">UNREGISTERED</text><text fill="#eeeeee" stroke="none" font-family="Arial" font-size="24px" font-style="normal" font-weight="normal" text-decoration="none" x="400" y="150">UNREGISTERED</text><text fill="#eeeeee" stroke="none" font-family="Arial" font-size="24px" font-style="normal" font-weight="normal" text-decoration="none" x="400" y="180">UNREGISTERED</text><text fill="#eeeeee" stroke="none" font-family="Arial" font-size="24px" font-style="normal" font-weight="normal" text-decoration="none" x="400" y="210">UNREGISTERED</text><text fill="#eeeeee" stroke="none" font-family="Arial" font-size="24px" font-style="normal" font-weight="normal" text-decoration="none" x="400" y="240">UNREGISTERED</text><text fill="#eeeeee" stroke="none" font-family="Arial" font-size="24px" font-style="normal" font-weight="normal" text-decoration="none" x="400" y="270">UNREGISTERED</text><text fill="#eeeeee" stroke="none" font-family="Arial" font-size="24px" font-style="normal" font-weight="normal" text-decoration="none" x="400" y="300">UNREGISTERED</text><text fill="#eeeeee" stroke="none" font-family="Arial" font-size="24px" font-style="normal" font-weight="normal" text-decoration="none" x="400" y="330">UNREGISTERED</text><text fill="#eeeeee" stroke="none" font-family="Arial" font-size="24px" font-style="normal" font-weight="normal" text-decoration="none" x="400" y="360">UNREGISTERED</text><text fill="#eeeeee" stroke="none" font-family="Arial" font-size="24px" font-style="normal" font-weight="normal" text-decoration="none" x="400" y="390">UNREGISTERED</text><g transform="translate(-38,-30) scale(1,1)"><path fill="#ffffff" stroke="none" d="M 65.49162571022727 217.68 C 65.49162571022727 212.886167936 69.37746803517273 209 74.1708984375 209 C 78.96432883982727 209 82.85017116477273 212.886167936 82.85017116477273 217.68 C 82.85017116477273 222.47383206400002 78.96432883982727 226.36 74.1708984375 226.36 C 69.37746803517273 226.36 65.49162571022727 222.47383206400002 65.49162571022727 217.68 Z"/></g><g transform="translate(-38,-30) scale(1,1)"><path fill="none" stroke="#000000" d="M 65.49162571022727 217.68 C 65.49162571022727 212.886167936 69.37746803517273 209 74.1708984375 209 C 78.96432883982727 209 82.85017116477273 212.886167936 82.85017116477273 217.68 C 82.85017116477273 222.47383206400002 78.96432883982727 226.36 74.1708984375 226.36 C 69.37746803517273 226.36 65.49162571022727 222.47383206400002 65.49162571022727 217.68 Z" stroke-miterlimit="10"/></g><g transform="translate(-38,-30) scale(1,1)"><path fill="none" stroke="#000000" d="M 74.1708984375 226.36 L 74.1708984375 243.64" stroke-miterlimit="10"/></g><g transform="translate(-38,-30) scale(1,1)"><path fill="none" stroke="#000000" d="M 64.98108025568182 232.84 L 83.36071661931818 232.84" stroke-miterlimit="10"/></g><g transform="translate(-38,-30) scale(1,1)"><path fill="none" stroke="#000000" d="M 74.1708984375 243.64 L 61.407262073863635 261" stroke-miterlimit="10"/></g><g transform="translate(-38,-30) scale(1,1)"><path fill="none" stroke="#000000" d="M 74.1708984375 243.64 L 86.93453480113637 261" stroke-miterlimit="10"/></g><g transform="translate(-38,-30) scale(1,1)"><g><path fill="none" stroke="none"/><text fill="#000000" stroke="none" font-family="Arial" font-size="13px" font-style="normal" font-weight="bold" text-decoration="none" x="53.937744140625" y="281.5">Cliente</text></g></g><g transform="translate(-38,-30) scale(1,1)"><path fill="#C0C0C0" stroke="none" d="M 255 151 C 255 137.7451648 308.5019664 127 374.5 127 C 440.4980336 127 494 137.7451648 494 151 C 494 164.2548352 440.4980336 175 374.5 175 C 308.5019664 175 255 164.2548352 255 151 Z" opacity="0.2"/></g><g transform="translate(-38,-30) scale(1,1)"><path fill="#ffffff" stroke="none" d="M 248 144 C 248 130.7451648 301.5019664 120 367.5 120 C 433.4980336 120 487 130.7451648 487 144 C 487 157.2548352 433.4980336 168 367.5 168 C 301.5019664 168 248 157.2548352 248 144 Z"/></g><g transform="translate(-38,-30) scale(1,1)"><path fill="none" stroke="#000000" d="M 248 144 C 248 130.7451648 301.5019664 120 367.5 120 C 433.4980336 120 487 130.7451648 487 144 C 487 157.2548352 433.4980336 168 367.5 168 C 301.5019664 168 248 157.2548352 248 144 Z" stroke-miterlimit="10"/></g><g transform="translate(-38,-30) scale(1,1)"><g><path fill="none" stroke="none"/><text fill="#000000" stroke="none" font-family="Arial" font-size="13px" font-style="normal" font-weight="bold" text-decoration="none" x="292.702392578125" y="151">Gerenciar conta no banco</text></g></g><g transform="translate(-38,-30) scale(1,1)"><path fill="#C0C0C0" stroke="none" d="M 327 208 C 327 198.6111584 349.6096176 191 377.5 191 C 405.3903824 191 428 198.6111584 428 208 C 428 217.3888416 405.3903824 225 377.5 225 C 349.6096176 225 327 217.3888416 327 208 Z" opacity="0.2"/></g><g transform="translate(-38,-30) scale(1,1)"><path fill="#ffffff" stroke="none" d="M 320 201 C 320 191.6111584 342.6096176 184 370.5 184 C 398.3903824 184 421 191.6111584 421 201 C 421 210.3888416 398.3903824 218 370.5 218 C 342.6096176 218 320 210.3888416 320 201 Z"/></g><g transform="translate(-38,-30) scale(1,1)"><path fill="none" stroke="#000000" d="M 320 201 C 320 191.6111584 342.6096176 184 370.5 184 C 398.3903824 184 421 191.6111584 421 201 C 421 210.3888416 398.3903824 218 370.5 218 C 342.6096176 218 320 210.3888416 320 201 Z" stroke-miterlimit="10"/></g><g transform="translate(-38,-30) scale(1,1)"><g><path fill="none" stroke="none"/><text fill="#000000" stroke="none" font-family="Arial" font-size="13px" font-style="normal" font-weight="bold" text-decoration="none" x="342.681396484375" y="208">Depositar</text></g></g><g transform="translate(-38,-30) scale(1,1)"><path fill="#C0C0C0" stroke="none" d="M 327 280 C 327 270.6111584 349.6096176 263 377.5 263 C 405.3903824 263 428 270.6111584 428 280 C 428 289.3888416 405.3903824 297 377.5 297 C 349.6096176 297 327 289.3888416 327 280 Z" opacity="0.2"/></g><g transform="translate(-38,-30) scale(1,1)"><path fill="#ffffff" stroke="none" d="M 320 273 C 320 263.6111584 342.6096176 256 370.5 256 C 398.3903824 256 421 263.6111584 421 273 C 421 282.3888416 398.3903824 290 370.5 290 C 342.6096176 290 320 282.3888416 320 273 Z"/></g><g transform="translate(-38,-30) scale(1,1)"><path fill="none" stroke="#000000" d="M 320 273 C 320 263.6111584 342.6096176 256 370.5 256 C 398.3903824 256 421 263.6111584 421 273 C 421 282.3888416 398.3903824 290 370.5 290 C 342.6096176 290 320 282.3888416 320 273 Z" stroke-miterlimit="10"/></g><g transform="translate(-38,-30) scale(1,1)"><g><path fill="none" stroke="none"/><text fill="#000000" stroke="none" font-family="Arial" font-size="13px" font-style="normal" font-weight="bold" text-decoration="none" x="353.52001953125" y="280">Sacar</text></g></g><g transform="translate(-38,-30) scale(1,1)"><path fill="#C0C0C0" stroke="none" d="M 327 352 C 327 342.6111584 349.6096176 335 377.5 335 C 405.3903824 335 428 342.6111584 428 352 C 428 361.3888416 405.3903824 369 377.5 369 C 349.6096176 369 327 361.3888416 327 352 Z" opacity="0.2"/></g><g transform="translate(-38,-30) scale(1,1)"><path fill="#ffffff" stroke="none" d="M 320 345 C 320 335.6111584 342.6096176 328 370.5 328 C 398.3903824 328 421 335.6111584 421 345 C 421 354.3888416 398.3903824 362 370.5 362 C 342.6096176 362 320 354.3888416 320 345 Z"/></g><g transform="translate(-38,-30) scale(1,1)"><path fill="none" stroke="#000000" d="M 320 345 C 320 335.6111584 342.6096176 328 370.5 328 C 398.3903824 328 421 335.6111584 421 345 C 421 354.3888416 398.3903824 362 370.5 362 C 342.6096176 362 320 354.3888416 320 345 Z" stroke-miterlimit="10"/></g><g transform="translate(-38,-30) scale(1,1)"><g><path fill="none" stroke="none"/><text fill="#000000" stroke="none" font-family="Arial" font-size="13px" font-style="normal" font-weight="bold" text-decoration="none" x="342.93212890625" y="352">Transferir</text></g></g><g transform="translate(-38,-30) scale(1,1)"><path fill="#C0C0C0" stroke="none" d="M 303 427 C 303 415.954304 337.697928 407 380.5 407 C 423.302072 407 458 415.954304 458 427 C 458 438.045696 423.302072 447 380.5 447 C 337.697928 447 303 438.045696 303 427 Z" opacity="0.2"/></g><g transform="translate(-38,-30) scale(1,1)"><path fill="#ffffff" stroke="none" d="M 296 420 C 296 408.954304 330.697928 400 373.5 400 C 416.302072 400 451 408.954304 451 420 C 451 431.045696 416.302072 440 373.5 440 C 330.697928 440 296 431.045696 296 420 Z"/></g><g transform="translate(-38,-30) scale(1,1)"><path fill="none" stroke="#000000" d="M 296 420 C 296 408.954304 330.697928 400 373.5 400 C 416.302072 400 451 408.954304 451 420 C 451 431.045696 416.302072 440 373.5 440 C 330.697928 440 296 431.045696 296 420 Z" stroke-miterlimit="10"/></g><g transform="translate(-38,-30) scale(1,1)"><g><path fill="none" stroke="none"/><text fill="#000000" stroke="none" font-family="Arial" font-size="13px" font-style="normal" font-weight="bold" text-decoration="none" x="328.35546875" y="427">Imprimir extrato</text></g></g><g transform="translate(-38,-30) scale(1,1)"><path fill="#C0C0C0" stroke="none" d="M 255 68 C 255 56.4020192 305.1441024 47 367 47 C 428.8558976 47 479 56.4020192 479 68 C 479 79.5979808 428.8558976 89 367 89 C 305.1441024 89 255 79.5979808 255 68 Z" opacity="0.2"/></g><g transform="translate(-38,-30) scale(1,1)"><path fill="#ffffff" stroke="none" d="M 248 61 C 248 49.4020192 298.1441024 40 360 40 C 421.8558976 40 472 49.4020192 472 61 C 472 72.5979808 421.8558976 82 360 82 C 298.1441024 82 248 72.5979808 248 61 Z"/></g><g transform="translate(-38,-30) scale(1,1)"><path fill="none" stroke="#000000" d="M 248 61 C 248 49.4020192 298.1441024 40 360 40 C 421.8558976 40 472 49.4020192 472 61 C 472 72.5979808 421.8558976 82 360 82 C 298.1441024 82 248 72.5979808 248 61 Z" stroke-miterlimit="10"/></g><g transform="translate(-38,-30) scale(1,1)"><g><path fill="none" stroke="none"/><text fill="#000000" stroke="none" font-family="Arial" font-size="13px" font-style="normal" font-weight="bold" text-decoration="none" x="304.724609375" y="68">Gerenciar cadastro</text></g></g><g transform="translate(-38,-30) scale(1,1)"><path fill="none" stroke="#000000" d="M 101 229 L 326 83" stroke-miterlimit="10"/></g><g transform="translate(-38,-30) scale(1,1)"><path fill="none" stroke="#000000" d="M 101 237 L 296 169" stroke-miterlimit="10"/></g><g transform="translate(-38,-30) scale(1,1)"><path fill="none" stroke="#000000" d="M 101 243 L 319 209" stroke-miterlimit="10"/></g><g transform="translate(-38,-30) scale(1,1)"><path fill="none" stroke="#000000" d="M 101 249 L 319 269" stroke-miterlimit="10"/></g><g transform="translate(-38,-30) scale(1,1)"><path fill="none" stroke="#000000" d="M 101 256 L 319 328" stroke-miterlimit="10"/></g><g transform="translate(-38,-30) scale(1,1)"><path fill="none" stroke="#000000" d="M 101 263 L 337 399" stroke-miterlimit="10"/></g></g></svg>