<svg version="1.1" xmlns="http://www.w3.org/2000/svg" xmlns:xlink="http://www.w3.org/1999/xlink" width="964" height="452"><defs/><g><text fill="#eeeeee" stroke="none" font-family="Arial" font-size="24px" font-style="normal" font-weight="normal" text-decoration="none" x="0" y="0">UNREGISTERED</text><text fill="#eeeeee" stroke="none" font-family="Arial" font-size="24px" font-style="normal" font-weight="normal" text-decoration="none" x="0" y="30">UNREGISTERED</text><text fill="#eeeeee" stroke="none" font-family="Arial" font-size="24px" font-style="normal" font-weight="normal" text-decoration="none" x="0" y="60">UNREGISTERED</text><text fill="#eeeeee" stroke="none" font-family="Arial" font-size="24px" font-style="normal" font-weight="normal" text-decoration="none" x="0" y="90">UNREGISTERED</text><text fill="#eeeeee" stroke="none" font-family="Arial" font-size="24px" font-style="normal" font-weight="normal" text-decoration="none" x="0" y="120">UNREGISTERED</text><text fill="#eeeeee" stroke="none" font-family="Arial" font-size="24px" font-style="normal" font-weight="normal" text-decoration="none" x="0" y="150">UNREGISTERED</text><text fill="#eeeeee" stroke="none" font-family="Arial" font-size="24px" font-style="normal" font-weight="normal" text-decoration="none" x="0" y="180">UNREGISTERED</text><text fill="#eeeeee" stroke="none" font-family="Arial" font-size="24px" font-style="normal" font-weight="normal" text-decoration="none" x="0" y="210">UNREGISTERED</text><text fill="#eeeeee" stroke="none" font-family="Arial" font-size="24px" font-style="normal" font-weight="normal" text-decoration="none" x="0" y="240">UNREGISTERED</text><text fill="#eeeeee" stroke="none" font-family="Arial" font-size="24px" font-style="normal" font-weight="normal" text-decoration="none" x="0" y="270">UNREGISTERED</text><text fill="#eeeeee" stroke="none" font-family="Arial" font-size="24px" font-style="normal" font-weight="normal" text-decoration="none" x="0" y="300">UNREGISTERED</text><text fill="#eeeeee" stroke="none" font-family="Arial" font-size="24px" font-style="normal" font-weight="normal" text-decoration="none" x="0" y="330">UNREGISTERED</text><text fill="#eeeeee" stroke="none" font-family="Arial" font-size="24px" font-style="normal" font-weight="normal" text-decoration="none" x="0" y="360">UNREGISTERED</text><text fill="#eeeeee" stroke="none" font-family="Arial" font-size="24px" font-style="normal" font-weight="normal" text-decoration="none" x="0" y="390">UNREGISTERED</text><text fill="#eeeeee" stroke="none" font-family="Arial" font-size="24px" font-style="normal" font-weight="normal" text-decoration="none" x="0" y="420">UNREGISTERED</text><text fill="#eeeeee" stroke="none" font-family="Arial" font-size="24px" font-style="normal" font-weight="normal" text-decoration="none" x="0" y="450">UNREGISTERED</text><text fill="#eeeeee" stroke="none" font-family="Arial" font-size="24px" font-style="normal" font-weight="normal" text-decoration="none" x="200" y="0">UNREGISTERED</text><text fill="#eeeeee" stroke="none" font-family="Arial" font-size="24px" font-style="normal" font-weight="normal" text-decoration="none" x="200" y="30">UNREGISTERED</text><text fill="#eeeeee" stroke="none" font-family="Arial" font-size="24px" font-style="normal" font-weight="normal" text-decoration="none" x="200" y="60">UNREGISTERED</text><text fill="#eeeeee" stroke="none" font-family="Arial" font-size="24px" font-style="normal" font-weight="normal" text-decoration="none" x="200" y="90">UNREGISTERED</text><text fill="#eeeeee" stroke="none" font-family="Arial" font-size="24px" font-style="normal" font-weight="normal" text-decoration="none" x="200" y="120">UNREGISTERED</text><text fill="#eeeeee" stroke="none" font-family="Arial" font-size="24px" font-style="normal" font-weight="normal" text-decoration="none" x="200" y="150">UNREGISTERED</text><text fill="#eeeeee" stroke="none" font-family="Arial" font-size="24px" font-style="normal" font-weight="normal" text-decoration="none" x="200" y="180">UNREGISTERED</text><text fill="#eeeeee" stroke="none" font-family="Arial" font-size="24px" font-style="normal" font-weight="normal" text-decoration="none" x="200" y="210">UNREGISTERED</text><text fill="#eeeeee" stroke="none" font-family="Arial" font-size="24px" font-style="normal" font-weight="normal" text-decoration="none" x="200" y="240">UNREGISTERED</text><text fill="#eeeeee" stroke="none" font-family="Arial" font-size="24px" font-style="normal" font-weight="normal" text-decoration="none" x="200" y="270">UNREGISTERED</text><text fill="#eeeeee" stroke="none" font-family="Arial" font-size="24px" font-style="normal" font-weight="normal" text-decoration="none" x="200" y="300">UNREGISTERED</text><text fill="#eeeeee" stroke="none" font-family="Arial" font-size="24px" font-style="normal" font-weight="normal" text-decoration="none" x="200" y="330">UNREGISTERED</text><text fill="#eeeeee" stroke="none" font-family="Arial" font-size="24px" font-style="normal" font-weight="normal" text-decoration="none" x="200" y="360">UNREGISTERED</text><text fill="#eeeeee" stroke="none" font-family="Arial" font-size="24px" font-style="normal" font-weight="normal" text-decoration="none" x="200" y="390">UNREGISTERED</text><text fill="#eeeeee" stroke="none" font-family="Arial" font-size="24px" font-style="normal" font-weight="normal" text-decoration="none" x="200" y="420">UNREGISTERED</text><text fill="#eeeeee" stroke="none" font-family="Arial" font-size="24px" font-style="normal" font-weight="normal" text-decoration="none" x="200" y="450">UNREGISTERED</text><text fill="#eeeeee" stroke="none" font-family="Arial" font-size="24px" font-style="normal" font-weight="normal" text-decoration="none" x="400" y="0">UNREGISTERED</text><text fill="#eeeeee" stroke="none" font-family="Arial" font-size="24px" font-style="normal" font-weight="normal" text-decoration="none" x="400" y="30">UNREGISTERED</text><text fill="#eeeeee" stroke="none" font-family="Arial" font-size="24px" font-style="normal" font-weight="normal" text-decoration="none" x="400" y="60">UNREGISTERED</text><text fill="#eeeeee" stroke="none" font-family="Arial" font-size="24px" font-style="normal" font-weight="normal" text-decoration="none" x="400" y="90">UNREGISTERED</text><text fill="#eeeeee" stroke="none" font-family="Arial" font-size="24px" font-style="normal" font-weight="normal" text-decoration="none" x="400" y="120">UNREGISTERED</text><text fill="#eeeeee" stroke="none" font-family="Arial" font-size="24px" font-style="normal" font-weight="normal" text-decoration="none" x="400" y="150">UNREGISTERED</text><text fill="#eeeeee" stroke="none" font-family="Arial" font-size="24px" font-style="normal" font-weight="normal" text-decoration="none" x="400" y="180">UNREGISTERED</text><text fill="#eeeeee" stroke="none" font-family="Arial" font-size="24px" font-style="normal" font-weight="normal" text-decoration="none" x="400" y="210">UNREGISTERED</text><text fill="#eeeeee" stroke="none" font-family="Arial" font-size="24px" font-style="normal" font-weight="normal" text-decoration="none" x="400" y="240">UNREGISTERED</text><text fill="#eeeeee" stroke="none" font-family="Arial" font-size="24px" font-style="normal" font-weight="normal" text-decoration="none" x="400" y="270">UNREGISTERED</text><text fill="#eeeeee" stroke="none" font-family="Arial" font-size="24px" font-style="normal" font-weight="normal" text-decoration="none" x="400" y="300">UNREGISTERED</text><text fill="#eeeeee" stroke="none" font-family="Arial" font-size="24px" font-style="normal" font-weight="normal" text-decoration="none" x="400" y="330">UNREGISTERED</text><text fill="#eeeeee" stroke="none" font-family="Arial" font-size="24px" font-style="normal" font-weight="normal" text-decoration="none" x="400" y="360">UNREGISTERED</text><text fill="#eeeeee" stroke="none" font-family="Arial" font-size="24px" font-style="normal" font-weight="normal" text-decoration="none" x="400" y="390">UNREGISTERED</text><text fill="#eeeeee" stroke="none" font-family="Arial" font-size="24px" font-style="normal" font-weight="normal" text-decoration="none" x="400" y="420">UNREGISTERED</text><text fill="#eeeeee" stroke="none" font-family="Arial" font-size="24px" font-style="normal" font-weight="normal" text-decoration="none" x="400" y="450">UNREGISTERED</text><text fill="#eeeeee" stroke="none" font-family="Arial" font-size="24px" font-style="normal" font-weight="normal" text-decoration="none" x="600" y="0">UNREGISTERED</text><text fill="#eeeeee" stroke="none" font-family="Arial" font-size="24px" font-style="normal" font-weight="normal" text-decoration="none" x="600" y="30">UNREGISTERED</text><text fill="#eeeeee" stroke="none" font-family="Arial" font-size="24px" font-style="normal" font-weight="normal" text-decoration="none" x="600" y="60">UNREGISTERED</text><text fill="#eeeeee" stroke="none" font-family="Arial" font-size="24px" font-style="normal" font-weight="normal" text-decoration="none" x="600" y="90">UNREGISTERED</text><text fill="#eeeeee" stroke="none" font-family="Arial" font-size="24px" font-style="normal" font-weight="normal" text-decoration="none" x="600" y="120">UNREGISTERED</text><text fill="#eeeeee" stroke="none" font-family="Arial" font-size="24px" font-style="normal" font-weight="normal" text-decoration="none" x="600" y="150">UNREGISTERED</text><text fill="#eeeeee" stroke="none" font-family="Arial" font-size="24px" font-style="normal" font-weight="normal" text-decoration="none" x="600" y="180">UNREGISTERED</text><text fill="#eeeeee" stroke="none" font-family="Arial" font-size="24px" font-style="normal" font-weight="normal" text-decoration="none" x="600" y="210">UNREGISTERED</text><text fill="#eeeeee" stroke="none" font-family="Arial" font-size="24px" font-style="normal" font-weight="normal" text-decoration="none" x="600" y="240">UNREGISTERED</text><text fill="#eeeeee" stroke="none" font-family="Arial" font-size="24px" font-style="normal" font-weight="normal" text-decoration="none" x="600" y="270">UNREGISTERED</text><text fill="#eeeeee" stroke="none" font-family="Arial" font-size="24px" font-style="normal" font-weight="normal" text-decoration="none" x="600" y="300">UNREGISTERED</text><text fill="#eeeeee" stroke="none" font-family="Arial" font-size="24px" font-style="normal" font-weight="normal" text-decoration="none" x="600" y="330">UNREGISTERED</text><text fill="#eeeeee" stroke="none" font-family="Arial" font-size="24px" font-style="normal" font-weight="normal" text-decoration="none" x="600" y="360">UNREGISTERED</text><text fill="#eeeeee" stroke="none" font-family="Arial" font-size="24px" font-style="normal" font-weight="normal" text-decoration="none" x="600" y="390">UNREGISTERED</text><text fill="#eeeeee" stroke="none" font-family="Arial" font-size="24px" font-style="normal" font-weight="normal" text-decoration="none" x="600" y="420">UNREGISTERED</text><text fill="#eeeeee" stroke="none" font-family="Arial" font-size="24px" font-style="normal" font-weight="normal" text-decoration="none" x="600" y="450">UNREGISTERED</text><text fill="#eeeeee" stroke="none" font-family="Arial" font-size="24px" font-style="normal" font-weight="normal" text-decoration="none" x="800" y="0">UNREGISTERED</text><text fill="#eeeeee" stroke="none" font-family="Arial" font-size="24px" font-style="normal" font-weight="normal" text-decoration="none" x="800" y="30">UNREGISTERED</text><text fill="#eeeeee" stroke="none" font-family="Arial" font-size="24px" font-style="normal" font-weight="normal" text-decoration="none" x="800" y="60">UNREGISTERED</text><text fill="#eeeeee" stroke="none" font-family="Arial" font-size="24px" font-style="normal" font-weight="normal" text-decoration="none" x="800" y="90">UNREGISTERED</text><text fill="#eeeeee" stroke="none" font-family="Arial" font-size="24px" font-style="normal" font-weight="normal" text-decoration="none" x="800" y="120">UNREGISTERED</text><text fill="#eeeeee" stroke="none" font-family="Arial" font-size="24px" font-style="normal" font-weight="normal" text-decoration="none" x="800" y="150">UNREGISTERED</text><text fill="#eeeeee" stroke="none" font-family="Arial" font-size="24px" font-style="normal" font-weight="normal" text-decoration="none" x="800" y="180">UNREGISTERED</text><text fill="#eeeeee" stroke="none" font-family="Arial" font-size="24px" font-style="normal" font-weight="normal" text-decoration="none" x="800" y="210">UNREGISTERED</text><text fill="#eeeeee" stroke="none" font-family="Arial" font-size="24px" font-style="normal" font-weight="normal" text-decoration="none" x="800" y="240">UNREGISTERED</text><text fill="#eeeeee" stroke="none" font-family="Arial" font-size="24px" font-style="normal" font-weight="normal" text-decoration="none" x="800" y="270">UNREGISTERED</text><text fill="#eeeeee" stroke="none" font-family="Arial" font-size="24px" font-style="normal" font-weight="normal" text-decoration="none" x="800" y="300">UNREGISTERED</text><text fill="#eeeeee" stroke="none" font-family="Arial" font-size="24px" font-style="normal" font-weight="normal" text-decoration="none" x="800" y="330">UNREGISTERED</text><text fill="#eeeeee" stroke="none" font-family="Arial" font-size="24px" font-style="normal" font-weight="normal" text-decoration="none" x="800" y="360">UNREGISTERED</text><text fill="#eeeeee" stroke="none" font-family="Arial" font-size="24px" font-style="normal" font-weight="normal" text-decoration="none" x="800" y="390">UNREGISTERED</text><text fill="#eeeeee" stroke="none" font-family="Arial" font-size="24px" font-style="normal" font-weight="normal" text-decoration="none" x="800" y="420">UNREGISTERED</text><text fill="#eeeeee" stroke="none" font-family="Arial" font-size="24px" font-style="normal" font-weight="normal" text-decoration="none" x="800" y="450">UNREGISTERED</text><g transform="translate(10,-54) scale(1,1)"><rect fill="#C0C0C0" stroke="none" x="303" y="71" width="259.20000000000005" height="15" opacity="0.2"/></g><g transform="translate(10,-54) scale(1,1)"><rect fill="#C0C0C0" stroke="none" x="303" y="85" width="648" height="418" opacity="0.2"/></g><g transform="translate(10,-54) scale(1,1)"><rect fill="#ffffff" stroke="none" x="296" y="79" width="648" height="417"/></g><g transform="translate(10,-54) scale(1,1)"><path fill="none" stroke="#000000" d="M 296 79 L 944 79 L 944 496 L 296 496 L 296 79 Z Z" stroke-miterlimit="10"/></g><g transform="translate(10,-54) scale(1,1)"><rect fill="#ffffff" stroke="none" x="296" y="64" width="259.20000000000005" height="15"/></g><g transform="translate(10,-54) scale(1,1)"><path fill="none" stroke="#000000" d="M 296 64 L 555.2 64 L 555.2 79 L 296 79 L 296 64 Z Z" stroke-miterlimit="10"/></g><g transform="translate(10,-54) scale(1,1)"><rect fill="#ffffff" stroke="none" x="296" y="78" width="648" height="418"/></g><g transform="translate(10,-54) scale(1,1)"><path fill="none" stroke="#000000" d="M 296 78 L 944 78 L 944 496 L 296 496 L 296 78 Z Z" stroke-miterlimit="10"/></g><g transform="translate(10,-54) scale(1,1)"><g><path fill="none" stroke="none"/><text fill="#000000" stroke="none" font-family="Arial" font-size="13px" font-style="normal" font-weight="bold" text-decoration="none" x="564.724609375" y="98.5">Gerenciar cadastro</text></g></g><g transform="translate(10,-54) scale(1,1)"><g><path fill="none" stroke="none"/><text fill="#000000" stroke="none" font-family="Arial" font-size="13px" font-style="normal" font-weight="normal" text-decoration="none" x="536.195068359375" y="113.5">(from DIM.  de casos de uso)</text></g></g><g transform="translate(10,-54) scale(1,1)"><path fill="#ffffff" stroke="none" d="M 82.14885227272727 273.68 C 82.14885227272727 268.886167936 86.03469459767273 265 90.828125 265 C 95.62155540232727 265 99.50739772727273 268.886167936 99.50739772727273 273.68 C 99.50739772727273 278.473832064 95.62155540232727 282.36 90.828125 282.36 C 86.03469459767273 282.36 82.14885227272727 278.473832064 82.14885227272727 273.68 Z"/></g><g transform="translate(10,-54) scale(1,1)"><path fill="none" stroke="#000000" d="M 82.14885227272727 273.68 C 82.14885227272727 268.886167936 86.03469459767273 265 90.828125 265 C 95.62155540232727 265 99.50739772727273 268.886167936 99.50739772727273 273.68 C 99.50739772727273 278.473832064 95.62155540232727 282.36 90.828125 282.36 C 86.03469459767273 282.36 82.14885227272727 278.473832064 82.14885227272727 273.68 Z" stroke-miterlimit="10"/></g><g transform="translate(10,-54) scale(1,1)"><path fill="none" stroke="#000000" d="M 90.828125 282.36 L 90.828125 299.64" stroke-miterlimit="10"/></g><g transform="translate(10,-54) scale(1,1)"><path fill="none" stroke="#000000" d="M 81.63830681818182 288.84 L 100.01794318181818 288.84" stroke-miterlimit="10"/></g><g transform="translate(10,-54) scale(1,1)"><path fill="none" stroke="#000000" d="M 90.828125 299.64 L 78.06448863636363 317" stroke-miterlimit="10"/></g><g transform="translate(10,-54) scale(1,1)"><path fill="none" stroke="#000000" d="M 90.828125 299.64 L 103.59176136363637 317" stroke-miterlimit="10"/></g><g transform="translate(10,-54) scale(1,1)"><g><path fill="none" stroke="none"/><text fill="#000000" stroke="none" font-family="Arial" font-size="13px" font-style="normal" font-weight="bold" text-decoration="none" x="70.594970703125" y="337.5">Cliente</text></g></g><g transform="translate(10,-54) scale(1,1)"><g><path fill="none" stroke="none"/><text fill="#000000" stroke="none" font-family="Arial" font-size="13px" font-style="normal" font-weight="normal" text-decoration="none" x="7.023193359375" y="352.5">(from DIM.  de casos de uso)</text></g></g><g transform="translate(10,-54) scale(1,1)"><path fill="#C0C0C0" stroke="none" d="M 527 355 C 527 343.954304 555.6537728 335 591 335 C 626.3462272 335 655 343.954304 655 355 C 655 366.045696 626.3462272 375 591 375 C 555.6537728 375 527 366.045696 527 355 Z" opacity="0.2"/></g><g transform="translate(10,-54) scale(1,1)"><path fill="#ffffff" stroke="none" d="M 520 348 C 520 336.954304 548.6537728 328 584 328 C 619.3462272 328 648 336.954304 648 348 C 648 359.045696 619.3462272 368 584 368 C 548.6537728 368 520 359.045696 520 348 Z"/></g><g transform="translate(10,-54) scale(1,1)"><path fill="none" stroke="#000000" d="M 520 348 C 520 336.954304 548.6537728 328 584 328 C 619.3462272 328 648 336.954304 648 348 C 648 359.045696 619.3462272 368 584 368 C 548.6537728 368 520 359.045696 520 348 Z" stroke-miterlimit="10"/></g><g transform="translate(10,-54) scale(1,1)"><g><path fill="none" stroke="none"/><text fill="#000000" stroke="none" font-family="Arial" font-size="13px" font-style="normal" font-weight="bold" text-decoration="none" x="546.425048828125" y="355">Editar cliente</text></g></g><g transform="translate(10,-54) scale(1,1)"><path fill="none" stroke="#000000" d="M 797 231 L 639 177" stroke-miterlimit="10" stroke-dasharray="3"/></g><g transform="translate(10,-54) scale(1,1)"><path fill="none" stroke="#000000" d="M 649.9779186968804 176.3033644534729 L 639 177 L 647.2551564728436 184.26996503491375" stroke-miterlimit="10"/></g><g transform="translate(10,-54) scale(1,1)"><g><path fill="none" stroke="none"/><text fill="#000000" stroke="none" font-family="Arial" font-size="13px" font-style="normal" font-weight="normal" text-decoration="none" x="682.5" y="223.5">«extend»</text></g></g><g transform="translate(10,-54) scale(1,1)"><path fill="none" stroke="#000000" d="M 801 267 L 640 327" stroke-miterlimit="10" stroke-dasharray="3"/></g><g transform="translate(10,-54) scale(1,1)"><path fill="none" stroke="#000000" d="M 648.0528789140129 319.5065934851867 L 640 327 L 650.9928838489847 327.39560672736076" stroke-miterlimit="10"/></g><g transform="translate(10,-54) scale(1,1)"><g><path fill="none" stroke="none"/><text fill="#000000" stroke="none" font-family="Arial" font-size="13px" font-style="normal" font-weight="normal" text-decoration="none" x="714.5" y="311.5">«extend»</text></g></g><g transform="translate(10,-54) scale(1,1)"><path fill="#C0C0C0" stroke="none" d="M 519 451 C 519 439.954304 553.697928 431 596.5 431 C 639.302072 431 674 439.954304 674 451 C 674 462.045696 639.302072 471 596.5 471 C 553.697928 471 519 462.045696 519 451 Z" opacity="0.2"/></g><g transform="translate(10,-54) scale(1,1)"><path fill="#ffffff" stroke="none" d="M 512 444 C 512 432.954304 546.697928 424 589.5 424 C 632.302072 424 667 432.954304 667 444 C 667 455.045696 632.302072 464 589.5 464 C 546.697928 464 512 455.045696 512 444 Z"/></g><g transform="translate(10,-54) scale(1,1)"><path fill="none" stroke="#000000" d="M 512 444 C 512 432.954304 546.697928 424 589.5 424 C 632.302072 424 667 432.954304 667 444 C 667 455.045696 632.302072 464 589.5 464 C 546.697928 464 512 455.045696 512 444 Z" stroke-miterlimit="10"/></g><g transform="translate(10,-54) scale(1,1)"><g><path fill="none" stroke="none"/><text fill="#000000" stroke="none" font-family="Arial" font-size="13px" font-style="normal" font-weight="bold" text-decoration="none" x="542.536865234375" y="451">Remover cliente</text></g></g><g transform="translate(10,-54) scale(1,1)"><path fill="#C0C0C0" stroke="none" d="M 535 256 C 535 246.6111584 563.4299152 239 598.5 239 C 633.5700848 239 662 246.6111584 662 256 C 662 265.3888416 633.5700848 273 598.5 273 C 563.4299152 273 535 265.3888416 535 256 Z" opacity="0.2"/></g><g transform="translate(10,-54) scale(1,1)"><path fill="#ffffff" stroke="none" d="M 528 249 C 528 239.6111584 556.4299152 232 591.5 232 C 626.5700848 232 655 239.6111584 655 249 C 655 258.3888416 626.5700848 266 591.5 266 C 556.4299152 266 528 258.3888416 528 249 Z"/></g><g transform="translate(10,-54) scale(1,1)"><path fill="none" stroke="#000000" d="M 528 249 C 528 239.6111584 556.4299152 232 591.5 232 C 626.5700848 232 655 239.6111584 655 249 C 655 258.3888416 626.5700848 266 591.5 266 C 556.4299152 266 528 258.3888416 528 249 Z" stroke-miterlimit="10"/></g><g transform="translate(10,-54) scale(1,1)"><g><path fill="none" stroke="none"/><text fill="#000000" stroke="none" font-family="Arial" font-size="13px" font-style="normal" font-weight="bold" text-decoration="none" x="552.9697265625" y="256">Validar CNPJ</text></g></g><g transform="translate(10,-54) scale(1,1)"><path fill="#C0C0C0" stroke="none" d="M 799 256 C 799 246.6111584 824.743624 239 856.5 239 C 888.256376 239 914 246.6111584 914 256 C 914 265.3888416 888.256376 273 856.5 273 C 824.743624 273 799 265.3888416 799 256 Z" opacity="0.2"/></g><g transform="translate(10,-54) scale(1,1)"><path fill="#ffffff" stroke="none" d="M 792 249 C 792 239.6111584 817.743624 232 849.5 232 C 881.256376 232 907 239.6111584 907 249 C 907 258.3888416 881.256376 266 849.5 266 C 817.743624 266 792 258.3888416 792 249 Z"/></g><g transform="translate(10,-54) scale(1,1)"><path fill="none" stroke="#000000" d="M 792 249 C 792 239.6111584 817.743624 232 849.5 232 C 881.256376 232 907 239.6111584 907 249 C 907 258.3888416 881.256376 266 849.5 266 C 817.743624 266 792 258.3888416 792 249 Z" stroke-miterlimit="10"/></g><g transform="translate(10,-54) scale(1,1)"><g><path fill="none" stroke="none"/><text fill="#000000" stroke="none" font-family="Arial" font-size="13px" font-style="normal" font-weight="bold" text-decoration="none" x="814.943359375" y="256">Validar CPF</text></g></g><g transform="translate(10,-54) scale(1,1)"><path fill="none" stroke="#000000" d="M 590 267 L 585 327" stroke-miterlimit="10" stroke-dasharray="3"/></g><g transform="translate(10,-54) scale(1,1)"><path fill="none" stroke="#000000" d="M 581.6489871461347 316.52284805621156 L 585 327 L 590.0389412741632 317.22201090021395" stroke-miterlimit="10"/></g><g transform="translate(10,-54) scale(1,1)"><g><path fill="none" stroke="none"/><text fill="#000000" stroke="none" font-family="Arial" font-size="13px" font-style="normal" font-weight="normal" text-decoration="none" x="589.5" y="304.5">«extend»</text></g></g><g transform="translate(10,-54) scale(1,1)"><path fill="none" stroke="#000000" d="M 588 231 L 581 177" stroke-miterlimit="10" stroke-dasharray="3"/></g><g transform="translate(10,-54) scale(1,1)"><path fill="none" stroke="#000000" d="M 586.4810421052002 186.53719966452533 L 581 177 L 578.1318634842402 187.619500596872" stroke-miterlimit="10"/></g><g transform="translate(10,-54) scale(1,1)"><g><path fill="none" stroke="none"/><text fill="#000000" stroke="none" font-family="Arial" font-size="13px" font-style="normal" font-weight="normal" text-decoration="none" x="527.5" y="213.5">«extend»</text></g></g><g transform="translate(10,-54) scale(1,1)"><path fill="none" stroke="#000000" d="M 649 364 L 759 392" stroke-miterlimit="10" stroke-dasharray="3"/></g><g transform="translate(10,-54) scale(1,1)"><path fill="none" stroke="#000000" d="M 748.1129797041046 393.5725104377281 L 759 392 L 750.1897813278526 385.413646915861" stroke-miterlimit="10"/></g><g transform="translate(10,-54) scale(1,1)"><g><path fill="none" stroke="none"/><text fill="#000000" stroke="none" font-family="Arial" font-size="13px" font-style="normal" font-weight="normal" text-decoration="none" x="680.5" y="364.5">«include»</text></g></g><g transform="translate(10,-54) scale(1,1)"><path fill="none" stroke="#000000" d="M 668 432 L 759 419" stroke-miterlimit="10" stroke-dasharray="3"/></g><g transform="translate(10,-54) scale(1,1)"><path fill="none" stroke="#000000" d="M 749.5347808806127 424.60442923248974 L 759 419 L 748.3441494602911 416.2700092902383" stroke-miterlimit="10"/></g><g transform="translate(10,-54) scale(1,1)"><g><path fill="none" stroke="none"/><text fill="#000000" stroke="none" font-family="Arial" font-size="13px" font-style="normal" font-weight="normal" text-decoration="none" x="675.5" y="423.5">«include»</text></g></g><g transform="translate(10,-54) scale(1,1)"><path fill="#C0C0C0" stroke="none" d="M 503 163 C 503 151.954304 539.936504 143 585.5 143 C 631.063496 143 668 151.954304 668 163 C 668 174.045696 631.063496 183 585.5 183 C 539.936504 183 503 174.045696 503 163 Z" opacity="0.2"/></g><g transform="translate(10,-54) scale(1,1)"><path fill="#ffffff" stroke="none" d="M 496 156 C 496 144.954304 532.936504 136 578.5 136 C 624.063496 136 661 144.954304 661 156 C 661 167.045696 624.063496 176 578.5 176 C 532.936504 176 496 167.045696 496 156 Z"/></g><g transform="translate(10,-54) scale(1,1)"><path fill="none" stroke="#000000" d="M 496 156 C 496 144.954304 532.936504 136 578.5 136 C 624.063496 136 661 144.954304 661 156 C 661 167.045696 624.063496 176 578.5 176 C 532.936504 176 496 167.045696 496 156 Z" stroke-miterlimit="10"/></g><g transform="translate(10,-54) scale(1,1)"><g><path fill="none" stroke="none"/><text fill="#000000" stroke="none" font-family="Arial" font-size="13px" font-style="normal" font-weight="bold" text-decoration="none" x="529.365966796875" y="163">Cadastrar cliente</text></g></g><g transform="translate(10,-54) scale(1,1)"><path fill="#C0C0C0" stroke="none" d="M 767 416 C 767 406.6111584 797.8923488 399 836 399 C 874.1076512 399 905 406.6111584 905 416 C 905 425.3888416 874.1076512 433 836 433 C 797.8923488 433 767 425.3888416 767 416 Z" opacity="0.2"/></g><g transform="translate(10,-54) scale(1,1)"><path fill="#ffffff" stroke="none" d="M 760 409 C 760 399.6111584 790.8923488 392 829 392 C 867.1076512 392 898 399.6111584 898 409 C 898 418.3888416 867.1076512 426 829 426 C 790.8923488 426 760 418.3888416 760 409 Z"/></g><g transform="translate(10,-54) scale(1,1)"><path fill="none" stroke="#000000" d="M 760 409 C 760 399.6111584 790.8923488 392 829 392 C 867.1076512 392 898 399.6111584 898 409 C 898 418.3888416 867.1076512 426 829 426 C 790.8923488 426 760 418.3888416 760 409 Z" stroke-miterlimit="10"/></g><g transform="translate(10,-54) scale(1,1)"><g><path fill="none" stroke="none"/><text fill="#000000" stroke="none" font-family="Arial" font-size="13px" font-style="normal" font-weight="bold" text-decoration="none" x="788.175048828125" y="416">Buscar cliente</text></g></g><g transform="translate(10,-54) scale(1,1)"><path fill="#C0C0C0" stroke="none" d="M 311 315 C 311 303.954304 351.294368 295 401 295 C 450.705632 295 491 303.954304 491 315 C 491 326.045696 450.705632 335 401 335 C 351.294368 335 311 326.045696 311 315 Z" opacity="0.2"/></g><g transform="translate(10,-54) scale(1,1)"><path fill="#ffffff" stroke="none" d="M 304 308 C 304 296.954304 344.294368 288 394 288 C 443.705632 288 484 296.954304 484 308 C 484 319.045696 443.705632 328 394 328 C 344.294368 328 304 319.045696 304 308 Z"/></g><g transform="translate(10,-54) scale(1,1)"><path fill="none" stroke="#000000" d="M 304 308 C 304 296.954304 344.294368 288 394 288 C 443.705632 288 484 296.954304 484 308 C 484 319.045696 443.705632 328 394 328 C 344.294368 328 304 319.045696 304 308 Z" stroke-miterlimit="10"/></g><g transform="translate(10,-54) scale(1,1)"><g><path fill="none" stroke="none"/><text fill="#000000" stroke="none" font-family="Arial" font-size="13px" font-style="normal" font-weight="bold" text-decoration="none" x="338.724609375" y="315">Gerenciar cadastro</text></g></g><g transform="translate(10,-54) scale(1,1)"><path fill="none" stroke="#000000" d="M 553 177 L 419 287" stroke-miterlimit="10" stroke-dasharray="3"/></g><g transform="translate(10,-54) scale(1,1)"><path fill="none" stroke="#000000" d="M 424.1841078314117 277.29819470447404 L 419 287 L 429.5259301162115 283.8055054877756" stroke-miterlimit="10"/></g><g transform="translate(10,-54) scale(1,1)"><g><path fill="none" stroke="none"/><text fill="#000000" stroke="none" font-family="Arial" font-size="13px" font-style="normal" font-weight="normal" text-decoration="none" x="437.5" y="224.5">«extend»</text></g></g><g transform="translate(10,-54) scale(1,1)"><path fill="none" stroke="#000000" d="M 519 334 L 485 327" stroke-miterlimit="10" stroke-dasharray="3"/></g><g transform="translate(10,-54) scale(1,1)"><path fill="none" stroke="#000000" d="M 495.80276501774216 324.92629125202063 L 485 327 L 494.1050419175124 333.1723748817082" stroke-miterlimit="10"/></g><g transform="translate(10,-54) scale(1,1)"><g><path fill="none" stroke="none"/><text fill="#000000" stroke="none" font-family="Arial" font-size="13px" font-style="normal" font-weight="normal" text-decoration="none" x="457.5" y="349.5">«extend»</text></g></g><g transform="translate(10,-54) scale(1,1)"><path fill="none" stroke="#000000" d="M 559 423 L 424 329" stroke-miterlimit="10" stroke-dasharray="3"/></g><g transform="translate(10,-54) scale(1,1)"><path fill="none" stroke="#000000" d="M 434.7454789011667 331.3525907388625 L 424 329 L 429.93466813330565 338.2617338629183" stroke-miterlimit="10"/></g><g transform="translate(10,-54) scale(1,1)"><g><path fill="none" stroke="none"/><text fill="#000000" stroke="none" font-family="Arial" font-size="13px" font-style="normal" font-weight="normal" text-decoration="none" x="449.5" y="395.5">«extend»</text></g></g><g transform="translate(10,-54) scale(1,1)"><path fill="none" stroke="#000000" d="M 183 310 L 303 309" stroke-miterlimit="10"/></g></g></svg>