<svg version="1.1" xmlns="http://www.w3.org/2000/svg" xmlns:xlink="http://www.w3.org/1999/xlink" width="1076" height="788"><defs/><g><text fill="#eeeeee" stroke="none" font-family="Arial" font-size="24px" font-style="normal" font-weight="normal" text-decoration="none" x="0" y="0">UNREGISTERED</text><text fill="#eeeeee" stroke="none" font-family="Arial" font-size="24px" font-style="normal" font-weight="normal" text-decoration="none" x="0" y="30">UNREGISTERED</text><text fill="#eeeeee" stroke="none" font-family="Arial" font-size="24px" font-style="normal" font-weight="normal" text-decoration="none" x="0" y="60">UNREGISTERED</text><text fill="#eeeeee" stroke="none" font-family="Arial" font-size="24px" font-style="normal" font-weight="normal" text-decoration="none" x="0" y="90">UNREGISTERED</text><text fill="#eeeeee" stroke="none" font-family="Arial" font-size="24px" font-style="normal" font-weight="normal" text-decoration="none" x="0" y="120">UNREGISTERED</text><text fill="#eeeeee" stroke="none" font-family="Arial" font-size="24px" font-style="normal" font-weight="normal" text-decoration="none" x="0" y="150">UNREGISTERED</text><text fill="#eeeeee" stroke="none" font-family="Arial" font-size="24px" font-style="normal" font-weight="normal" text-decoration="none" x="0" y="180">UNREGISTERED</text><text fill="#eeeeee" stroke="none" font-family="Arial" font-size="24px" font-style="normal" font-weight="normal" text-decoration="none" x="0" y="210">UNREGISTERED</text><text fill="#eeeeee" stroke="none" font-family="Arial" font-size="24px" font-style="normal" font-weight="normal" text-decoration="none" x="0" y="240">UNREGISTERED</text><text fill="#eeeeee" stroke="none" font-family="Arial" font-size="24px" font-style="normal" font-weight="normal" text-decoration="none" x="0" y="270">UNREGISTERED</text><text fill="#eeeeee" stroke="none" font-family="Arial" font-size="24px" font-style="normal" font-weight="normal" text-decoration="none" x="0" y="300">UNREGISTERED</text><text fill="#eeeeee" stroke="none" font-family="Arial" font-size="24px" font-style="normal" font-weight="normal" text-decoration="none" x="0" y="330">UNREGISTERED</text><text fill="#eeeeee" stroke="none" font-family="Arial" font-size="24px" font-style="normal" font-weight="normal" text-decoration="none" x="0" y="360">UNREGISTERED</text><text fill="#eeeeee" stroke="none" font-family="Arial" font-size="24px" font-style="normal" font-weight="normal" text-decoration="none" x="0" y="390">UNREGISTERED</text><text fill="#eeeeee" stroke="none" font-family="Arial" font-size="24px" font-style="normal" font-weight="normal" text-decoration="none" x="0" y="420">UNREGISTERED</text><text fill="#eeeeee" stroke="none" font-family="Arial" font-size="24px" font-style="normal" font-weight="normal" text-decoration="none" x="0" y="450">UNREGISTERED</text><text fill="#eeeeee" stroke="none" font-family="Arial" font-size="24px" font-style="normal" font-weight="normal" text-decoration="none" x="0" y="480">UNREGISTERED</text><text fill="#eeeeee" stroke="none" font-family="Arial" font-size="24px" font-style="normal" font-weight="normal" text-decoration="none" x="0" y="510">UNREGISTERED</text><text fill="#eeeeee" stroke="none" font-family="Arial" font-size="24px" font-style="normal" font-weight="normal" text-decoration="none" x="0" y="540">UNREGISTERED</text><text fill="#eeeeee" stroke="none" font-family="Arial" font-size="24px" font-style="normal" font-weight="normal" text-decoration="none" x="0" y="570">UNREGISTERED</text><text fill="#eeeeee" stroke="none" font-family="Arial" font-size="24px" font-style="normal" font-weight="normal" text-decoration="none" x="0" y="600">UNREGISTERED</text><text fill="#eeeeee" stroke="none" font-family="Arial" font-size="24px" font-style="normal" font-weight="normal" text-decoration="none" x="0" y="630">UNREGISTERED</text><text fill="#eeeeee" stroke="none" font-family="Arial" font-size="24px" font-style="normal" font-weight="normal" text-decoration="none" x="0" y="660">UNREGISTERED</text><text fill="#eeeeee" stroke="none" font-family="Arial" font-size="24px" font-style="normal" font-weight="normal" text-decoration="none" x="0" y="690">UNREGISTERED</text><text fill="#eeeeee" stroke="none" font-family="Arial" font-size="24px" font-style="normal" font-weight="normal" text-decoration="none" x="0" y="720">UNREGISTERED</text><text fill="#eeeeee" stroke="none" font-family="Arial" font-size="24px" font-style="normal" font-weight="normal" text-decoration="none" x="0" y="750">UNREGISTERED</text><text fill="#eeeeee" stroke="none" font-family="Arial" font-size="24px" font-style="normal" font-weight="normal" text-decoration="none" x="0" y="780">UNREGISTERED</text><text fill="#eeeeee" stroke="none" font-family="Arial" font-size="24px" font-style="normal" font-weight="normal" text-decoration="none" x="200" y="0">UNREGISTERED</text><text fill="#eeeeee" stroke="none" font-family="Arial" font-size="24px" font-style="normal" font-weight="normal" text-decoration="none" x="200" y="30">UNREGISTERED</text><text fill="#eeeeee" stroke="none" font-family="Arial" font-size="24px" font-style="normal" font-weight="normal" text-decoration="none" x="200" y="60">UNREGISTERED</text><text fill="#eeeeee" stroke="none" font-family="Arial" font-size="24px" font-style="normal" font-weight="normal" text-decoration="none" x="200" y="90">UNREGISTERED</text><text fill="#eeeeee" stroke="none" font-family="Arial" font-size="24px" font-style="normal" font-weight="normal" text-decoration="none" x="200" y="120">UNREGISTERED</text><text fill="#eeeeee" stroke="none" font-family="Arial" font-size="24px" font-style="normal" font-weight="normal" text-decoration="none" x="200" y="150">UNREGISTERED</text><text fill="#eeeeee" stroke="none" font-family="Arial" font-size="24px" font-style="normal" font-weight="normal" text-decoration="none" x="200" y="180">UNREGISTERED</text><text fill="#eeeeee" stroke="none" font-family="Arial" font-size="24px" font-style="normal" font-weight="normal" text-decoration="none" x="200" y="210">UNREGISTERED</text><text fill="#eeeeee" stroke="none" font-family="Arial" font-size="24px" font-style="normal" font-weight="normal" text-decoration="none" x="200" y="240">UNREGISTERED</text><text fill="#eeeeee" stroke="none" font-family="Arial" font-size="24px" font-style="normal" font-weight="normal" text-decoration="none" x="200" y="270">UNREGISTERED</text><text fill="#eeeeee" stroke="none" font-family="Arial" font-size="24px" font-style="normal" font-weight="normal" text-decoration="none" x="200" y="300">UNREGISTERED</text><text fill="#eeeeee" stroke="none" font-family="Arial" font-size="24px" font-style="normal" font-weight="normal" text-decoration="none" x="200" y="330">UNREGISTERED</text><text fill="#eeeeee" stroke="none" font-family="Arial" font-size="24px" font-style="normal" font-weight="normal" text-decoration="none" x="200" y="360">UNREGISTERED</text><text fill="#eeeeee" stroke="none" font-family="Arial" font-size="24px" font-style="normal" font-weight="normal" text-decoration="none" x="200" y="390">UNREGISTERED</text><text fill="#eeeeee" stroke="none" font-family="Arial" font-size="24px" font-style="normal" font-weight="normal" text-decoration="none" x="200" y="420">UNREGISTERED</text><text fill="#eeeeee" stroke="none" font-family="Arial" font-size="24px" font-style="normal" font-weight="normal" text-decoration="none" x="200" y="450">UNREGISTERED</text><text fill="#eeeeee" stroke="none" font-family="Arial" font-size="24px" font-style="normal" font-weight="normal" text-decoration="none" x="200" y="480">UNREGISTERED</text><text fill="#eeeeee" stroke="none" font-family="Arial" font-size="24px" font-style="normal" font-weight="normal" text-decoration="none" x="200" y="510">UNREGISTERED</text><text fill="#eeeeee" stroke="none" font-family="Arial" font-size="24px" font-style="normal" font-weight="normal" text-decoration="none" x="200" y="540">UNREGISTERED</text><text fill="#eeeeee" stroke="none" font-family="Arial" font-size="24px" font-style="normal" font-weight="normal" text-decoration="none" x="200" y="570">UNREGISTERED</text><text fill="#eeeeee" stroke="none" font-family="Arial" font-size="24px" font-style="normal" font-weight="normal" text-decoration="none" x="200" y="600">UNREGISTERED</text><text fill="#eeeeee" stroke="none" font-family="Arial" font-size="24px" font-style="normal" font-weight="normal" text-decoration="none" x="200" y="630">UNREGISTERED</text><text fill="#eeeeee" stroke="none" font-family="Arial" font-size="24px" font-style="normal" font-weight="normal" text-decoration="none" x="200" y="660">UNREGISTERED</text><text fill="#eeeeee" stroke="none" font-family="Arial" font-size="24px" font-style="normal" font-weight="normal" text-decoration="none" x="200" y="690">UNREGISTERED</text><text fill="#eeeeee" stroke="none" font-family="Arial" font-size="24px" font-style="normal" font-weight="normal" text-decoration="none" x="200" y="720">UNREGISTERED</text><text fill="#eeeeee" stroke="none" font-family="Arial" font-size="24px" font-style="normal" font-weight="normal" text-decoration="none" x="200" y="750">UNREGISTERED</text><text fill="#eeeeee" stroke="none" font-family="Arial" font-size="24px" font-style="normal" font-weight="normal" text-decoration="none" x="200" y="780">UNREGISTERED</text><text fill="#eeeeee" stroke="none" font-family="Arial" font-size="24px" font-style="normal" font-weight="normal" text-decoration="none" x="400" y="0">UNREGISTERED</text><text fill="#eeeeee" stroke="none" font-family="Arial" font-size="24px" font-style="normal" font-weight="normal" text-decoration="none" x="400" y="30">UNREGISTERED</text><text fill="#eeeeee" stroke="none" font-family="Arial" font-size="24px" font-style="normal" font-weight="normal" text-decoration="none" x="400" y="60">UNREGISTERED</text><text fill="#eeeeee" stroke="none" font-family="Arial" font-size="24px" font-style="normal" font-weight="normal" text-decoration="none" x="400" y="90">UNREGISTERED</text><text fill="#eeeeee" stroke="none" font-family="Arial" font-size="24px" font-style="normal" font-weight="normal" text-decoration="none" x="400" y="120">UNREGISTERED</text><text fill="#eeeeee" stroke="none" font-family="Arial" font-size="24px" font-style="normal" font-weight="normal" text-decoration="none" x="400" y="150">UNREGISTERED</text><text fill="#eeeeee" stroke="none" font-family="Arial" font-size="24px" font-style="normal" font-weight="normal" text-decoration="none" x="400" y="180">UNREGISTERED</text><text fill="#eeeeee" stroke="none" font-family="Arial" font-size="24px" font-style="normal" font-weight="normal" text-decoration="none" x="400" y="210">UNREGISTERED</text><text fill="#eeeeee" stroke="none" font-family="Arial" font-size="24px" font-style="normal" font-weight="normal" text-decoration="none" x="400" y="240">UNREGISTERED</text><text fill="#eeeeee" stroke="none" font-family="Arial" font-size="24px" font-style="normal" font-weight="normal" text-decoration="none" x="400" y="270">UNREGISTERED</text><text fill="#eeeeee" stroke="none" font-family="Arial" font-size="24px" font-style="normal" font-weight="normal" text-decoration="none" x="400" y="300">UNREGISTERED</text><text fill="#eeeeee" stroke="none" font-family="Arial" font-size="24px" font-style="normal" font-weight="normal" text-decoration="none" x="400" y="330">UNREGISTERED</text><text fill="#eeeeee" stroke="none" font-family="Arial" font-size="24px" font-style="normal" font-weight="normal" text-decoration="none" x="400" y="360">UNREGISTERED</text><text fill="#eeeeee" stroke="none" font-family="Arial" font-size="24px" font-style="normal" font-weight="normal" text-decoration="none" x="400" y="390">UNREGISTERED</text><text fill="#eeeeee" stroke="none" font-family="Arial" font-size="24px" font-style="normal" font-weight="normal" text-decoration="none" x="400" y="420">UNREGISTERED</text><text fill="#eeeeee" stroke="none" font-family="Arial" font-size="24px" font-style="normal" font-weight="normal" text-decoration="none" x="400" y="450">UNREGISTERED</text><text fill="#eeeeee" stroke="none" font-family="Arial" font-size="24px" font-style="normal" font-weight="normal" text-decoration="none" x="400" y="480">UNREGISTERED</text><text fill="#eeeeee" stroke="none" font-family="Arial" font-size="24px" font-style="normal" font-weight="normal" text-decoration="none" x="400" y="510">UNREGISTERED</text><text fill="#eeeeee" stroke="none" font-family="Arial" font-size="24px" font-style="normal" font-weight="normal" text-decoration="none" x="400" y="540">UNREGISTERED</text><text fill="#eeeeee" stroke="none" font-family="Arial" font-size="24px" font-style="normal" font-weight="normal" text-decoration="none" x="400" y="570">UNREGISTERED</text><text fill="#eeeeee" stroke="none" font-family="Arial" font-size="24px" font-style="normal" font-weight="normal" text-decoration="none" x="400" y="600">UNREGISTERED</text><text fill="#eeeeee" stroke="none" font-family="Arial" font-size="24px" font-style="normal" font-weight="normal" text-decoration="none" x="400" y="630">UNREGISTERED</text><text fill="#eeeeee" stroke="none" font-family="Arial" font-size="24px" font-style="normal" font-weight="normal" text-decoration="none" x="400" y="660">UNREGISTERED</text><text fill="#eeeeee" stroke="none" font-family="Arial" font-size="24px" font-style="normal" font-weight="normal" text-decoration="none" x="400" y="690">UNREGISTERED</text><text fill="#eeeeee" stroke="none" font-family="Arial" font-size="24px" font-style="normal" font-weight="normal" text-decoration="none" x="400" y="720">UNREGISTERED</text><text fill="#eeeeee" stroke="none" font-family="Arial" font-size="24px" font-style="normal" font-weight="normal" text-decoration="none" x="400" y="750">UNREGISTERED</text><text fill="#eeeeee" stroke="none" font-family="Arial" font-size="24px" font-style="normal" font-weight="normal" text-decoration="none" x="400" y="780">UNREGISTERED</text><text fill="#eeeeee" stroke="none" font-family="Arial" font-size="24px" font-style="normal" font-weight="normal" text-decoration="none" x="600" y="0">UNREGISTERED</text><text fill="#eeeeee" stroke="none" font-family="Arial" font-size="24px" font-style="normal" font-weight="normal" text-decoration="none" x="600" y="30">UNREGISTERED</text><text fill="#eeeeee" stroke="none" font-family="Arial" font-size="24px" font-style="normal" font-weight="normal" text-decoration="none" x="600" y="60">UNREGISTERED</text><text fill="#eeeeee" stroke="none" font-family="Arial" font-size="24px" font-style="normal" font-weight="normal" text-decoration="none" x="600" y="90">UNREGISTERED</text><text fill="#eeeeee" stroke="none" font-family="Arial" font-size="24px" font-style="normal" font-weight="normal" text-decoration="none" x="600" y="120">UNREGISTERED</text><text fill="#eeeeee" stroke="none" font-family="Arial" font-size="24px" font-style="normal" font-weight="normal" text-decoration="none" x="600" y="150">UNREGISTERED</text><text fill="#eeeeee" stroke="none" font-family="Arial" font-size="24px" font-style="normal" font-weight="normal" text-decoration="none" x="600" y="180">UNREGISTERED</text><text fill="#eeeeee" stroke="none" font-family="Arial" font-size="24px" font-style="normal" font-weight="normal" text-decoration="none" x="600" y="210">UNREGISTERED</text><text fill="#eeeeee" stroke="none" font-family="Arial" font-size="24px" font-style="normal" font-weight="normal" text-decoration="none" x="600" y="240">UNREGISTERED</text><text fill="#eeeeee" stroke="none" font-family="Arial" font-size="24px" font-style="normal" font-weight="normal" text-decoration="none" x="600" y="270">UNREGISTERED</text><text fill="#eeeeee" stroke="none" font-family="Arial" font-size="24px" font-style="normal" font-weight="normal" text-decoration="none" x="600" y="300">UNREGISTERED</text><text fill="#eeeeee" stroke="none" font-family="Arial" font-size="24px" font-style="normal" font-weight="normal" text-decoration="none" x="600" y="330">UNREGISTERED</text><text fill="#eeeeee" stroke="none" font-family="Arial" font-size="24px" font-style="normal" font-weight="normal" text-decoration="none" x="600" y="360">UNREGISTERED</text><text fill="#eeeeee" stroke="none" font-family="Arial" font-size="24px" font-style="normal" font-weight="normal" text-decoration="none" x="600" y="390">UNREGISTERED</text><text fill="#eeeeee" stroke="none" font-family="Arial" font-size="24px" font-style="normal" font-weight="normal" text-decoration="none" x="600" y="420">UNREGISTERED</text><text fill="#eeeeee" stroke="none" font-family="Arial" font-size="24px" font-style="normal" font-weight="normal" text-decoration="none" x="600" y="450">UNREGISTERED</text><text fill="#eeeeee" stroke="none" font-family="Arial" font-size="24px" font-style="normal" font-weight="normal" text-decoration="none" x="600" y="480">UNREGISTERED</text><text fill="#eeeeee" stroke="none" font-family="Arial" font-size="24px" font-style="normal" font-weight="normal" text-decoration="none" x="600" y="510">UNREGISTERED</text><text fill="#eeeeee" stroke="none" font-family="Arial" font-size="24px" font-style="normal" font-weight="normal" text-decoration="none" x="600" y="540">UNREGISTERED</text><text fill="#eeeeee" stroke="none" font-family="Arial" font-size="24px" font-style="normal" font-weight="normal" text-decoration="none" x="600" y="570">UNREGISTERED</text><text fill="#eeeeee" stroke="none" font-family="Arial" font-size="24px" font-style="normal" font-weight="normal" text-decoration="none" x="600" y="600">UNREGISTERED</text><text fill="#eeeeee" stroke="none" font-family="Arial" font-size="24px" font-style="normal" font-weight="normal" text-decoration="none" x="600" y="630">UNREGISTERED</text><text fill="#eeeeee" stroke="none" font-family="Arial" font-size="24px" font-style="normal" font-weight="normal" text-decoration="none" x="600" y="660">UNREGISTERED</text><text fill="#eeeeee" stroke="none" font-family="Arial" font-size="24px" font-style="normal" font-weight="normal" text-decoration="none" x="600" y="690">UNREGISTERED</text><text fill="#eeeeee" stroke="none" font-family="Arial" font-size="24px" font-style="normal" font-weight="normal" text-decoration="none" x="600" y="720">UNREGISTERED</text><text fill="#eeeeee" stroke="none" font-family="Arial" font-size="24px" font-style="normal" font-weight="normal" text-decoration="none" x="600" y="750">UNREGISTERED</text><text fill="#eeeeee" stroke="none" font-family="Arial" font-size="24px" font-style="normal" font-weight="normal" text-decoration="none" x="600" y="780">UNREGISTERED</text><text fill="#eeeeee" stroke="none" font-family="Arial" font-size="24px" font-style="normal" font-weight="normal" text-decoration="none" x="800" y="0">UNREGISTERED</text><text fill="#eeeeee" stroke="none" font-family="Arial" font-size="24px" font-style="normal" font-weight="normal" text-decoration="none" x="800" y="30">UNREGISTERED</text><text fill="#eeeeee" stroke="none" font-family="Arial" font-size="24px" font-style="normal" font-weight="normal" text-decoration="none" x="800" y="60">UNREGISTERED</text><text fill="#eeeeee" stroke="none" font-family="Arial" font-size="24px" font-style="normal" font-weight="normal" text-decoration="none" x="800" y="90">UNREGISTERED</text><text fill="#eeeeee" stroke="none" font-family="Arial" font-size="24px" font-style="normal" font-weight="normal" text-decoration="none" x="800" y="120">UNREGISTERED</text><text fill="#eeeeee" stroke="none" font-family="Arial" font-size="24px" font-style="normal" font-weight="normal" text-decoration="none" x="800" y="150">UNREGISTERED</text><text fill="#eeeeee" stroke="none" font-family="Arial" font-size="24px" font-style="normal" font-weight="normal" text-decoration="none" x="800" y="180">UNREGISTERED</text><text fill="#eeeeee" stroke="none" font-family="Arial" font-size="24px" font-style="normal" font-weight="normal" text-decoration="none" x="800" y="210">UNREGISTERED</text><text fill="#eeeeee" stroke="none" font-family="Arial" font-size="24px" font-style="normal" font-weight="normal" text-decoration="none" x="800" y="240">UNREGISTERED</text><text fill="#eeeeee" stroke="none" font-family="Arial" font-size="24px" font-style="normal" font-weight="normal" text-decoration="none" x="800" y="270">UNREGISTERED</text><text fill="#eeeeee" stroke="none" font-family="Arial" font-size="24px" font-style="normal" font-weight="normal" text-decoration="none" x="800" y="300">UNREGISTERED</text><text fill="#eeeeee" stroke="none" font-family="Arial" font-size="24px" font-style="normal" font-weight="normal" text-decoration="none" x="800" y="330">UNREGISTERED</text><text fill="#eeeeee" stroke="none" font-family="Arial" font-size="24px" font-style="normal" font-weight="normal" text-decoration="none" x="800" y="360">UNREGISTERED</text><text fill="#eeeeee" stroke="none" font-family="Arial" font-size="24px" font-style="normal" font-weight="normal" text-decoration="none" x="800" y="390">UNREGISTERED</text><text fill="#eeeeee" stroke="none" font-family="Arial" font-size="24px" font-style="normal" font-weight="normal" text-decoration="none" x="800" y="420">UNREGISTERED</text><text fill="#eeeeee" stroke="none" font-family="Arial" font-size="24px" font-style="normal" font-weight="normal" text-decoration="none" x="800" y="450">UNREGISTERED</text><text fill="#eeeeee" stroke="none" font-family="Arial" font-size="24px" font-style="normal" font-weight="normal" text-decoration="none" x="800" y="480">UNREGISTERED</text><text fill="#eeeeee" stroke="none" font-family="Arial" font-size="24px" font-style="normal" font-weight="normal" text-decoration="none" x="800" y="510">UNREGISTERED</text><text fill="#eeeeee" stroke="none" font-family="Arial" font-size="24px" font-style="normal" font-weight="normal" text-decoration="none" x="800" y="540">UNREGISTERED</text><text fill="#eeeeee" stroke="none" font-family="Arial" font-size="24px" font-style="normal" font-weight="normal" text-decoration="none" x="800" y="570">UNREGISTERED</text><text fill="#eeeeee" stroke="none" font-family="Arial" font-size="24px" font-style="normal" font-weight="normal" text-decoration="none" x="800" y="600">UNREGISTERED</text><text fill="#eeeeee" stroke="none" font-family="Arial" font-size="24px" font-style="normal" font-weight="normal" text-decoration="none" x="800" y="630">UNREGISTERED</text><text fill="#eeeeee" stroke="none" font-family="Arial" font-size="24px" font-style="normal" font-weight="normal" text-decoration="none" x="800" y="660">UNREGISTERED</text><text fill="#eeeeee" stroke="none" font-family="Arial" font-size="24px" font-style="normal" font-weight="normal" text-decoration="none" x="800" y="690">UNREGISTERED</text><text fill="#eeeeee" stroke="none" font-family="Arial" font-size="24px" font-style="normal" font-weight="normal" text-decoration="none" x="800" y="720">UNREGISTERED</text><text fill="#eeeeee" stroke="none" font-family="Arial" font-size="24px" font-style="normal" font-weight="normal" text-decoration="none" x="800" y="750">UNREGISTERED</text><text fill="#eeeeee" stroke="none" font-family="Arial" font-size="24px" font-style="normal" font-weight="normal" text-decoration="none" x="800" y="780">UNREGISTERED</text><text fill="#eeeeee" stroke="none" font-family="Arial" font-size="24px" font-style="normal" font-weight="normal" text-decoration="none" x="1000" y="0">UNREGISTERED</text><text fill="#eeeeee" stroke="none" font-family="Arial" font-size="24px" font-style="normal" font-weight="normal" text-decoration="none" x="1000" y="30">UNREGISTERED</text><text fill="#eeeeee" stroke="none" font-family="Arial" font-size="24px" font-style="normal" font-weight="normal" text-decoration="none" x="1000" y="60">UNREGISTERED</text><text fill="#eeeeee" stroke="none" font-family="Arial" font-size="24px" font-style="normal" font-weight="normal" text-decoration="none" x="1000" y="90">UNREGISTERED</text><text fill="#eeeeee" stroke="none" font-family="Arial" font-size="24px" font-style="normal" font-weight="normal" text-decoration="none" x="1000" y="120">UNREGISTERED</text><text fill="#eeeeee" stroke="none" font-family="Arial" font-size="24px" font-style="normal" font-weight="normal" text-decoration="none" x="1000" y="150">UNREGISTERED</text><text fill="#eeeeee" stroke="none" font-family="Arial" font-size="24px" font-style="normal" font-weight="normal" text-decoration="none" x="1000" y="180">UNREGISTERED</text><text fill="#eeeeee" stroke="none" font-family="Arial" font-size="24px" font-style="normal" font-weight="normal" text-decoration="none" x="1000" y="210">UNREGISTERED</text><text fill="#eeeeee" stroke="none" font-family="Arial" font-size="24px" font-style="normal" font-weight="normal" text-decoration="none" x="1000" y="240">UNREGISTERED</text><text fill="#eeeeee" stroke="none" font-family="Arial" font-size="24px" font-style="normal" font-weight="normal" text-decoration="none" x="1000" y="270">UNREGISTERED</text><text fill="#eeeeee" stroke="none" font-family="Arial" font-size="24px" font-style="normal" font-weight="normal" text-decoration="none" x="1000" y="300">UNREGISTERED</text><text fill="#eeeeee" stroke="none" font-family="Arial" font-size="24px" font-style="normal" font-weight="normal" text-decoration="none" x="1000" y="330">UNREGISTERED</text><text fill="#eeeeee" stroke="none" font-family="Arial" font-size="24px" font-style="normal" font-weight="normal" text-decoration="none" x="1000" y="360">UNREGISTERED</text><text fill="#eeeeee" stroke="none" font-family="Arial" font-size="24px" font-style="normal" font-weight="normal" text-decoration="none" x="1000" y="390">UNREGISTERED</text><text fill="#eeeeee" stroke="none" font-family="Arial" font-size="24px" font-style="normal" font-weight="normal" text-decoration="none" x="1000" y="420">UNREGISTERED</text><text fill="#eeeeee" stroke="none" font-family="Arial" font-size="24px" font-style="normal" font-weight="normal" text-decoration="none" x="1000" y="450">UNREGISTERED</text><text fill="#eeeeee" stroke="none" font-family="Arial" font-size="24px" font-style="normal" font-weight="normal" text-decoration="none" x="1000" y="480">UNREGISTERED</text><text fill="#eeeeee" stroke="none" font-family="Arial" font-size="24px" font-style="normal" font-weight="normal" text-decoration="none" x="1000" y="510">UNREGISTERED</text><text fill="#eeeeee" stroke="none" font-family="Arial" font-size="24px" font-style="normal" font-weight="normal" text-decoration="none" x="1000" y="540">UNREGISTERED</text><text fill="#eeeeee" stroke="none" font-family="Arial" font-size="24px" font-style="normal" font-weight="normal" text-decoration="none" x="1000" y="570">UNREGISTERED</text><text fill="#eeeeee" stroke="none" font-family="Arial" font-size="24px" font-style="normal" font-weight="normal" text-decoration="none" x="1000" y="600">UNREGISTERED</text><text fill="#eeeeee" stroke="none" font-family="Arial" font-size="24px" font-style="normal" font-weight="normal" text-decoration="none" x="1000" y="630">UNREGISTERED</text><text fill="#eeeeee" stroke="none" font-family="Arial" font-size="24px" font-style="normal" font-weight="normal" text-decoration="none" x="1000" y="660">UNREGISTERED</text><text fill="#eeeeee" stroke="none" font-family="Arial" font-size="24px" font-style="normal" font-weight="normal" text-decoration="none" x="1000" y="690">UNREGISTERED</text><text fill="#eeeeee" stroke="none" font-family="Arial" font-size="24px" font-style="normal" font-weight="normal" text-decoration="none" x="1000" y="720">UNREGISTERED</text><text fill="#eeeeee" stroke="none" font-family="Arial" font-size="24px" font-style="normal" font-weight="normal" text-decoration="none" x="1000" y="750">UNREGISTERED</text><text fill="#eeeeee" stroke="none" font-family="Arial" font-size="24px" font-style="normal" font-weight="normal" text-decoration="none" x="1000" y="780">UNREGISTERED</text><g transform="translate(-6,-30) scale(1,1)"><rect fill="#C0C0C0" stroke="none" x="271" y="47" width="323.20000000000005" height="15" opacity="0.2"/></g><g transform="translate(-6,-30) scale(1,1)"><rect fill="#C0C0C0" stroke="none" x="271" y="61" width="808" height="754" opacity="0.2"/></g><g transform="translate(-6,-30) scale(1,1)"><rect fill="#ffffff" stroke="none" x="264" y="55" width="808" height="753"/></g><g transform="translate(-6,-30) scale(1,1)"><path fill="none" stroke="#000000" d="M 264 55 L 1072 55 L 1072 808 L 264 808 L 264 55 Z Z" stroke-miterlimit="10"/></g><g transform="translate(-6,-30) scale(1,1)"><rect fill="#ffffff" stroke="none" x="264" y="40" width="323.20000000000005" height="15"/></g><g transform="translate(-6,-30) scale(1,1)"><path fill="none" stroke="#000000" d="M 264 40 L 587.2 40 L 587.2 55 L 264 55 L 264 40 Z Z" stroke-miterlimit="10"/></g><g transform="translate(-6,-30) scale(1,1)"><rect fill="#ffffff" stroke="none" x="264" y="54" width="808" height="754"/></g><g transform="translate(-6,-30) scale(1,1)"><path fill="none" stroke="#000000" d="M 264 54 L 1072 54 L 1072 808 L 264 808 L 264 54 Z Z" stroke-miterlimit="10"/></g><g transform="translate(-6,-30) scale(1,1)"><g><path fill="none" stroke="none"/><text fill="#000000" stroke="none" font-family="Arial" font-size="13px" font-style="normal" font-weight="bold" text-decoration="none" x="593.202392578125" y="74.5">Gerenciar conta no banco</text></g></g><g transform="translate(-6,-30) scale(1,1)"><g><path fill="none" stroke="none"/><text fill="#000000" stroke="none" font-family="Arial" font-size="13px" font-style="normal" font-weight="normal" text-decoration="none" x="584.195068359375" y="89.5">(from DIM.  de casos de uso)</text></g></g><g transform="translate(-6,-30) scale(1,1)"><path fill="#ffffff" stroke="none" d="M 98.14885227272727 465.68 C 98.14885227272727 460.886167936 102.03469459767273 457 106.828125 457 C 111.62155540232727 457 115.50739772727273 460.886167936 115.50739772727273 465.68 C 115.50739772727273 470.473832064 111.62155540232727 474.36 106.828125 474.36 C 102.03469459767273 474.36 98.14885227272727 470.473832064 98.14885227272727 465.68 Z"/></g><g transform="translate(-6,-30) scale(1,1)"><path fill="none" stroke="#000000" d="M 98.14885227272727 465.68 C 98.14885227272727 460.886167936 102.03469459767273 457 106.828125 457 C 111.62155540232727 457 115.50739772727273 460.886167936 115.50739772727273 465.68 C 115.50739772727273 470.473832064 111.62155540232727 474.36 106.828125 474.36 C 102.03469459767273 474.36 98.14885227272727 470.473832064 98.14885227272727 465.68 Z" stroke-miterlimit="10"/></g><g transform="translate(-6,-30) scale(1,1)"><path fill="none" stroke="#000000" d="M 106.828125 474.36 L 106.828125 491.64" stroke-miterlimit="10"/></g><g transform="translate(-6,-30) scale(1,1)"><path fill="none" stroke="#000000" d="M 97.63830681818182 480.84 L 116.01794318181818 480.84" stroke-miterlimit="10"/></g><g transform="translate(-6,-30) scale(1,1)"><path fill="none" stroke="#000000" d="M 106.828125 491.64 L 94.06448863636363 509" stroke-miterlimit="10"/></g><g transform="translate(-6,-30) scale(1,1)"><path fill="none" stroke="#000000" d="M 106.828125 491.64 L 119.59176136363637 509" stroke-miterlimit="10"/></g><g transform="translate(-6,-30) scale(1,1)"><g><path fill="none" stroke="none"/><text fill="#000000" stroke="none" font-family="Arial" font-size="13px" font-style="normal" font-weight="bold" text-decoration="none" x="86.594970703125" y="529.5">Cliente</text></g></g><g transform="translate(-6,-30) scale(1,1)"><g><path fill="none" stroke="none"/><text fill="#000000" stroke="none" font-family="Arial" font-size="13px" font-style="normal" font-weight="normal" text-decoration="none" x="23.023193359375" y="544.5">(from DIM.  de casos de uso)</text></g></g><g transform="translate(-6,-30) scale(1,1)"><path fill="none" stroke="#000000" d="M 799 147 L 637 207" stroke-miterlimit="10" stroke-dasharray="3"/></g><g transform="translate(-6,-30) scale(1,1)"><path fill="none" stroke="#000000" d="M 645.0680098056163 199.52288706943122 L 637 207 L 647.9920617011337 207.41782718732804" stroke-miterlimit="10"/></g><g transform="translate(-6,-30) scale(1,1)"><g><path fill="none" stroke="none"/><text fill="#000000" stroke="none" font-family="Arial" font-size="13px" font-style="normal" font-weight="normal" text-decoration="none" x="711.5" y="190.5">«extend»</text></g></g><g transform="translate(-6,-30) scale(1,1)"><path fill="none" stroke="#000000" d="M 754 263 L 658 244" stroke-miterlimit="10" stroke-dasharray="3"/></g><g transform="translate(-6,-30) scale(1,1)"><path fill="none" stroke="#000000" d="M 668.7865773016962 241.8436720762988 L 658 244 L 667.1520160531333 250.1025078585112" stroke-miterlimit="10"/></g><g transform="translate(-6,-30) scale(1,1)"><g><path fill="none" stroke="none"/><text fill="#000000" stroke="none" font-family="Arial" font-size="13px" font-style="normal" font-weight="normal" text-decoration="none" x="670.5" y="274.5">«extend»</text></g></g><g transform="translate(-6,-30) scale(1,1)"><path fill="none" stroke="#000000" d="M 580 249 L 578 383" stroke-miterlimit="10" stroke-dasharray="3"/></g><g transform="translate(-6,-30) scale(1,1)"><path fill="none" stroke="#000000" d="M 573.9426158582773 372.77563528005294 L 578 383 L 582.3607137863082 372.90127853271014" stroke-miterlimit="10"/></g><g transform="translate(-6,-30) scale(1,1)"><g><path fill="none" stroke="none"/><text fill="#000000" stroke="none" font-family="Arial" font-size="13px" font-style="normal" font-weight="normal" text-decoration="none" x="580.5" y="322.5">«include»</text></g></g><g transform="translate(-6,-30) scale(1,1)"><path fill="#C0C0C0" stroke="none" d="M 535 408 C 535 398.6111584 557.6096176 391 585.5 391 C 613.3903824 391 636 398.6111584 636 408 C 636 417.3888416 613.3903824 425 585.5 425 C 557.6096176 425 535 417.3888416 535 408 Z" opacity="0.2"/></g><g transform="translate(-6,-30) scale(1,1)"><path fill="#ffffff" stroke="none" d="M 528 401 C 528 391.6111584 550.6096176 384 578.5 384 C 606.3903824 384 629 391.6111584 629 401 C 629 410.3888416 606.3903824 418 578.5 418 C 550.6096176 418 528 410.3888416 528 401 Z"/></g><g transform="translate(-6,-30) scale(1,1)"><path fill="none" stroke="#000000" d="M 528 401 C 528 391.6111584 550.6096176 384 578.5 384 C 606.3903824 384 629 391.6111584 629 401 C 629 410.3888416 606.3903824 418 578.5 418 C 550.6096176 418 528 410.3888416 528 401 Z" stroke-miterlimit="10"/></g><g transform="translate(-6,-30) scale(1,1)"><g><path fill="none" stroke="none"/><text fill="#000000" stroke="none" font-family="Arial" font-size="13px" font-style="normal" font-weight="bold" text-decoration="none" x="550.681396484375" y="408">Depositar</text></g></g><g transform="translate(-6,-30) scale(1,1)"><path fill="#C0C0C0" stroke="none" d="M 743 132 C 743 120.4020192 797.845112 111 865.5 111 C 933.154888 111 988 120.4020192 988 132 C 988 143.5979808 933.154888 153 865.5 153 C 797.845112 153 743 143.5979808 743 132 Z" opacity="0.2"/></g><g transform="translate(-6,-30) scale(1,1)"><path fill="#ffffff" stroke="none" d="M 736 125 C 736 113.4020192 790.845112 104 858.5 104 C 926.154888 104 981 113.4020192 981 125 C 981 136.5979808 926.154888 146 858.5 146 C 790.845112 146 736 136.5979808 736 125 Z"/></g><g transform="translate(-6,-30) scale(1,1)"><path fill="none" stroke="#000000" d="M 736 125 C 736 113.4020192 790.845112 104 858.5 104 C 926.154888 104 981 113.4020192 981 125 C 981 136.5979808 926.154888 146 858.5 146 C 790.845112 146 736 136.5979808 736 125 Z" stroke-miterlimit="10"/></g><g transform="translate(-6,-30) scale(1,1)"><g><path fill="none" stroke="none"/><text fill="#000000" stroke="none" font-family="Arial" font-size="13px" font-style="normal" font-weight="bold" text-decoration="none" x="781.893310546875" y="132">Cadastrar conta poupança</text></g></g><g transform="translate(-6,-30) scale(1,1)"><path fill="#C0C0C0" stroke="none" d="M 751 291 C 751 279.954304 802.7111056 271 866.5 271 C 930.2888944 271 982 279.954304 982 291 C 982 302.045696 930.2888944 311 866.5 311 C 802.7111056 311 751 302.045696 751 291 Z" opacity="0.2"/></g><g transform="translate(-6,-30) scale(1,1)"><path fill="#ffffff" stroke="none" d="M 744 284 C 744 272.954304 795.7111056 264 859.5 264 C 923.2888944 264 975 272.954304 975 284 C 975 295.045696 923.2888944 304 859.5 304 C 795.7111056 304 744 295.045696 744 284 Z"/></g><g transform="translate(-6,-30) scale(1,1)"><path fill="none" stroke="#000000" d="M 744 284 C 744 272.954304 795.7111056 264 859.5 264 C 923.2888944 264 975 272.954304 975 284 C 975 295.045696 923.2888944 304 859.5 304 C 795.7111056 304 744 295.045696 744 284 Z" stroke-miterlimit="10"/></g><g transform="translate(-6,-30) scale(1,1)"><g><path fill="none" stroke="none"/><text fill="#000000" stroke="none" font-family="Arial" font-size="13px" font-style="normal" font-weight="bold" text-decoration="none" x="787.603271484375" y="291">Cadastrar conta corrente</text></g></g><g transform="translate(-6,-30) scale(1,1)"><path fill="#C0C0C0" stroke="none" d="M 511 235 C 511 223.954304 545.2502128 215 587.5 215 C 629.7497872 215 664 223.954304 664 235 C 664 246.045696 629.7497872 255 587.5 255 C 545.2502128 255 511 246.045696 511 235 Z" opacity="0.2"/></g><g transform="translate(-6,-30) scale(1,1)"><path fill="#ffffff" stroke="none" d="M 504 228 C 504 216.954304 538.2502128 208 580.5 208 C 622.7497872 208 657 216.954304 657 228 C 657 239.045696 622.7497872 248 580.5 248 C 538.2502128 248 504 239.045696 504 228 Z"/></g><g transform="translate(-6,-30) scale(1,1)"><path fill="none" stroke="#000000" d="M 504 228 C 504 216.954304 538.2502128 208 580.5 208 C 622.7497872 208 657 216.954304 657 228 C 657 239.045696 622.7497872 248 580.5 248 C 538.2502128 248 504 239.045696 504 228 Z" stroke-miterlimit="10"/></g><g transform="translate(-6,-30) scale(1,1)"><g><path fill="none" stroke="none"/><text fill="#000000" stroke="none" font-family="Arial" font-size="13px" font-style="normal" font-weight="bold" text-decoration="none" x="534.254150390625" y="235">Cadastrar conta</text></g></g><g transform="translate(-6,-30) scale(1,1)"><path fill="#C0C0C0" stroke="none" d="M 535 528 C 535 518.6111584 557.6096176 511 585.5 511 C 613.3903824 511 636 518.6111584 636 528 C 636 537.3888416 613.3903824 545 585.5 545 C 557.6096176 545 535 537.3888416 535 528 Z" opacity="0.2"/></g><g transform="translate(-6,-30) scale(1,1)"><path fill="#ffffff" stroke="none" d="M 528 521 C 528 511.6111584 550.6096176 504 578.5 504 C 606.3903824 504 629 511.6111584 629 521 C 629 530.3888416 606.3903824 538 578.5 538 C 550.6096176 538 528 530.3888416 528 521 Z"/></g><g transform="translate(-6,-30) scale(1,1)"><path fill="none" stroke="#000000" d="M 528 521 C 528 511.6111584 550.6096176 504 578.5 504 C 606.3903824 504 629 511.6111584 629 521 C 629 530.3888416 606.3903824 538 578.5 538 C 550.6096176 538 528 530.3888416 528 521 Z" stroke-miterlimit="10"/></g><g transform="translate(-6,-30) scale(1,1)"><g><path fill="none" stroke="none"/><text fill="#000000" stroke="none" font-family="Arial" font-size="13px" font-style="normal" font-weight="bold" text-decoration="none" x="550.93212890625" y="528">Transferir</text></g></g><g transform="translate(-6,-30) scale(1,1)"><path fill="#C0C0C0" stroke="none" d="M 783 531 C 783 515.5360256 834.9349632 503 899 503 C 963.0650368 503 1015 515.5360256 1015 531 C 1015 546.4639744 963.0650368 559 899 559 C 834.9349632 559 783 546.4639744 783 531 Z" opacity="0.2"/></g><g transform="translate(-6,-30) scale(1,1)"><path fill="#ffffff" stroke="none" d="M 776 524 C 776 508.5360256 827.9349632 496 892 496 C 956.0650368 496 1008 508.5360256 1008 524 C 1008 539.4639744 956.0650368 552 892 552 C 827.9349632 552 776 539.4639744 776 524 Z"/></g><g transform="translate(-6,-30) scale(1,1)"><path fill="none" stroke="#000000" d="M 776 524 C 776 508.5360256 827.9349632 496 892 496 C 956.0650368 496 1008 508.5360256 1008 524 C 1008 539.4639744 956.0650368 552 892 552 C 827.9349632 552 776 539.4639744 776 524 Z" stroke-miterlimit="10"/></g><g transform="translate(-6,-30) scale(1,1)"><g><path fill="none" stroke="none"/><text fill="#000000" stroke="none" font-family="Arial" font-size="13px" font-style="normal" font-weight="bold" text-decoration="none" x="819.385986328125" y="531">Gerenciar movimentação</text></g></g><g transform="translate(-6,-30) scale(1,1)"><path fill="none" stroke="#000000" d="M 624 419 L 818 495" stroke-miterlimit="10" stroke-dasharray="3"/></g><g transform="translate(-6,-30) scale(1,1)"><path fill="none" stroke="#000000" d="M 807.0020534549667 495.21253656765515 L 818 495 L 810.0729913706407 487.3735634671189" stroke-miterlimit="10"/></g><g transform="translate(-6,-30) scale(1,1)"><g><path fill="none" stroke="none"/><text fill="#000000" stroke="none" font-family="Arial" font-size="13px" font-style="normal" font-weight="normal" text-decoration="none" x="687.5" y="443.5">«include»</text></g></g><g transform="translate(-6,-30) scale(1,1)"><path fill="none" stroke="#000000" d="M 630 521 L 775 523" stroke-miterlimit="10" stroke-dasharray="3"/></g><g transform="translate(-6,-30) scale(1,1)"><path fill="none" stroke="#000000" d="M 764.7802349358989 527.068955889977 L 775 523 L 764.896348518889 518.6507211231924" stroke-miterlimit="10"/></g><g transform="translate(-6,-30) scale(1,1)"><g><path fill="none" stroke="none"/><text fill="#000000" stroke="none" font-family="Arial" font-size="13px" font-style="normal" font-weight="normal" text-decoration="none" x="674.5" y="516.5">«include»</text></g></g><g transform="translate(-6,-30) scale(1,1)"><path fill="none" stroke="#000000" d="M 630 602 L 794 553" stroke-miterlimit="10" stroke-dasharray="3"/></g><g transform="translate(-6,-30) scale(1,1)"><path fill="none" stroke="#000000" d="M 785.4677433905438 559.9426649890651 L 794 553 L 783.0575779993554 551.8759889859041" stroke-miterlimit="10"/></g><g transform="translate(-6,-30) scale(1,1)"><g><path fill="none" stroke="none"/><text fill="#000000" stroke="none" font-family="Arial" font-size="13px" font-style="normal" font-weight="normal" text-decoration="none" x="674.5" y="568.5">«include»</text></g></g><g transform="translate(-6,-30) scale(1,1)"><path fill="#C0C0C0" stroke="none" d="M 535 624 C 535 614.6111584 557.6096176 607 585.5 607 C 613.3903824 607 636 614.6111584 636 624 C 636 633.3888416 613.3903824 641 585.5 641 C 557.6096176 641 535 633.3888416 535 624 Z" opacity="0.2"/></g><g transform="translate(-6,-30) scale(1,1)"><path fill="#ffffff" stroke="none" d="M 528 617 C 528 607.6111584 550.6096176 600 578.5 600 C 606.3903824 600 629 607.6111584 629 617 C 629 626.3888416 606.3903824 634 578.5 634 C 550.6096176 634 528 626.3888416 528 617 Z"/></g><g transform="translate(-6,-30) scale(1,1)"><path fill="none" stroke="#000000" d="M 528 617 C 528 607.6111584 550.6096176 600 578.5 600 C 606.3903824 600 629 607.6111584 629 617 C 629 626.3888416 606.3903824 634 578.5 634 C 550.6096176 634 528 626.3888416 528 617 Z" stroke-miterlimit="10"/></g><g transform="translate(-6,-30) scale(1,1)"><g><path fill="none" stroke="none"/><text fill="#000000" stroke="none" font-family="Arial" font-size="13px" font-style="normal" font-weight="bold" text-decoration="none" x="561.52001953125" y="624">Sacar</text></g></g><g transform="translate(-6,-30) scale(1,1)"><path fill="#C0C0C0" stroke="none" d="M 519 723 C 519 711.954304 551.459352 703 591.5 703 C 631.540648 703 664 711.954304 664 723 C 664 734.045696 631.540648 743 591.5 743 C 551.459352 743 519 734.045696 519 723 Z" opacity="0.2"/></g><g transform="translate(-6,-30) scale(1,1)"><path fill="#ffffff" stroke="none" d="M 512 716 C 512 704.954304 544.459352 696 584.5 696 C 624.540648 696 657 704.954304 657 716 C 657 727.045696 624.540648 736 584.5 736 C 544.459352 736 512 727.045696 512 716 Z"/></g><g transform="translate(-6,-30) scale(1,1)"><path fill="none" stroke="#000000" d="M 512 716 C 512 704.954304 544.459352 696 584.5 696 C 624.540648 696 657 704.954304 657 716 C 657 727.045696 624.540648 736 584.5 736 C 544.459352 736 512 727.045696 512 716 Z" stroke-miterlimit="10"/></g><g transform="translate(-6,-30) scale(1,1)"><g><path fill="none" stroke="none"/><text fill="#000000" stroke="none" font-family="Arial" font-size="13px" font-style="normal" font-weight="bold" text-decoration="none" x="540.425048828125" y="723">Remover conta</text></g></g><g transform="translate(-6,-30) scale(1,1)"><path fill="#C0C0C0" stroke="none" d="M 295 507 C 295 495.954304 329.2502128 487 371.5 487 C 413.7497872 487 448 495.954304 448 507 C 448 518.045696 413.7497872 527 371.5 527 C 329.2502128 527 295 518.045696 295 507 Z" opacity="0.2"/></g><g transform="translate(-6,-30) scale(1,1)"><path fill="#ffffff" stroke="none" d="M 288 500 C 288 488.954304 322.2502128 480 364.5 480 C 406.7497872 480 441 488.954304 441 500 C 441 511.045696 406.7497872 520 364.5 520 C 322.2502128 520 288 511.045696 288 500 Z"/></g><g transform="translate(-6,-30) scale(1,1)"><path fill="none" stroke="#000000" d="M 288 500 C 288 488.954304 322.2502128 480 364.5 480 C 406.7497872 480 441 488.954304 441 500 C 441 511.045696 406.7497872 520 364.5 520 C 322.2502128 520 288 511.045696 288 500 Z" stroke-miterlimit="10"/></g><g transform="translate(-6,-30) scale(1,1)"><g><path fill="none" stroke="none"/><text fill="#000000" stroke="none" font-family="Arial" font-size="13px" font-style="normal" font-weight="bold" text-decoration="none" x="318.254150390625" y="507">Gerenciar conta</text></g></g><g transform="translate(-6,-30) scale(1,1)"><path fill="none" stroke="#000000" d="M 563 249 L 381 479" stroke-miterlimit="10" stroke-dasharray="3"/></g><g transform="translate(-6,-30) scale(1,1)"><path fill="none" stroke="#000000" d="M 384.00519024801923 468.41846742795684 L 381 479 L 390.6072638401681 473.64271696609205" stroke-miterlimit="10"/></g><g transform="translate(-6,-30) scale(1,1)"><g><path fill="none" stroke="none"/><text fill="#000000" stroke="none" font-family="Arial" font-size="13px" font-style="normal" font-weight="normal" text-decoration="none" x="468.5" y="388.5">«extend»</text></g></g><g transform="translate(-6,-30) scale(1,1)"><path fill="none" stroke="#000000" d="M 539 419 L 409 479" stroke-miterlimit="10" stroke-dasharray="3"/></g><g transform="translate(-6,-30) scale(1,1)"><path fill="none" stroke="#000000" d="M 416.46326316977775 470.91917684523173 L 409 479 L 419.99132884743557 478.5633191468237" stroke-miterlimit="10"/></g><g transform="translate(-6,-30) scale(1,1)"><g><path fill="none" stroke="none"/><text fill="#000000" stroke="none" font-family="Arial" font-size="13px" font-style="normal" font-weight="normal" text-decoration="none" x="471.5" y="467.5">«extend»</text></g></g><g transform="translate(-6,-30) scale(1,1)"><path fill="none" stroke="#000000" d="M 527 516 L 442 508" stroke-miterlimit="10" stroke-dasharray="3"/></g><g transform="translate(-6,-30) scale(1,1)"><path fill="none" stroke="#000000" d="M 452.512407275924 504.7612821572263 L 442 508 L 451.7235138203758 513.1432751224255" stroke-miterlimit="10"/></g><g transform="translate(-6,-30) scale(1,1)"><g><path fill="none" stroke="none"/><text fill="#000000" stroke="none" font-family="Arial" font-size="13px" font-style="normal" font-weight="normal" text-decoration="none" x="455.5" y="532.5">«extend»</text></g></g><g transform="translate(-6,-30) scale(1,1)"><path fill="none" stroke="#000000" d="M 545 599 L 402 521" stroke-miterlimit="10" stroke-dasharray="3"/></g><g transform="translate(-6,-30) scale(1,1)"><path fill="none" stroke="#000000" d="M 412.9375038130825 522.1709015068762 L 402 521 L 408.9060307198706 529.5619355110981" stroke-miterlimit="10"/></g><g transform="translate(-6,-30) scale(1,1)"><g><path fill="none" stroke="none"/><text fill="#000000" stroke="none" font-family="Arial" font-size="13px" font-style="normal" font-weight="normal" text-decoration="none" x="439.5" y="580.5">«extend»</text></g></g><g transform="translate(-6,-30) scale(1,1)"><path fill="none" stroke="#000000" d="M 560 695 L 480 626 L 383 521" stroke-miterlimit="10" stroke-dasharray="3"/></g><g transform="translate(-6,-30) scale(1,1)"><path fill="none" stroke="#000000" d="M 392.9881312916924 525.6083872775533 L 383 521 L 386.8040534734455 531.321297262029" stroke-miterlimit="10"/></g><g transform="translate(-6,-30) scale(1,1)"><g><path fill="none" stroke="none"/><text fill="#000000" stroke="none" font-family="Arial" font-size="13px" font-style="normal" font-weight="normal" text-decoration="none" x="436.5" y="645.5">«extend»</text></g></g><g transform="translate(-6,-30) scale(1,1)"><path fill="none" stroke="#000000" d="M 199 502 L 287 501" stroke-miterlimit="10"/></g></g></svg>